<mxfile host="app.diagrams.net" modified="2024-06-15T10:18:35.732Z" agent="Mozilla/5.0 (Windows NT 10.0; Win64; x64) AppleWebKit/537.36 (KHTML, like Gecko) Chrome/126.0.0.0 Safari/537.36" etag="NYS6vec3wmGKLxQFk0hx" version="24.5.4" type="device" pages="4">
  <diagram name="All" id="4EODxzuCYJmrwFwt7I9v">
    <mxGraphModel dx="2512" dy="2317" grid="0" gridSize="10" guides="0" tooltips="1" connect="1" arrows="1" fold="1" page="1" pageScale="1" pageWidth="827" pageHeight="1169" background="#FFE6CC" math="0" shadow="0">
      <root>
        <mxCell id="0" />
        <mxCell id="1" parent="0" />
        <mxCell id="9SPt6M4kK89ER8js-FHe-1" value="" style="group" parent="1" vertex="1" connectable="0">
          <mxGeometry x="1204" y="278" width="100" height="100" as="geometry" />
        </mxCell>
        <mxCell id="9SPt6M4kK89ER8js-FHe-2" value="" style="verticalLabelPosition=bottom;shadow=0;dashed=0;align=center;html=1;verticalAlign=top;shape=stencil(tVXLcoIwFP2abDuRDEWXStuPcBfwKhkhYUKK+vcGQlqjBGOtM2zuOZl7TnIfIJI2Ba0BRZg2NeQKkQ8URS2VjGalhiPNFAacYWxiTiswUC4qAzVKij0c2EYNhxkvQDJl2IOTgHwivNRo95E0F5xrXSZ44zAXvE5OGVeO8tJkrrVIBQqkQQeDxyF6IyY+OSyKvh5RWgUpJf+gtA5Sih2l2bgSSTXie1qSZjTf76T45ptRf7JrhJ+6z7FTxXfXkPVn/Xiu3hvyyJJ0KyRM+NmysjQdNvGoNe1674awdCVa+HVNcHi9bIaScX8G372nTCRPm0ieNxG7KRZ/cBFfu7jT/hr3FEtvo3tlVnDsepOWbMeHJQS8Gxa7h5z90F6cy4RSdl+NF9E3TQ9qr4K0k5dor4O0ryo2X0wM7c1s9qj5a/TAGQ==);" parent="9SPt6M4kK89ER8js-FHe-1" vertex="1">
          <mxGeometry width="100" height="100" as="geometry" />
        </mxCell>
        <mxCell id="9SPt6M4kK89ER8js-FHe-3" value="&lt;b&gt;Com&lt;/b&gt;&lt;div&gt;&lt;b&gt;&amp;lt;&lt;/b&gt;&lt;/div&gt;" style="text;html=1;align=center;verticalAlign=middle;whiteSpace=wrap;rounded=0;" parent="9SPt6M4kK89ER8js-FHe-1" vertex="1">
          <mxGeometry x="20" y="35" width="60" height="30" as="geometry" />
        </mxCell>
        <mxCell id="9SPt6M4kK89ER8js-FHe-4" value="" style="group" parent="1" vertex="1" connectable="0">
          <mxGeometry x="1103" y="150" width="100" height="100" as="geometry" />
        </mxCell>
        <object label="" component="" id="9SPt6M4kK89ER8js-FHe-5">
          <mxCell style="verticalLabelPosition=bottom;shadow=0;dashed=0;align=center;html=1;verticalAlign=top;shape=stencil(rZbbcsIgEIafJredGJqqlx3Um3Y6Y9sXwLgqYwIZQj28fYkkrURBgs7kht1kvx+yByKEqw0pIUpiUpWQyQhNoiTZEUHJIlfmRHk22jiIY71mpABtwrwoOQMmtaOSgm9hT5ey+YSyDQjaePdGGDSN4ldlrR+EM86YolPOKsNz5lfBCa1JZ/zPr28du1SYAiQIbW+EHozVsVk9Ib2OklkfFn5/C2ClQazpRwBqGISa+JDabRwNb0/SPIA0uE5CWFlsOYPwgmTbteA/bHlVn6jz/C+tR7GRni+moM4pDyxbPwmyYBFecQEOPSua57p0HIdakrqoLhytu+A7sKUGcv6vNkJOGVj37RfCJWJ4vwi/EKaITohnZz1eV4HMEOn9G0m9VLhO8xEiAk4zNUMEiOhEsNVTDxHjR6i40dGU3VJ/an7eqlwJh7rdkJyumeblsPqfmJ1Jtjt7b8Gl5IXZj8z+iG7MFy92O236oYe90Zm6KKi2b8InXuzOD3Nnnjd7HsIejR0j4KLTn6z6inUy/AI=);strokeColor=default;fontFamily=Helvetica;fontSize=12;fontColor=default;fillColor=default;" parent="9SPt6M4kK89ER8js-FHe-4" vertex="1">
            <mxGeometry width="100" height="100" as="geometry" />
          </mxCell>
        </object>
        <mxCell id="9SPt6M4kK89ER8js-FHe-6" value="&lt;b&gt;cnt_i&lt;/b&gt;" style="text;html=1;align=center;verticalAlign=middle;whiteSpace=wrap;rounded=0;" parent="9SPt6M4kK89ER8js-FHe-4" vertex="1">
          <mxGeometry x="20" y="35" width="60" height="30" as="geometry" />
        </mxCell>
        <mxCell id="9SPt6M4kK89ER8js-FHe-10" value="" style="group" parent="1" vertex="1" connectable="0">
          <mxGeometry x="1289" y="569" width="100" height="100" as="geometry" />
        </mxCell>
        <object label="" component="" id="9SPt6M4kK89ER8js-FHe-11">
          <mxCell style="verticalLabelPosition=bottom;shadow=0;dashed=0;align=center;html=1;verticalAlign=top;shape=stencil(rZbbcsIgEIafJredGJqqlx3Um3Y6Y9sXwLgqYwIZQj28fYkkrURBgs7kht1kvx+yByKEqw0pIUpiUpWQyQhNoiTZEUHJIlfmRHk22jiIY71mpABtwrwoOQMmtaOSgm9hT5ey+YSyDQjaePdGGDSN4ldlrR+EM86YolPOKsNz5lfBCa1JZ/zPr28du1SYAiQIbW+EHozVsVk9Ib2OklkfFn5/C2ClQazpRwBqGISa+JDabRwNb0/SPIA0uE5CWFlsOYPwgmTbteA/bHlVn6jz/C+tR7GRni+moM4pDyxbPwmyYBFecQEOPSua57p0HIdakrqoLhytu+A7sKUGcv6vNkJOGVj37RfCJWJ4vwi/EKaITohnZz1eV4HMEOn9G0m9VLhO8xEiAk4zNUMEiOhEsNVTDxHjR6i40dGU3VJ/an7eqlwJh7rdkJyumeblsPqfmJ1Jtjt7b8Gl5IXZj8z+iG7MFy92O236oYe90Zm6KKi2b8InXuzOD3Nnnjd7HsIejR0j4KLTn6z6inUy/AI=);strokeColor=default;fontFamily=Helvetica;fontSize=12;fontColor=default;fillColor=default;" parent="9SPt6M4kK89ER8js-FHe-10" vertex="1">
            <mxGeometry width="100" height="100" as="geometry" />
          </mxCell>
        </object>
        <mxCell id="9SPt6M4kK89ER8js-FHe-12" value="&lt;b&gt;Max&lt;/b&gt;" style="text;html=1;align=center;verticalAlign=middle;whiteSpace=wrap;rounded=0;" parent="9SPt6M4kK89ER8js-FHe-10" vertex="1">
          <mxGeometry x="20" y="35" width="60" height="30" as="geometry" />
        </mxCell>
        <mxCell id="9SPt6M4kK89ER8js-FHe-13" value="" style="group" parent="1" vertex="1" connectable="0">
          <mxGeometry x="1574" y="568" width="100" height="100" as="geometry" />
        </mxCell>
        <object label="" component="" id="9SPt6M4kK89ER8js-FHe-14">
          <mxCell style="verticalLabelPosition=bottom;shadow=0;dashed=0;align=center;html=1;verticalAlign=top;shape=stencil(rZbbcsIgEIafJredGJqqlx3Um3Y6Y9sXwLgqYwIZQj28fYkkrURBgs7kht1kvx+yByKEqw0pIUpiUpWQyQhNoiTZEUHJIlfmRHk22jiIY71mpABtwrwoOQMmtaOSgm9hT5ey+YSyDQjaePdGGDSN4ldlrR+EM86YolPOKsNz5lfBCa1JZ/zPr28du1SYAiQIbW+EHozVsVk9Ib2OklkfFn5/C2ClQazpRwBqGISa+JDabRwNb0/SPIA0uE5CWFlsOYPwgmTbteA/bHlVn6jz/C+tR7GRni+moM4pDyxbPwmyYBFecQEOPSua57p0HIdakrqoLhytu+A7sKUGcv6vNkJOGVj37RfCJWJ4vwi/EKaITohnZz1eV4HMEOn9G0m9VLhO8xEiAk4zNUMEiOhEsNVTDxHjR6i40dGU3VJ/an7eqlwJh7rdkJyumeblsPqfmJ1Jtjt7b8Gl5IXZj8z+iG7MFy92O236oYe90Zm6KKi2b8InXuzOD3Nnnjd7HsIejR0j4KLTn6z6inUy/AI=);strokeColor=default;fontFamily=Helvetica;fontSize=12;fontColor=default;fillColor=default;" parent="9SPt6M4kK89ER8js-FHe-13" vertex="1">
            <mxGeometry width="100" height="100" as="geometry" />
          </mxCell>
        </object>
        <mxCell id="9SPt6M4kK89ER8js-FHe-15" value="&lt;b&gt;Min&lt;/b&gt;" style="text;html=1;align=center;verticalAlign=middle;whiteSpace=wrap;rounded=0;" parent="9SPt6M4kK89ER8js-FHe-13" vertex="1">
          <mxGeometry x="20" y="35" width="60" height="30" as="geometry" />
        </mxCell>
        <mxCell id="9SPt6M4kK89ER8js-FHe-24" value="" style="endArrow=classic;html=1;rounded=0;exitX=0.5;exitY=0;exitDx=0;exitDy=0;entryX=0.5;entryY=0;entryDx=0;entryDy=0;entryPerimeter=0;" parent="1" source="9SPt6M4kK89ER8js-FHe-20" target="9SPt6M4kK89ER8js-FHe-5" edge="1">
          <mxGeometry width="50" height="50" relative="1" as="geometry">
            <mxPoint x="1157" y="94" as="sourcePoint" />
            <mxPoint x="1162" y="192" as="targetPoint" />
          </mxGeometry>
        </mxCell>
        <mxCell id="9SPt6M4kK89ER8js-FHe-29" value="" style="endArrow=classic;html=1;rounded=0;exitX=0.98;exitY=0.367;exitDx=0;exitDy=0;entryX=0.7;entryY=0;entryDx=0;entryDy=0;entryPerimeter=0;edgeStyle=orthogonalEdgeStyle;exitPerimeter=0;" parent="1" source="Q7C4iDFm5_iqHvj9V3m8-27" target="9SPt6M4kK89ER8js-FHe-2" edge="1">
          <mxGeometry width="50" height="50" relative="1" as="geometry">
            <mxPoint x="1341" y="196.5" as="sourcePoint" />
            <mxPoint x="1089" y="414" as="targetPoint" />
          </mxGeometry>
        </mxCell>
        <mxCell id="9SPt6M4kK89ER8js-FHe-32" value="" style="endArrow=classic;html=1;rounded=0;exitX=0.5;exitY=1;exitDx=0;exitDy=0;exitPerimeter=0;entryX=0.3;entryY=0;entryDx=0;entryDy=0;entryPerimeter=0;edgeStyle=orthogonalEdgeStyle;" parent="1" source="9SPt6M4kK89ER8js-FHe-5" target="9SPt6M4kK89ER8js-FHe-2" edge="1">
          <mxGeometry width="50" height="50" relative="1" as="geometry">
            <mxPoint x="1112" y="242" as="sourcePoint" />
            <mxPoint x="1162" y="192" as="targetPoint" />
          </mxGeometry>
        </mxCell>
        <mxCell id="9SPt6M4kK89ER8js-FHe-33" value="i_lt" style="rounded=0;whiteSpace=wrap;html=1;fillColor=#fff2cc;strokeColor=#d6b656;" parent="1" vertex="1">
          <mxGeometry x="1152" y="340" width="54" height="24" as="geometry" />
        </mxCell>
        <mxCell id="9SPt6M4kK89ER8js-FHe-34" value="" style="rounded=0;orthogonalLoop=1;jettySize=auto;html=1;exitX=0.5;exitY=1;exitDx=0;exitDy=0;exitPerimeter=0;" parent="1" source="9SPt6M4kK89ER8js-FHe-2" target="9SPt6M4kK89ER8js-FHe-33" edge="1">
          <mxGeometry relative="1" as="geometry">
            <Array as="points">
              <mxPoint x="1173" y="378" />
            </Array>
          </mxGeometry>
        </mxCell>
        <mxCell id="9SPt6M4kK89ER8js-FHe-36" value="" style="group" parent="1" vertex="1" connectable="0">
          <mxGeometry x="1093" y="59" width="120" height="41.00000000000001" as="geometry" />
        </mxCell>
        <mxCell id="9SPt6M4kK89ER8js-FHe-20" value="" style="shape=trapezoid;perimeter=trapezoidPerimeter;whiteSpace=wrap;html=1;fixedSize=1;rotation=-180;" parent="9SPt6M4kK89ER8js-FHe-36" vertex="1">
          <mxGeometry y="7.105427357601002e-15" width="120" height="41" as="geometry" />
        </mxCell>
        <mxCell id="9SPt6M4kK89ER8js-FHe-35" value="&lt;b&gt;mux_i&lt;/b&gt;" style="text;html=1;align=center;verticalAlign=middle;whiteSpace=wrap;rounded=0;" parent="9SPt6M4kK89ER8js-FHe-36" vertex="1">
          <mxGeometry x="30" y="5.500000000000007" width="60" height="30" as="geometry" />
        </mxCell>
        <mxCell id="tDnqYvwLVkWDqhEaBBwF-21" value="1" style="text;html=1;align=center;verticalAlign=middle;whiteSpace=wrap;rounded=0;" parent="9SPt6M4kK89ER8js-FHe-36" vertex="1">
          <mxGeometry x="60" y="-6" width="60" height="30" as="geometry" />
        </mxCell>
        <mxCell id="9SPt6M4kK89ER8js-FHe-37" value="&lt;b&gt;sel_i&lt;/b&gt;" style="rounded=0;whiteSpace=wrap;html=1;fillColor=#dae8fc;strokeColor=#6c8ebf;" parent="1" vertex="1">
          <mxGeometry x="955" y="69" width="59" height="21" as="geometry" />
        </mxCell>
        <mxCell id="9SPt6M4kK89ER8js-FHe-39" value="" style="endArrow=classic;html=1;rounded=0;exitX=1;exitY=0.5;exitDx=0;exitDy=0;entryX=1;entryY=0.5;entryDx=0;entryDy=0;" parent="1" source="9SPt6M4kK89ER8js-FHe-37" target="9SPt6M4kK89ER8js-FHe-20" edge="1">
          <mxGeometry width="50" height="50" relative="1" as="geometry">
            <mxPoint x="1212" y="127" as="sourcePoint" />
            <mxPoint x="1262" y="77" as="targetPoint" />
          </mxGeometry>
        </mxCell>
        <mxCell id="9SPt6M4kK89ER8js-FHe-41" value="0" style="whiteSpace=wrap;html=1;aspect=fixed;" parent="1" vertex="1">
          <mxGeometry x="1107" y="-17" width="32" height="32" as="geometry" />
        </mxCell>
        <mxCell id="9SPt6M4kK89ER8js-FHe-42" value="" style="endArrow=classic;html=1;rounded=0;exitX=0.5;exitY=1;exitDx=0;exitDy=0;entryX=0.75;entryY=1;entryDx=0;entryDy=0;" parent="1" source="9SPt6M4kK89ER8js-FHe-41" target="9SPt6M4kK89ER8js-FHe-20" edge="1">
          <mxGeometry width="50" height="50" relative="1" as="geometry">
            <mxPoint x="1212" y="127" as="sourcePoint" />
            <mxPoint x="1262" y="77" as="targetPoint" />
          </mxGeometry>
        </mxCell>
        <mxCell id="9SPt6M4kK89ER8js-FHe-47" value="" style="endArrow=classic;html=1;rounded=0;exitX=0.3;exitY=0;exitDx=0;exitDy=0;exitPerimeter=0;entryX=0.5;entryY=1;entryDx=0;entryDy=0;edgeStyle=orthogonalEdgeStyle;" parent="1" source="9SPt6M4kK89ER8js-FHe-2" target="9SPt6M4kK89ER8js-FHe-48" edge="1">
          <mxGeometry width="50" height="50" relative="1" as="geometry">
            <mxPoint x="1212" y="127" as="sourcePoint" />
            <mxPoint x="1237" y="25" as="targetPoint" />
          </mxGeometry>
        </mxCell>
        <mxCell id="9SPt6M4kK89ER8js-FHe-48" value="+1" style="whiteSpace=wrap;html=1;aspect=fixed;" parent="1" vertex="1">
          <mxGeometry x="1218" y="-11" width="32" height="32" as="geometry" />
        </mxCell>
        <mxCell id="9SPt6M4kK89ER8js-FHe-49" value="" style="endArrow=classic;html=1;rounded=0;exitX=0;exitY=0.438;exitDx=0;exitDy=0;entryX=0.25;entryY=1;entryDx=0;entryDy=0;exitPerimeter=0;edgeStyle=orthogonalEdgeStyle;" parent="1" source="9SPt6M4kK89ER8js-FHe-48" target="9SPt6M4kK89ER8js-FHe-20" edge="1">
          <mxGeometry width="50" height="50" relative="1" as="geometry">
            <mxPoint x="1216" y="-5.000000000000227" as="sourcePoint" />
            <mxPoint x="1177" y="53" as="targetPoint" />
          </mxGeometry>
        </mxCell>
        <mxCell id="9SPt6M4kK89ER8js-FHe-50" value="&lt;b&gt;&lt;font style=&quot;font-size: 14px;&quot;&gt;MemIn(Size)&lt;/font&gt;&lt;/b&gt;" style="rounded=0;whiteSpace=wrap;html=1;" parent="1" vertex="1">
          <mxGeometry x="894" y="354" width="120" height="180" as="geometry" />
        </mxCell>
        <mxCell id="9SPt6M4kK89ER8js-FHe-51" value="" style="triangle;whiteSpace=wrap;html=1;" parent="1" vertex="1">
          <mxGeometry x="894" y="409" width="10" height="20" as="geometry" />
        </mxCell>
        <mxCell id="9SPt6M4kK89ER8js-FHe-52" value="CLK" style="text;html=1;strokeColor=none;fillColor=none;align=center;verticalAlign=middle;whiteSpace=wrap;rounded=0;fontSize=14;" parent="1" vertex="1">
          <mxGeometry x="794" y="404" width="60" height="30" as="geometry" />
        </mxCell>
        <mxCell id="9SPt6M4kK89ER8js-FHe-53" value="RST" style="text;html=1;align=center;verticalAlign=middle;resizable=0;points=[];autosize=1;strokeColor=none;fillColor=none;fontSize=14;" parent="1" vertex="1">
          <mxGeometry x="929" y="504" width="50" height="30" as="geometry" />
        </mxCell>
        <mxCell id="9SPt6M4kK89ER8js-FHe-54" value="mi_r_en" style="rounded=0;whiteSpace=wrap;html=1;fontSize=14;fillColor=#dae8fc;strokeColor=#6c8ebf;" parent="1" vertex="1">
          <mxGeometry x="764" y="459" width="70" height="20" as="geometry" />
        </mxCell>
        <mxCell id="9SPt6M4kK89ER8js-FHe-55" value="Din" style="text;html=1;strokeColor=none;fillColor=none;align=center;verticalAlign=middle;whiteSpace=wrap;rounded=0;fontSize=14;" parent="1" vertex="1">
          <mxGeometry x="884" y="369" width="60" height="30" as="geometry" />
        </mxCell>
        <mxCell id="9SPt6M4kK89ER8js-FHe-56" value="RE" style="text;html=1;align=center;verticalAlign=middle;resizable=0;points=[];autosize=1;strokeColor=none;fillColor=none;fontSize=14;" parent="1" vertex="1">
          <mxGeometry x="889" y="454" width="40" height="30" as="geometry" />
        </mxCell>
        <mxCell id="9SPt6M4kK89ER8js-FHe-57" value="WE" style="text;html=1;align=center;verticalAlign=middle;resizable=0;points=[];autosize=1;strokeColor=none;fillColor=none;fontSize=14;" parent="1" vertex="1">
          <mxGeometry x="884" y="499" width="50" height="30" as="geometry" />
        </mxCell>
        <mxCell id="9SPt6M4kK89ER8js-FHe-58" value="Dout" style="text;html=1;align=center;verticalAlign=middle;resizable=0;points=[];autosize=1;strokeColor=none;fillColor=none;fontSize=14;" parent="1" vertex="1">
          <mxGeometry x="964" y="379" width="50" height="30" as="geometry" />
        </mxCell>
        <mxCell id="9SPt6M4kK89ER8js-FHe-59" value="" style="endArrow=none;html=1;rounded=0;fontSize=14;" parent="1" edge="1">
          <mxGeometry width="50" height="50" relative="1" as="geometry">
            <mxPoint x="844" y="419" as="sourcePoint" />
            <mxPoint x="894" y="419" as="targetPoint" />
          </mxGeometry>
        </mxCell>
        <mxCell id="9SPt6M4kK89ER8js-FHe-60" value="" style="edgeStyle=orthogonalEdgeStyle;rounded=0;orthogonalLoop=1;jettySize=auto;html=1;fontSize=14;" parent="1" source="9SPt6M4kK89ER8js-FHe-54" edge="1">
          <mxGeometry relative="1" as="geometry">
            <mxPoint x="894" y="469" as="targetPoint" />
          </mxGeometry>
        </mxCell>
        <mxCell id="9SPt6M4kK89ER8js-FHe-61" value="" style="endArrow=none;html=1;rounded=0;fontSize=14;exitX=0.5;exitY=1;exitDx=0;exitDy=0;" parent="1" source="9SPt6M4kK89ER8js-FHe-50" edge="1">
          <mxGeometry width="50" height="50" relative="1" as="geometry">
            <mxPoint x="954" y="539" as="sourcePoint" />
            <mxPoint x="954" y="579" as="targetPoint" />
          </mxGeometry>
        </mxCell>
        <mxCell id="9SPt6M4kK89ER8js-FHe-62" value="reset" style="text;html=1;align=center;verticalAlign=middle;resizable=0;points=[];autosize=1;strokeColor=none;fillColor=none;fontSize=14;" parent="1" vertex="1">
          <mxGeometry x="924" y="569" width="50" height="30" as="geometry" />
        </mxCell>
        <mxCell id="9SPt6M4kK89ER8js-FHe-63" style="edgeStyle=orthogonalEdgeStyle;rounded=0;orthogonalLoop=1;jettySize=auto;html=1;entryX=0;entryY=0.139;entryDx=0;entryDy=0;entryPerimeter=0;fontSize=14;" parent="1" source="9SPt6M4kK89ER8js-FHe-64" target="9SPt6M4kK89ER8js-FHe-50" edge="1">
          <mxGeometry relative="1" as="geometry" />
        </mxCell>
        <mxCell id="9SPt6M4kK89ER8js-FHe-64" value="in_data" style="rounded=0;whiteSpace=wrap;html=1;fontSize=14;fillColor=#d5e8d4;strokeColor=#82b366;" parent="1" vertex="1">
          <mxGeometry x="774" y="369" width="60" height="20" as="geometry" />
        </mxCell>
        <mxCell id="9SPt6M4kK89ER8js-FHe-65" value="mi_w_en" style="rounded=0;whiteSpace=wrap;html=1;fontSize=14;fillColor=#dae8fc;strokeColor=#6c8ebf;" parent="1" vertex="1">
          <mxGeometry x="764" y="504" width="70" height="20" as="geometry" />
        </mxCell>
        <mxCell id="9SPt6M4kK89ER8js-FHe-66" style="edgeStyle=orthogonalEdgeStyle;rounded=0;orthogonalLoop=1;jettySize=auto;html=1;fontSize=14;" parent="1" source="9SPt6M4kK89ER8js-FHe-65" edge="1">
          <mxGeometry relative="1" as="geometry">
            <mxPoint x="894" y="514" as="targetPoint" />
          </mxGeometry>
        </mxCell>
        <mxCell id="9SPt6M4kK89ER8js-FHe-67" value="ADDR" style="text;html=1;align=center;verticalAlign=middle;resizable=0;points=[];autosize=1;strokeColor=none;fillColor=none;fontSize=14;" parent="1" vertex="1">
          <mxGeometry x="924" y="349" width="60" height="30" as="geometry" />
        </mxCell>
        <mxCell id="9SPt6M4kK89ER8js-FHe-73" value="" style="endArrow=classic;html=1;rounded=0;exitX=0.5;exitY=1;exitDx=0;exitDy=0;exitPerimeter=0;entryX=0.541;entryY=-0.109;entryDx=0;entryDy=0;entryPerimeter=0;edgeStyle=orthogonalEdgeStyle;" parent="1" source="9SPt6M4kK89ER8js-FHe-5" target="9SPt6M4kK89ER8js-FHe-67" edge="1">
          <mxGeometry width="50" height="50" relative="1" as="geometry">
            <mxPoint x="1115.88" y="224" as="sourcePoint" />
            <mxPoint x="907.9999999999999" y="324.47" as="targetPoint" />
          </mxGeometry>
        </mxCell>
        <mxCell id="9SPt6M4kK89ER8js-FHe-76" value="" style="group" parent="1" vertex="1" connectable="0">
          <mxGeometry x="1279" y="470" width="120" height="41.00000000000001" as="geometry" />
        </mxCell>
        <mxCell id="9SPt6M4kK89ER8js-FHe-77" value="" style="shape=trapezoid;perimeter=trapezoidPerimeter;whiteSpace=wrap;html=1;fixedSize=1;rotation=-180;" parent="9SPt6M4kK89ER8js-FHe-76" vertex="1">
          <mxGeometry y="7.105427357601002e-15" width="120" height="41" as="geometry" />
        </mxCell>
        <mxCell id="9SPt6M4kK89ER8js-FHe-78" value="&lt;b&gt;mux_max&lt;/b&gt;" style="text;html=1;align=center;verticalAlign=middle;whiteSpace=wrap;rounded=0;" parent="9SPt6M4kK89ER8js-FHe-76" vertex="1">
          <mxGeometry x="30" y="5.500000000000007" width="60" height="30" as="geometry" />
        </mxCell>
        <mxCell id="tDnqYvwLVkWDqhEaBBwF-28" value="0" style="text;html=1;align=center;verticalAlign=middle;whiteSpace=wrap;rounded=0;" parent="9SPt6M4kK89ER8js-FHe-76" vertex="1">
          <mxGeometry x="4" y="-5" width="60" height="30" as="geometry" />
        </mxCell>
        <mxCell id="tDnqYvwLVkWDqhEaBBwF-29" value="1" style="text;html=1;align=center;verticalAlign=middle;whiteSpace=wrap;rounded=0;" parent="9SPt6M4kK89ER8js-FHe-76" vertex="1">
          <mxGeometry x="57" y="-5" width="60" height="30" as="geometry" />
        </mxCell>
        <mxCell id="9SPt6M4kK89ER8js-FHe-79" value="" style="group" parent="1" vertex="1" connectable="0">
          <mxGeometry x="1564" y="467" width="127" height="41.00000000000001" as="geometry" />
        </mxCell>
        <mxCell id="9SPt6M4kK89ER8js-FHe-80" value="" style="shape=trapezoid;perimeter=trapezoidPerimeter;whiteSpace=wrap;html=1;fixedSize=1;rotation=-180;" parent="9SPt6M4kK89ER8js-FHe-79" vertex="1">
          <mxGeometry y="7.105427357601002e-15" width="120" height="41" as="geometry" />
        </mxCell>
        <mxCell id="9SPt6M4kK89ER8js-FHe-81" value="&lt;b&gt;mux_min&lt;/b&gt;" style="text;html=1;align=center;verticalAlign=middle;whiteSpace=wrap;rounded=0;" parent="9SPt6M4kK89ER8js-FHe-79" vertex="1">
          <mxGeometry x="30" y="5.500000000000007" width="60" height="30" as="geometry" />
        </mxCell>
        <mxCell id="tDnqYvwLVkWDqhEaBBwF-38" value="1" style="text;html=1;align=center;verticalAlign=middle;whiteSpace=wrap;rounded=0;" parent="9SPt6M4kK89ER8js-FHe-79" vertex="1">
          <mxGeometry x="60" y="-2" width="60" height="30" as="geometry" />
        </mxCell>
        <mxCell id="9SPt6M4kK89ER8js-FHe-83" value="&lt;b&gt;ld_min&lt;/b&gt;" style="rounded=0;whiteSpace=wrap;html=1;fillColor=#dae8fc;strokeColor=#6c8ebf;" parent="1" vertex="1">
          <mxGeometry x="1515" y="628" width="59" height="21" as="geometry" />
        </mxCell>
        <mxCell id="9SPt6M4kK89ER8js-FHe-84" value="&lt;b&gt;sel_max&lt;/b&gt;" style="rounded=0;whiteSpace=wrap;html=1;fillColor=#dae8fc;strokeColor=#6c8ebf;" parent="1" vertex="1">
          <mxGeometry x="1171" y="480" width="59" height="21" as="geometry" />
        </mxCell>
        <mxCell id="9SPt6M4kK89ER8js-FHe-85" value="" style="endArrow=classic;html=1;rounded=0;exitX=1;exitY=0.5;exitDx=0;exitDy=0;entryX=1;entryY=0.5;entryDx=0;entryDy=0;" parent="1" source="9SPt6M4kK89ER8js-FHe-84" target="9SPt6M4kK89ER8js-FHe-77" edge="1">
          <mxGeometry width="50" height="50" relative="1" as="geometry">
            <mxPoint x="1168" y="384" as="sourcePoint" />
            <mxPoint x="1218" y="334" as="targetPoint" />
          </mxGeometry>
        </mxCell>
        <mxCell id="9SPt6M4kK89ER8js-FHe-87" value="" style="endArrow=classic;html=1;rounded=0;exitX=0.5;exitY=0;exitDx=0;exitDy=0;entryX=0.5;entryY=0;entryDx=0;entryDy=0;entryPerimeter=0;" parent="1" source="9SPt6M4kK89ER8js-FHe-77" target="9SPt6M4kK89ER8js-FHe-11" edge="1">
          <mxGeometry width="50" height="50" relative="1" as="geometry">
            <mxPoint x="1362" y="513" as="sourcePoint" />
            <mxPoint x="1412" y="463" as="targetPoint" />
          </mxGeometry>
        </mxCell>
        <mxCell id="9SPt6M4kK89ER8js-FHe-88" value="" style="endArrow=classic;html=1;rounded=0;exitX=0.5;exitY=0;exitDx=0;exitDy=0;entryX=0.5;entryY=0;entryDx=0;entryDy=0;entryPerimeter=0;" parent="1" source="9SPt6M4kK89ER8js-FHe-80" target="9SPt6M4kK89ER8js-FHe-14" edge="1">
          <mxGeometry width="50" height="50" relative="1" as="geometry">
            <mxPoint x="1357" y="512" as="sourcePoint" />
            <mxPoint x="1407" y="462" as="targetPoint" />
          </mxGeometry>
        </mxCell>
        <mxCell id="9SPt6M4kK89ER8js-FHe-99" value="" style="group" parent="1" vertex="1" connectable="0">
          <mxGeometry x="1416" y="701" width="100" height="100" as="geometry" />
        </mxCell>
        <mxCell id="9SPt6M4kK89ER8js-FHe-100" value="" style="verticalLabelPosition=bottom;shadow=0;dashed=0;align=center;html=1;verticalAlign=top;shape=stencil(tVXLcoIwFP2abDuRDEWXStuPcBfwKhkhYUKK+vcGQlqjBGOtM2zuOZl7TnIfIJI2Ba0BRZg2NeQKkQ8URS2VjGalhiPNFAacYWxiTiswUC4qAzVKij0c2EYNhxkvQDJl2IOTgHwivNRo95E0F5xrXSZ44zAXvE5OGVeO8tJkrrVIBQqkQQeDxyF6IyY+OSyKvh5RWgUpJf+gtA5Sih2l2bgSSTXie1qSZjTf76T45ptRf7JrhJ+6z7FTxXfXkPVn/Xiu3hvyyJJ0KyRM+NmysjQdNvGoNe1674awdCVa+HVNcHi9bIaScX8G372nTCRPm0ieNxG7KRZ/cBFfu7jT/hr3FEtvo3tlVnDsepOWbMeHJQS8Gxa7h5z90F6cy4RSdl+NF9E3TQ9qr4K0k5dor4O0ryo2X0wM7c1s9qj5a/TAGQ==);" parent="9SPt6M4kK89ER8js-FHe-99" vertex="1">
          <mxGeometry width="100" height="100" as="geometry" />
        </mxCell>
        <mxCell id="9SPt6M4kK89ER8js-FHe-101" value="&lt;b&gt;Com&lt;/b&gt;&lt;div&gt;&lt;b&gt;&amp;lt;&lt;/b&gt;&lt;/div&gt;" style="text;html=1;align=center;verticalAlign=middle;whiteSpace=wrap;rounded=0;" parent="9SPt6M4kK89ER8js-FHe-99" vertex="1">
          <mxGeometry x="20" y="35" width="60" height="30" as="geometry" />
        </mxCell>
        <mxCell id="9SPt6M4kK89ER8js-FHe-102" value="" style="group" parent="1" vertex="1" connectable="0">
          <mxGeometry x="1077" y="701" width="100" height="100" as="geometry" />
        </mxCell>
        <mxCell id="9SPt6M4kK89ER8js-FHe-103" value="" style="verticalLabelPosition=bottom;shadow=0;dashed=0;align=center;html=1;verticalAlign=top;shape=stencil(tVXLcoIwFP2abDuRDEWXStuPcBfwKhkhYUKK+vcGQlqjBGOtM2zuOZl7TnIfIJI2Ba0BRZg2NeQKkQ8URS2VjGalhiPNFAacYWxiTiswUC4qAzVKij0c2EYNhxkvQDJl2IOTgHwivNRo95E0F5xrXSZ44zAXvE5OGVeO8tJkrrVIBQqkQQeDxyF6IyY+OSyKvh5RWgUpJf+gtA5Sih2l2bgSSTXie1qSZjTf76T45ptRf7JrhJ+6z7FTxXfXkPVn/Xiu3hvyyJJ0KyRM+NmysjQdNvGoNe1674awdCVa+HVNcHi9bIaScX8G372nTCRPm0ieNxG7KRZ/cBFfu7jT/hr3FEtvo3tlVnDsepOWbMeHJQS8Gxa7h5z90F6cy4RSdl+NF9E3TQ9qr4K0k5dor4O0ryo2X0wM7c1s9qj5a/TAGQ==);" parent="9SPt6M4kK89ER8js-FHe-102" vertex="1">
          <mxGeometry width="100" height="100" as="geometry" />
        </mxCell>
        <mxCell id="9SPt6M4kK89ER8js-FHe-104" value="&lt;b&gt;Com&lt;/b&gt;&lt;div&gt;&lt;b&gt;&amp;gt;&lt;/b&gt;&lt;/div&gt;" style="text;html=1;align=center;verticalAlign=middle;whiteSpace=wrap;rounded=0;" parent="9SPt6M4kK89ER8js-FHe-102" vertex="1">
          <mxGeometry x="20" y="35" width="60" height="30" as="geometry" />
        </mxCell>
        <mxCell id="9SPt6M4kK89ER8js-FHe-106" value="" style="endArrow=classic;html=1;rounded=0;exitX=0.5;exitY=1;exitDx=0;exitDy=0;exitPerimeter=0;entryX=0.7;entryY=0;entryDx=0;entryDy=0;entryPerimeter=0;edgeStyle=orthogonalEdgeStyle;" parent="1" source="9SPt6M4kK89ER8js-FHe-11" target="9SPt6M4kK89ER8js-FHe-103" edge="1">
          <mxGeometry width="50" height="50" relative="1" as="geometry">
            <mxPoint x="1322" y="673" as="sourcePoint" />
            <mxPoint x="1276" y="675" as="targetPoint" />
          </mxGeometry>
        </mxCell>
        <mxCell id="9SPt6M4kK89ER8js-FHe-113" value="" style="endArrow=classic;html=1;rounded=0;exitX=1.04;exitY=0.433;exitDx=0;exitDy=0;exitPerimeter=0;entryX=0.3;entryY=0;entryDx=0;entryDy=0;entryPerimeter=0;edgeStyle=orthogonalEdgeStyle;" parent="1" source="9SPt6M4kK89ER8js-FHe-58" target="9SPt6M4kK89ER8js-FHe-100" edge="1">
          <mxGeometry width="50" height="50" relative="1" as="geometry">
            <mxPoint x="1243" y="556" as="sourcePoint" />
            <mxPoint x="1293" y="506" as="targetPoint" />
          </mxGeometry>
        </mxCell>
        <mxCell id="9SPt6M4kK89ER8js-FHe-115" value="min_mt" style="rounded=0;whiteSpace=wrap;html=1;fillColor=#fff2cc;strokeColor=#d6b656;" parent="1" vertex="1">
          <mxGeometry x="1436" y="815" width="54" height="24" as="geometry" />
        </mxCell>
        <mxCell id="9SPt6M4kK89ER8js-FHe-116" value="max_lt" style="rounded=0;whiteSpace=wrap;html=1;fillColor=#fff2cc;strokeColor=#d6b656;" parent="1" vertex="1">
          <mxGeometry x="1101" y="829" width="54" height="24" as="geometry" />
        </mxCell>
        <mxCell id="9SPt6M4kK89ER8js-FHe-117" value="" style="endArrow=classic;html=1;rounded=0;exitX=0.5;exitY=1;exitDx=0;exitDy=0;exitPerimeter=0;entryX=0.5;entryY=0;entryDx=0;entryDy=0;" parent="1" source="9SPt6M4kK89ER8js-FHe-103" target="9SPt6M4kK89ER8js-FHe-116" edge="1">
          <mxGeometry width="50" height="50" relative="1" as="geometry">
            <mxPoint x="1243" y="682" as="sourcePoint" />
            <mxPoint x="1293" y="632" as="targetPoint" />
          </mxGeometry>
        </mxCell>
        <mxCell id="9SPt6M4kK89ER8js-FHe-118" value="" style="endArrow=classic;html=1;rounded=0;exitX=0.5;exitY=1;exitDx=0;exitDy=0;exitPerimeter=0;" parent="1" source="9SPt6M4kK89ER8js-FHe-100" edge="1">
          <mxGeometry width="50" height="50" relative="1" as="geometry">
            <mxPoint x="1449" y="810" as="sourcePoint" />
            <mxPoint x="1467.1428571428569" y="817" as="targetPoint" />
          </mxGeometry>
        </mxCell>
        <mxCell id="9SPt6M4kK89ER8js-FHe-119" value="" style="group" parent="1" vertex="1" connectable="0">
          <mxGeometry x="1490" y="906" width="100" height="100" as="geometry" />
        </mxCell>
        <mxCell id="9SPt6M4kK89ER8js-FHe-120" value="" style="verticalLabelPosition=bottom;shadow=0;dashed=0;align=center;html=1;verticalAlign=top;shape=stencil(tVXLcoIwFP2abDuRDEWXStuPcBfwKhkhYUKK+vcGQlqjBGOtM2zuOZl7TnIfIJI2Ba0BRZg2NeQKkQ8URS2VjGalhiPNFAacYWxiTiswUC4qAzVKij0c2EYNhxkvQDJl2IOTgHwivNRo95E0F5xrXSZ44zAXvE5OGVeO8tJkrrVIBQqkQQeDxyF6IyY+OSyKvh5RWgUpJf+gtA5Sih2l2bgSSTXie1qSZjTf76T45ptRf7JrhJ+6z7FTxXfXkPVn/Xiu3hvyyJJ0KyRM+NmysjQdNvGoNe1674awdCVa+HVNcHi9bIaScX8G372nTCRPm0ieNxG7KRZ/cBFfu7jT/hr3FEtvo3tlVnDsepOWbMeHJQS8Gxa7h5z90F6cy4RSdl+NF9E3TQ9qr4K0k5dor4O0ryo2X0wM7c1s9qj5a/TAGQ==);" parent="9SPt6M4kK89ER8js-FHe-119" vertex="1">
          <mxGeometry width="100" height="100" as="geometry" />
        </mxCell>
        <mxCell id="9SPt6M4kK89ER8js-FHe-121" value="&lt;b&gt;Sub&lt;/b&gt;" style="text;html=1;align=center;verticalAlign=middle;whiteSpace=wrap;rounded=0;" parent="9SPt6M4kK89ER8js-FHe-119" vertex="1">
          <mxGeometry x="20" y="35" width="60" height="30" as="geometry" />
        </mxCell>
        <mxCell id="9SPt6M4kK89ER8js-FHe-123" value="" style="endArrow=classic;html=1;rounded=0;exitX=0.5;exitY=1;exitDx=0;exitDy=0;exitPerimeter=0;entryX=0.3;entryY=0;entryDx=0;entryDy=0;entryPerimeter=0;edgeStyle=orthogonalEdgeStyle;" parent="1" source="9SPt6M4kK89ER8js-FHe-11" target="9SPt6M4kK89ER8js-FHe-120" edge="1">
          <mxGeometry width="50" height="50" relative="1" as="geometry">
            <mxPoint x="1312" y="756" as="sourcePoint" />
            <mxPoint x="1362" y="706" as="targetPoint" />
            <Array as="points">
              <mxPoint x="1339" y="869" />
              <mxPoint x="1520" y="869" />
            </Array>
          </mxGeometry>
        </mxCell>
        <mxCell id="9SPt6M4kK89ER8js-FHe-124" value="" style="endArrow=classic;html=1;rounded=0;exitX=0.5;exitY=1;exitDx=0;exitDy=0;exitPerimeter=0;entryX=0.7;entryY=0;entryDx=0;entryDy=0;entryPerimeter=0;edgeStyle=orthogonalEdgeStyle;" parent="1" source="9SPt6M4kK89ER8js-FHe-14" target="9SPt6M4kK89ER8js-FHe-120" edge="1">
          <mxGeometry width="50" height="50" relative="1" as="geometry">
            <mxPoint x="1349" y="679" as="sourcePoint" />
            <mxPoint x="1530" y="916" as="targetPoint" />
            <Array as="points">
              <mxPoint x="1624" y="870" />
              <mxPoint x="1560" y="870" />
            </Array>
          </mxGeometry>
        </mxCell>
        <mxCell id="tDnqYvwLVkWDqhEaBBwF-4" value="&lt;b&gt;ld_max&lt;/b&gt;" style="rounded=0;whiteSpace=wrap;html=1;fillColor=#dae8fc;strokeColor=#6c8ebf;" parent="1" vertex="1">
          <mxGeometry x="1230" y="628" width="59" height="21" as="geometry" />
        </mxCell>
        <mxCell id="tDnqYvwLVkWDqhEaBBwF-8" value="" style="endArrow=classic;html=1;rounded=0;exitX=1;exitY=0.5;exitDx=0;exitDy=0;entryX=1;entryY=0.5;entryDx=0;entryDy=0;" parent="1" source="tDnqYvwLVkWDqhEaBBwF-7" edge="1">
          <mxGeometry width="50" height="50" relative="1" as="geometry">
            <mxPoint x="1453" y="384" as="sourcePoint" />
            <mxPoint x="1574" y="491" as="targetPoint" />
          </mxGeometry>
        </mxCell>
        <mxCell id="tDnqYvwLVkWDqhEaBBwF-9" value="CLK" style="text;html=1;strokeColor=none;fillColor=none;align=center;verticalAlign=middle;whiteSpace=wrap;rounded=0;fontSize=14;" parent="1" vertex="1">
          <mxGeometry x="1523" y="604" width="60" height="30" as="geometry" />
        </mxCell>
        <mxCell id="tDnqYvwLVkWDqhEaBBwF-10" value="CLK" style="text;html=1;strokeColor=none;fillColor=none;align=center;verticalAlign=middle;whiteSpace=wrap;rounded=0;fontSize=14;" parent="1" vertex="1">
          <mxGeometry x="1240" y="604" width="60" height="30" as="geometry" />
        </mxCell>
        <mxCell id="tDnqYvwLVkWDqhEaBBwF-11" value="CLK" style="text;html=1;strokeColor=none;fillColor=none;align=center;verticalAlign=middle;whiteSpace=wrap;rounded=0;fontSize=14;" parent="1" vertex="1">
          <mxGeometry x="1055" y="185" width="60" height="30" as="geometry" />
        </mxCell>
        <mxCell id="tDnqYvwLVkWDqhEaBBwF-14" value="reset" style="text;html=1;align=center;verticalAlign=middle;resizable=0;points=[];autosize=1;strokeColor=none;fillColor=none;fontSize=14;" parent="1" vertex="1">
          <mxGeometry x="1250" y="584" width="50" height="30" as="geometry" />
        </mxCell>
        <mxCell id="tDnqYvwLVkWDqhEaBBwF-15" value="reset" style="text;html=1;align=center;verticalAlign=middle;resizable=0;points=[];autosize=1;strokeColor=none;fillColor=none;fontSize=14;" parent="1" vertex="1">
          <mxGeometry x="1533" y="584" width="50" height="30" as="geometry" />
        </mxCell>
        <mxCell id="tDnqYvwLVkWDqhEaBBwF-16" value="reset" style="text;html=1;align=center;verticalAlign=middle;resizable=0;points=[];autosize=1;strokeColor=none;fillColor=none;fontSize=14;" parent="1" vertex="1">
          <mxGeometry x="1060" y="164" width="50" height="30" as="geometry" />
        </mxCell>
        <mxCell id="tDnqYvwLVkWDqhEaBBwF-17" value="&lt;b&gt;ld_i&lt;/b&gt;" style="rounded=0;whiteSpace=wrap;html=1;fillColor=#dae8fc;strokeColor=#6c8ebf;" parent="1" vertex="1">
          <mxGeometry x="1044" y="211" width="59" height="21" as="geometry" />
        </mxCell>
        <mxCell id="tDnqYvwLVkWDqhEaBBwF-22" value="0" style="text;html=1;align=center;verticalAlign=middle;whiteSpace=wrap;rounded=0;" parent="1" vertex="1">
          <mxGeometry x="1093" y="53" width="60" height="30" as="geometry" />
        </mxCell>
        <mxCell id="tDnqYvwLVkWDqhEaBBwF-35" value="0" style="text;html=1;align=center;verticalAlign=middle;whiteSpace=wrap;rounded=0;" parent="1" vertex="1">
          <mxGeometry x="1566" y="459" width="60" height="30" as="geometry" />
        </mxCell>
        <mxCell id="Rmssmwa-QkhL1RjJEDaq-1" value="" style="group" parent="1" connectable="0" vertex="1">
          <mxGeometry x="1645" y="998" width="240" height="180" as="geometry" />
        </mxCell>
        <mxCell id="Rmssmwa-QkhL1RjJEDaq-2" value="&lt;b&gt;&lt;font style=&quot;font-size: 14px;&quot;&gt;MemOut(1)&lt;/font&gt;&lt;/b&gt;" style="rounded=0;whiteSpace=wrap;html=1;" parent="Rmssmwa-QkhL1RjJEDaq-1" vertex="1">
          <mxGeometry x="80" width="120" height="180" as="geometry" />
        </mxCell>
        <mxCell id="Rmssmwa-QkhL1RjJEDaq-3" value="" style="triangle;whiteSpace=wrap;html=1;" parent="Rmssmwa-QkhL1RjJEDaq-1" vertex="1">
          <mxGeometry x="80" y="55" width="10" height="20" as="geometry" />
        </mxCell>
        <mxCell id="Rmssmwa-QkhL1RjJEDaq-4" value="CLK" style="text;html=1;strokeColor=none;fillColor=none;align=center;verticalAlign=middle;whiteSpace=wrap;rounded=0;fontSize=14;" parent="Rmssmwa-QkhL1RjJEDaq-1" vertex="1">
          <mxGeometry x="-20" y="50" width="60" height="30" as="geometry" />
        </mxCell>
        <mxCell id="Rmssmwa-QkhL1RjJEDaq-5" value="RST" style="text;html=1;align=center;verticalAlign=middle;resizable=0;points=[];autosize=1;strokeColor=none;fillColor=none;fontSize=14;" parent="Rmssmwa-QkhL1RjJEDaq-1" vertex="1">
          <mxGeometry x="115" y="150" width="50" height="30" as="geometry" />
        </mxCell>
        <mxCell id="Rmssmwa-QkhL1RjJEDaq-6" value="mo_r_en" style="rounded=0;whiteSpace=wrap;html=1;fontSize=14;fillColor=#dae8fc;strokeColor=#6c8ebf;" parent="Rmssmwa-QkhL1RjJEDaq-1" vertex="1">
          <mxGeometry x="-50" y="105" width="70" height="20" as="geometry" />
        </mxCell>
        <mxCell id="Rmssmwa-QkhL1RjJEDaq-7" value="RE" style="text;html=1;align=center;verticalAlign=middle;resizable=0;points=[];autosize=1;strokeColor=none;fillColor=none;fontSize=14;" parent="Rmssmwa-QkhL1RjJEDaq-1" vertex="1">
          <mxGeometry x="75" y="100" width="40" height="30" as="geometry" />
        </mxCell>
        <mxCell id="Rmssmwa-QkhL1RjJEDaq-8" value="WE" style="text;html=1;align=center;verticalAlign=middle;resizable=0;points=[];autosize=1;strokeColor=none;fillColor=none;fontSize=14;" parent="Rmssmwa-QkhL1RjJEDaq-1" vertex="1">
          <mxGeometry x="70" y="145" width="50" height="30" as="geometry" />
        </mxCell>
        <mxCell id="Rmssmwa-QkhL1RjJEDaq-10" value="Din" style="text;html=1;strokeColor=none;fillColor=none;align=center;verticalAlign=middle;whiteSpace=wrap;rounded=0;fontSize=14;" parent="Rmssmwa-QkhL1RjJEDaq-1" vertex="1">
          <mxGeometry x="65" y="10" width="60" height="30" as="geometry" />
        </mxCell>
        <mxCell id="Rmssmwa-QkhL1RjJEDaq-11" value="Dout" style="text;html=1;align=center;verticalAlign=middle;resizable=0;points=[];autosize=1;strokeColor=none;fillColor=none;fontSize=14;" parent="Rmssmwa-QkhL1RjJEDaq-1" vertex="1">
          <mxGeometry x="155" y="25" width="50" height="30" as="geometry" />
        </mxCell>
        <mxCell id="Rmssmwa-QkhL1RjJEDaq-12" value="" style="endArrow=none;html=1;rounded=0;fontSize=14;" parent="1" edge="1">
          <mxGeometry width="50" height="50" relative="1" as="geometry">
            <mxPoint x="1675" y="1063" as="sourcePoint" />
            <mxPoint x="1725" y="1063" as="targetPoint" />
          </mxGeometry>
        </mxCell>
        <mxCell id="Rmssmwa-QkhL1RjJEDaq-13" value="" style="edgeStyle=orthogonalEdgeStyle;rounded=0;orthogonalLoop=1;jettySize=auto;html=1;fontSize=14;" parent="1" source="Rmssmwa-QkhL1RjJEDaq-6" edge="1">
          <mxGeometry relative="1" as="geometry">
            <mxPoint x="1725" y="1113" as="targetPoint" />
          </mxGeometry>
        </mxCell>
        <mxCell id="Rmssmwa-QkhL1RjJEDaq-14" value="" style="endArrow=none;html=1;rounded=0;fontSize=14;exitX=0.5;exitY=1;exitDx=0;exitDy=0;" parent="1" source="Rmssmwa-QkhL1RjJEDaq-2" edge="1">
          <mxGeometry width="50" height="50" relative="1" as="geometry">
            <mxPoint x="1785" y="1183" as="sourcePoint" />
            <mxPoint x="1785" y="1223" as="targetPoint" />
          </mxGeometry>
        </mxCell>
        <mxCell id="Rmssmwa-QkhL1RjJEDaq-15" value="reset" style="text;html=1;align=center;verticalAlign=middle;resizable=0;points=[];autosize=1;strokeColor=none;fillColor=none;fontSize=14;" parent="1" vertex="1">
          <mxGeometry x="1755" y="1213" width="50" height="30" as="geometry" />
        </mxCell>
        <mxCell id="Rmssmwa-QkhL1RjJEDaq-16" value="mo_w_en" style="rounded=0;whiteSpace=wrap;html=1;fontSize=14;fillColor=#dae8fc;strokeColor=#6c8ebf;" parent="1" vertex="1">
          <mxGeometry x="1595" y="1148" width="70" height="20" as="geometry" />
        </mxCell>
        <mxCell id="Rmssmwa-QkhL1RjJEDaq-17" style="edgeStyle=orthogonalEdgeStyle;rounded=0;orthogonalLoop=1;jettySize=auto;html=1;fontSize=14;" parent="1" source="Rmssmwa-QkhL1RjJEDaq-16" edge="1">
          <mxGeometry relative="1" as="geometry">
            <mxPoint x="1725" y="1158" as="targetPoint" />
          </mxGeometry>
        </mxCell>
        <mxCell id="Rmssmwa-QkhL1RjJEDaq-18" value="out_data" style="rounded=0;whiteSpace=wrap;html=1;fontSize=14;fillColor=#f8cecc;strokeColor=#b85450;" parent="1" vertex="1">
          <mxGeometry x="1954" y="1028" width="60" height="30" as="geometry" />
        </mxCell>
        <mxCell id="Rmssmwa-QkhL1RjJEDaq-19" style="edgeStyle=orthogonalEdgeStyle;rounded=0;orthogonalLoop=1;jettySize=auto;html=1;exitX=1;exitY=0.25;exitDx=0;exitDy=0;entryX=0;entryY=0.5;entryDx=0;entryDy=0;fontSize=14;" parent="1" source="Rmssmwa-QkhL1RjJEDaq-2" target="Rmssmwa-QkhL1RjJEDaq-18" edge="1">
          <mxGeometry relative="1" as="geometry" />
        </mxCell>
        <mxCell id="Rmssmwa-QkhL1RjJEDaq-20" value="" style="rounded=0;orthogonalLoop=1;jettySize=auto;html=1;fontSize=14;exitX=0.5;exitY=1;exitDx=0;exitDy=0;exitPerimeter=0;entryX=0;entryY=0.5;entryDx=0;entryDy=0;edgeStyle=orthogonalEdgeStyle;" parent="1" source="9SPt6M4kK89ER8js-FHe-120" target="Rmssmwa-QkhL1RjJEDaq-10" edge="1">
          <mxGeometry relative="1" as="geometry">
            <mxPoint x="1817" y="1057" as="targetPoint" />
            <mxPoint x="1757" y="1057" as="sourcePoint" />
            <Array as="points">
              <mxPoint x="1540" y="1023" />
            </Array>
          </mxGeometry>
        </mxCell>
        <mxCell id="Rmssmwa-QkhL1RjJEDaq-184" value="" style="edgeStyle=orthogonalEdgeStyle;rounded=0;orthogonalLoop=1;jettySize=auto;html=1;" parent="1" source="Rmssmwa-QkhL1RjJEDaq-88" target="Rmssmwa-QkhL1RjJEDaq-89" edge="1">
          <mxGeometry relative="1" as="geometry">
            <Array as="points">
              <mxPoint x="154" y="-87" />
              <mxPoint x="154" y="-87" />
            </Array>
          </mxGeometry>
        </mxCell>
        <mxCell id="Rmssmwa-QkhL1RjJEDaq-88" value="&lt;b style=&quot;font-size: 17px;&quot;&gt;Control&lt;br&gt;Combinational&lt;br&gt;Logic&lt;/b&gt;" style="rounded=0;whiteSpace=wrap;html=1;shadow=0;glass=0;sketch=0;fontSize=14;" parent="1" vertex="1">
          <mxGeometry x="113" y="-77" width="210" height="774" as="geometry" />
        </mxCell>
        <mxCell id="Rmssmwa-QkhL1RjJEDaq-89" value="done" style="rounded=0;whiteSpace=wrap;html=1;shadow=0;glass=0;sketch=0;fontSize=14;fillColor=#f8cecc;strokeColor=#b85450;" parent="1" vertex="1">
          <mxGeometry x="129" y="-161" width="50" height="20" as="geometry" />
        </mxCell>
        <mxCell id="Rmssmwa-QkhL1RjJEDaq-185" value="" style="edgeStyle=orthogonalEdgeStyle;rounded=0;orthogonalLoop=1;jettySize=auto;html=1;" parent="1" source="Rmssmwa-QkhL1RjJEDaq-91" target="Rmssmwa-QkhL1RjJEDaq-88" edge="1">
          <mxGeometry relative="1" as="geometry">
            <Array as="points">
              <mxPoint x="224" y="-91" />
              <mxPoint x="224" y="-91" />
            </Array>
          </mxGeometry>
        </mxCell>
        <mxCell id="Rmssmwa-QkhL1RjJEDaq-91" value="reset" style="rounded=0;whiteSpace=wrap;html=1;shadow=0;glass=0;sketch=0;fontSize=14;fillColor=#d5e8d4;strokeColor=#82b366;" parent="1" vertex="1">
          <mxGeometry x="199" y="-161" width="50" height="20" as="geometry" />
        </mxCell>
        <mxCell id="Rmssmwa-QkhL1RjJEDaq-186" value="" style="edgeStyle=orthogonalEdgeStyle;rounded=0;orthogonalLoop=1;jettySize=auto;html=1;" parent="1" source="Rmssmwa-QkhL1RjJEDaq-93" target="Rmssmwa-QkhL1RjJEDaq-88" edge="1">
          <mxGeometry relative="1" as="geometry">
            <Array as="points">
              <mxPoint x="294" y="-94" />
              <mxPoint x="294" y="-94" />
            </Array>
          </mxGeometry>
        </mxCell>
        <mxCell id="Rmssmwa-QkhL1RjJEDaq-93" value="start" style="rounded=0;whiteSpace=wrap;html=1;shadow=0;glass=0;sketch=0;fontSize=14;fillColor=#d5e8d4;strokeColor=#82b366;" parent="1" vertex="1">
          <mxGeometry x="269" y="-161" width="50" height="20" as="geometry" />
        </mxCell>
        <mxCell id="Rmssmwa-QkhL1RjJEDaq-121" style="edgeStyle=orthogonalEdgeStyle;rounded=0;orthogonalLoop=1;jettySize=auto;html=1;fontSize=16;entryX=0.336;entryY=1.003;entryDx=0;entryDy=0;entryPerimeter=0;" parent="1" target="Rmssmwa-QkhL1RjJEDaq-88" edge="1">
          <mxGeometry relative="1" as="geometry">
            <mxPoint x="183" y="757" as="sourcePoint" />
            <mxPoint x="168" y="697" as="targetPoint" />
          </mxGeometry>
        </mxCell>
        <mxCell id="Rmssmwa-QkhL1RjJEDaq-122" style="edgeStyle=orthogonalEdgeStyle;rounded=0;orthogonalLoop=1;jettySize=auto;html=1;fontSize=16;entryX=0.5;entryY=1;entryDx=0;entryDy=0;entryPerimeter=0;" parent="1" target="Rmssmwa-QkhL1RjJEDaq-88" edge="1">
          <mxGeometry relative="1" as="geometry">
            <mxPoint x="218" y="757" as="sourcePoint" />
            <mxPoint x="223" y="697" as="targetPoint" />
          </mxGeometry>
        </mxCell>
        <mxCell id="Rmssmwa-QkhL1RjJEDaq-123" style="edgeStyle=orthogonalEdgeStyle;rounded=0;orthogonalLoop=1;jettySize=auto;html=1;exitX=0.637;exitY=0.034;exitDx=0;exitDy=0;fontSize=16;exitPerimeter=0;" parent="1" source="Rmssmwa-QkhL1RjJEDaq-126" edge="1">
          <mxGeometry relative="1" as="geometry">
            <mxPoint x="253" y="697" as="targetPoint" />
          </mxGeometry>
        </mxCell>
        <mxCell id="Rmssmwa-QkhL1RjJEDaq-125" style="edgeStyle=orthogonalEdgeStyle;rounded=0;orthogonalLoop=1;jettySize=auto;html=1;exitX=0.815;exitY=-0.043;exitDx=0;exitDy=0;fontSize=16;exitPerimeter=0;" parent="1" source="Rmssmwa-QkhL1RjJEDaq-126" edge="1">
          <mxGeometry relative="1" as="geometry">
            <mxPoint x="293" y="697" as="targetPoint" />
          </mxGeometry>
        </mxCell>
        <mxCell id="Rmssmwa-QkhL1RjJEDaq-126" value="&lt;font style=&quot;font-size: 16px;&quot;&gt;&lt;b&gt;State Register&lt;/b&gt;&lt;/font&gt;" style="rounded=0;whiteSpace=wrap;html=1;fontSize=18;" parent="1" vertex="1">
          <mxGeometry x="113" y="759.5" width="220" height="37.5" as="geometry" />
        </mxCell>
        <mxCell id="Rmssmwa-QkhL1RjJEDaq-128" value="" style="endArrow=classic;html=1;rounded=0;fontSize=16;entryX=0.334;entryY=1.05;entryDx=0;entryDy=0;entryPerimeter=0;" parent="1" target="Rmssmwa-QkhL1RjJEDaq-126" edge="1">
          <mxGeometry width="50" height="50" relative="1" as="geometry">
            <mxPoint x="323" y="647" as="sourcePoint" />
            <mxPoint x="363" y="757" as="targetPoint" />
            <Array as="points">
              <mxPoint x="413" y="647" />
              <mxPoint x="413" y="857" />
              <mxPoint x="186" y="857" />
            </Array>
          </mxGeometry>
        </mxCell>
        <mxCell id="Rmssmwa-QkhL1RjJEDaq-129" value="" style="endArrow=classic;html=1;rounded=0;fontSize=16;entryX=0.5;entryY=1;entryDx=0;entryDy=0;entryPerimeter=0;" parent="1" target="Rmssmwa-QkhL1RjJEDaq-126" edge="1">
          <mxGeometry width="50" height="50" relative="1" as="geometry">
            <mxPoint x="323" y="657" as="sourcePoint" />
            <mxPoint x="363" y="667" as="targetPoint" />
            <Array as="points">
              <mxPoint x="403" y="657" />
              <mxPoint x="403" y="847" />
              <mxPoint x="223" y="847" />
            </Array>
          </mxGeometry>
        </mxCell>
        <mxCell id="Rmssmwa-QkhL1RjJEDaq-130" value="" style="endArrow=classic;html=1;rounded=0;fontSize=16;entryX=0.646;entryY=0.973;entryDx=0;entryDy=0;entryPerimeter=0;" parent="1" target="Rmssmwa-QkhL1RjJEDaq-126" edge="1">
          <mxGeometry width="50" height="50" relative="1" as="geometry">
            <mxPoint x="323" y="667" as="sourcePoint" />
            <mxPoint x="343" y="777" as="targetPoint" />
            <Array as="points">
              <mxPoint x="393" y="667" />
              <mxPoint x="393" y="837" />
              <mxPoint x="255" y="837" />
            </Array>
          </mxGeometry>
        </mxCell>
        <mxCell id="Rmssmwa-QkhL1RjJEDaq-131" value="" style="endArrow=classic;html=1;rounded=0;fontSize=16;entryX=0.81;entryY=0.999;entryDx=0;entryDy=0;entryPerimeter=0;exitX=1;exitY=0.973;exitDx=0;exitDy=0;exitPerimeter=0;" parent="1" source="Rmssmwa-QkhL1RjJEDaq-88" target="Rmssmwa-QkhL1RjJEDaq-126" edge="1">
          <mxGeometry width="50" height="50" relative="1" as="geometry">
            <mxPoint x="313" y="717" as="sourcePoint" />
            <mxPoint x="323" y="677" as="targetPoint" />
            <Array as="points">
              <mxPoint x="383" y="677" />
              <mxPoint x="383" y="827" />
              <mxPoint x="290" y="827" />
            </Array>
          </mxGeometry>
        </mxCell>
        <mxCell id="Rmssmwa-QkhL1RjJEDaq-133" value="&lt;font style=&quot;font-size: 13px;&quot;&gt;Q2&lt;/font&gt;" style="text;html=1;strokeColor=none;fillColor=none;align=center;verticalAlign=middle;whiteSpace=wrap;rounded=0;fontSize=16;" parent="1" vertex="1">
          <mxGeometry x="203" y="729.5" width="60" height="30" as="geometry" />
        </mxCell>
        <mxCell id="Rmssmwa-QkhL1RjJEDaq-134" value="&lt;font style=&quot;font-size: 13px;&quot;&gt;Q3&lt;/font&gt;" style="text;html=1;strokeColor=none;fillColor=none;align=center;verticalAlign=middle;whiteSpace=wrap;rounded=0;fontSize=16;" parent="1" vertex="1">
          <mxGeometry x="163" y="729.5" width="60" height="30" as="geometry" />
        </mxCell>
        <mxCell id="Rmssmwa-QkhL1RjJEDaq-135" value="&lt;font style=&quot;font-size: 13px;&quot;&gt;Q0&lt;/font&gt;" style="text;html=1;strokeColor=none;fillColor=none;align=center;verticalAlign=middle;whiteSpace=wrap;rounded=0;fontSize=16;" parent="1" vertex="1">
          <mxGeometry x="273" y="729.5" width="60" height="30" as="geometry" />
        </mxCell>
        <mxCell id="Rmssmwa-QkhL1RjJEDaq-136" value="&lt;font style=&quot;font-size: 13px;&quot;&gt;Q1&lt;/font&gt;" style="text;html=1;strokeColor=none;fillColor=none;align=center;verticalAlign=middle;whiteSpace=wrap;rounded=0;fontSize=16;" parent="1" vertex="1">
          <mxGeometry x="233" y="729.5" width="60" height="30" as="geometry" />
        </mxCell>
        <mxCell id="Rmssmwa-QkhL1RjJEDaq-138" value="I3" style="text;html=1;strokeColor=none;fillColor=none;align=center;verticalAlign=middle;whiteSpace=wrap;rounded=0;fontSize=13;" parent="1" vertex="1">
          <mxGeometry x="163" y="797" width="60" height="30" as="geometry" />
        </mxCell>
        <mxCell id="Rmssmwa-QkhL1RjJEDaq-139" value="I2" style="text;html=1;strokeColor=none;fillColor=none;align=center;verticalAlign=middle;whiteSpace=wrap;rounded=0;fontSize=13;" parent="1" vertex="1">
          <mxGeometry x="203" y="797" width="60" height="30" as="geometry" />
        </mxCell>
        <mxCell id="Rmssmwa-QkhL1RjJEDaq-140" value="I1" style="text;html=1;strokeColor=none;fillColor=none;align=center;verticalAlign=middle;whiteSpace=wrap;rounded=0;fontSize=13;" parent="1" vertex="1">
          <mxGeometry x="233" y="797" width="60" height="30" as="geometry" />
        </mxCell>
        <mxCell id="Rmssmwa-QkhL1RjJEDaq-141" value="I0" style="text;html=1;strokeColor=none;fillColor=none;align=center;verticalAlign=middle;whiteSpace=wrap;rounded=0;fontSize=13;" parent="1" vertex="1">
          <mxGeometry x="273" y="797" width="60" height="30" as="geometry" />
        </mxCell>
        <mxCell id="Rmssmwa-QkhL1RjJEDaq-180" value="" style="group" parent="1" vertex="1" connectable="0">
          <mxGeometry x="322" y="21" width="179" height="493" as="geometry" />
        </mxCell>
        <mxCell id="Rmssmwa-QkhL1RjJEDaq-147" value="sel_i" style="rounded=0;whiteSpace=wrap;html=1;fillColor=#dae8fc;strokeColor=#6c8ebf;" parent="Rmssmwa-QkhL1RjJEDaq-180" vertex="1">
          <mxGeometry x="81" y="119" width="96" height="28" as="geometry" />
        </mxCell>
        <mxCell id="Rmssmwa-QkhL1RjJEDaq-148" value="sel_max" style="rounded=0;whiteSpace=wrap;html=1;fillColor=#dae8fc;strokeColor=#6c8ebf;" parent="Rmssmwa-QkhL1RjJEDaq-180" vertex="1">
          <mxGeometry x="79" y="158" width="96" height="28" as="geometry" />
        </mxCell>
        <mxCell id="Rmssmwa-QkhL1RjJEDaq-149" value="sel_min" style="rounded=0;whiteSpace=wrap;html=1;fillColor=#dae8fc;strokeColor=#6c8ebf;" parent="Rmssmwa-QkhL1RjJEDaq-180" vertex="1">
          <mxGeometry x="78" y="196" width="96" height="28" as="geometry" />
        </mxCell>
        <mxCell id="Rmssmwa-QkhL1RjJEDaq-150" value="mi_r_en" style="rounded=0;whiteSpace=wrap;html=1;fillColor=#dae8fc;strokeColor=#6c8ebf;" parent="Rmssmwa-QkhL1RjJEDaq-180" vertex="1">
          <mxGeometry x="74" y="357" width="96" height="28" as="geometry" />
        </mxCell>
        <mxCell id="Rmssmwa-QkhL1RjJEDaq-151" value="mi_w_en" style="rounded=0;whiteSpace=wrap;html=1;fillColor=#dae8fc;strokeColor=#6c8ebf;" parent="Rmssmwa-QkhL1RjJEDaq-180" vertex="1">
          <mxGeometry x="75" y="392" width="96" height="28" as="geometry" />
        </mxCell>
        <mxCell id="Rmssmwa-QkhL1RjJEDaq-152" value="mo_r_en" style="rounded=0;whiteSpace=wrap;html=1;fillColor=#dae8fc;strokeColor=#6c8ebf;" parent="Rmssmwa-QkhL1RjJEDaq-180" vertex="1">
          <mxGeometry x="75" y="431" width="96" height="28" as="geometry" />
        </mxCell>
        <mxCell id="Rmssmwa-QkhL1RjJEDaq-153" value="mo_w_en" style="rounded=0;whiteSpace=wrap;html=1;fillColor=#dae8fc;strokeColor=#6c8ebf;" parent="Rmssmwa-QkhL1RjJEDaq-180" vertex="1">
          <mxGeometry x="75" y="465" width="96" height="28" as="geometry" />
        </mxCell>
        <mxCell id="Rmssmwa-QkhL1RjJEDaq-155" value="ld_min" style="rounded=0;whiteSpace=wrap;html=1;fillColor=#dae8fc;strokeColor=#6c8ebf;" parent="Rmssmwa-QkhL1RjJEDaq-180" vertex="1">
          <mxGeometry x="82" y="80" width="96" height="28" as="geometry" />
        </mxCell>
        <mxCell id="Rmssmwa-QkhL1RjJEDaq-156" value="ld_max" style="rounded=0;whiteSpace=wrap;html=1;fillColor=#dae8fc;strokeColor=#6c8ebf;" parent="Rmssmwa-QkhL1RjJEDaq-180" vertex="1">
          <mxGeometry x="82" y="40" width="96" height="28" as="geometry" />
        </mxCell>
        <mxCell id="Rmssmwa-QkhL1RjJEDaq-157" value="ld_i" style="rounded=0;whiteSpace=wrap;html=1;fillColor=#dae8fc;strokeColor=#6c8ebf;" parent="Rmssmwa-QkhL1RjJEDaq-180" vertex="1">
          <mxGeometry x="83" width="96" height="28" as="geometry" />
        </mxCell>
        <mxCell id="Rmssmwa-QkhL1RjJEDaq-160" value="i_lt" style="rounded=0;whiteSpace=wrap;html=1;fillColor=#fff2cc;strokeColor=#d6b656;" parent="Rmssmwa-QkhL1RjJEDaq-180" vertex="1">
          <mxGeometry x="76" y="238" width="96" height="28" as="geometry" />
        </mxCell>
        <mxCell id="Rmssmwa-QkhL1RjJEDaq-161" value="max_lt" style="rounded=0;whiteSpace=wrap;html=1;fillColor=#fff2cc;strokeColor=#d6b656;" parent="Rmssmwa-QkhL1RjJEDaq-180" vertex="1">
          <mxGeometry x="75" y="277" width="96" height="28" as="geometry" />
        </mxCell>
        <mxCell id="Rmssmwa-QkhL1RjJEDaq-162" value="min_mt" style="rounded=0;whiteSpace=wrap;html=1;fillColor=#fff2cc;strokeColor=#d6b656;" parent="Rmssmwa-QkhL1RjJEDaq-180" vertex="1">
          <mxGeometry x="74" y="315" width="96" height="28" as="geometry" />
        </mxCell>
        <mxCell id="Rmssmwa-QkhL1RjJEDaq-167" value="" style="endArrow=classic;html=1;rounded=0;entryX=0;entryY=0.5;entryDx=0;entryDy=0;" parent="Rmssmwa-QkhL1RjJEDaq-180" target="Rmssmwa-QkhL1RjJEDaq-157" edge="1">
          <mxGeometry width="50" height="50" relative="1" as="geometry">
            <mxPoint y="14" as="sourcePoint" />
            <mxPoint x="407" y="149" as="targetPoint" />
          </mxGeometry>
        </mxCell>
        <mxCell id="Rmssmwa-QkhL1RjJEDaq-168" value="" style="endArrow=classic;html=1;rounded=0;entryX=0;entryY=0.5;entryDx=0;entryDy=0;" parent="Rmssmwa-QkhL1RjJEDaq-180" edge="1">
          <mxGeometry width="50" height="50" relative="1" as="geometry">
            <mxPoint y="55" as="sourcePoint" />
            <mxPoint x="83" y="53" as="targetPoint" />
          </mxGeometry>
        </mxCell>
        <mxCell id="Rmssmwa-QkhL1RjJEDaq-169" value="" style="endArrow=classic;html=1;rounded=0;entryX=0;entryY=0.5;entryDx=0;entryDy=0;" parent="Rmssmwa-QkhL1RjJEDaq-180" edge="1">
          <mxGeometry width="50" height="50" relative="1" as="geometry">
            <mxPoint y="91" as="sourcePoint" />
            <mxPoint x="81" y="94" as="targetPoint" />
          </mxGeometry>
        </mxCell>
        <mxCell id="Rmssmwa-QkhL1RjJEDaq-170" value="" style="endArrow=classic;html=1;rounded=0;entryX=0;entryY=0.5;entryDx=0;entryDy=0;exitX=0.999;exitY=0.299;exitDx=0;exitDy=0;exitPerimeter=0;" parent="Rmssmwa-QkhL1RjJEDaq-180" source="Rmssmwa-QkhL1RjJEDaq-88" edge="1">
          <mxGeometry width="50" height="50" relative="1" as="geometry">
            <mxPoint x="7" y="133" as="sourcePoint" />
            <mxPoint x="80" y="133" as="targetPoint" />
          </mxGeometry>
        </mxCell>
        <mxCell id="Rmssmwa-QkhL1RjJEDaq-171" value="" style="endArrow=classic;html=1;rounded=0;entryX=0;entryY=0.5;entryDx=0;entryDy=0;exitX=0.996;exitY=0.35;exitDx=0;exitDy=0;exitPerimeter=0;" parent="Rmssmwa-QkhL1RjJEDaq-180" source="Rmssmwa-QkhL1RjJEDaq-88" edge="1">
          <mxGeometry width="50" height="50" relative="1" as="geometry">
            <mxPoint x="5" y="174" as="sourcePoint" />
            <mxPoint x="78" y="174" as="targetPoint" />
          </mxGeometry>
        </mxCell>
        <mxCell id="Rmssmwa-QkhL1RjJEDaq-172" value="" style="endArrow=classic;html=1;rounded=0;entryX=0;entryY=0.5;entryDx=0;entryDy=0;exitX=0.993;exitY=0.401;exitDx=0;exitDy=0;exitPerimeter=0;" parent="Rmssmwa-QkhL1RjJEDaq-180" source="Rmssmwa-QkhL1RjJEDaq-88" edge="1">
          <mxGeometry width="50" height="50" relative="1" as="geometry">
            <mxPoint x="4" y="211" as="sourcePoint" />
            <mxPoint x="77" y="211" as="targetPoint" />
          </mxGeometry>
        </mxCell>
        <mxCell id="Rmssmwa-QkhL1RjJEDaq-173" value="" style="endArrow=classic;html=1;rounded=0;entryX=0;entryY=0.5;entryDx=0;entryDy=0;" parent="Rmssmwa-QkhL1RjJEDaq-180" edge="1">
          <mxGeometry width="50" height="50" relative="1" as="geometry">
            <mxPoint y="369" as="sourcePoint" />
            <mxPoint x="73" y="369" as="targetPoint" />
          </mxGeometry>
        </mxCell>
        <mxCell id="Rmssmwa-QkhL1RjJEDaq-174" value="" style="endArrow=classic;html=1;rounded=0;entryX=0;entryY=0.5;entryDx=0;entryDy=0;" parent="Rmssmwa-QkhL1RjJEDaq-180" edge="1">
          <mxGeometry width="50" height="50" relative="1" as="geometry">
            <mxPoint x="1" y="405" as="sourcePoint" />
            <mxPoint x="74" y="405" as="targetPoint" />
          </mxGeometry>
        </mxCell>
        <mxCell id="Rmssmwa-QkhL1RjJEDaq-175" value="" style="endArrow=classic;html=1;rounded=0;entryX=0;entryY=0.5;entryDx=0;entryDy=0;" parent="Rmssmwa-QkhL1RjJEDaq-180" edge="1">
          <mxGeometry width="50" height="50" relative="1" as="geometry">
            <mxPoint x="1" y="447" as="sourcePoint" />
            <mxPoint x="74" y="447" as="targetPoint" />
          </mxGeometry>
        </mxCell>
        <mxCell id="Rmssmwa-QkhL1RjJEDaq-176" value="" style="endArrow=classic;html=1;rounded=0;entryX=0;entryY=0.5;entryDx=0;entryDy=0;" parent="Rmssmwa-QkhL1RjJEDaq-180" edge="1">
          <mxGeometry width="50" height="50" relative="1" as="geometry">
            <mxPoint x="2" y="478" as="sourcePoint" />
            <mxPoint x="75" y="478" as="targetPoint" />
          </mxGeometry>
        </mxCell>
        <mxCell id="Rmssmwa-QkhL1RjJEDaq-177" value="" style="endArrow=classic;html=1;rounded=0;exitX=0;exitY=0.5;exitDx=0;exitDy=0;" parent="Rmssmwa-QkhL1RjJEDaq-180" source="Rmssmwa-QkhL1RjJEDaq-160" edge="1">
          <mxGeometry width="50" height="50" relative="1" as="geometry">
            <mxPoint x="14" y="221" as="sourcePoint" />
            <mxPoint x="4" y="251" as="targetPoint" />
          </mxGeometry>
        </mxCell>
        <mxCell id="Rmssmwa-QkhL1RjJEDaq-178" value="" style="endArrow=classic;html=1;rounded=0;exitX=0;exitY=0.5;exitDx=0;exitDy=0;" parent="Rmssmwa-QkhL1RjJEDaq-180" edge="1">
          <mxGeometry width="50" height="50" relative="1" as="geometry">
            <mxPoint x="75" y="291" as="sourcePoint" />
            <mxPoint x="3" y="290" as="targetPoint" />
          </mxGeometry>
        </mxCell>
        <mxCell id="Rmssmwa-QkhL1RjJEDaq-179" value="" style="endArrow=classic;html=1;rounded=0;exitX=0;exitY=0.5;exitDx=0;exitDy=0;" parent="Rmssmwa-QkhL1RjJEDaq-180" edge="1">
          <mxGeometry width="50" height="50" relative="1" as="geometry">
            <mxPoint x="74" y="330" as="sourcePoint" />
            <mxPoint x="2" y="329" as="targetPoint" />
          </mxGeometry>
        </mxCell>
        <mxCell id="Rmssmwa-QkhL1RjJEDaq-189" value="" style="endArrow=classic;html=1;rounded=0;entryX=0.5;entryY=0;entryDx=0;entryDy=0;edgeStyle=orthogonalEdgeStyle;" parent="1" source="9SPt6M4kK89ER8js-FHe-58" target="tDnqYvwLVkWDqhEaBBwF-29" edge="1">
          <mxGeometry width="50" height="50" relative="1" as="geometry">
            <mxPoint x="1022" y="399" as="sourcePoint" />
            <mxPoint x="1200" y="713" as="targetPoint" />
          </mxGeometry>
        </mxCell>
        <mxCell id="Rmssmwa-QkhL1RjJEDaq-190" value="" style="endArrow=classic;html=1;rounded=0;exitX=0.7;exitY=0;exitDx=0;exitDy=0;exitPerimeter=0;entryX=0.5;entryY=0;entryDx=0;entryDy=0;edgeStyle=orthogonalEdgeStyle;" parent="1" source="9SPt6M4kK89ER8js-FHe-103" target="tDnqYvwLVkWDqhEaBBwF-28" edge="1">
          <mxGeometry width="50" height="50" relative="1" as="geometry">
            <mxPoint x="1349" y="679" as="sourcePoint" />
            <mxPoint x="1157" y="711" as="targetPoint" />
            <Array as="points">
              <mxPoint x="1147" y="422" />
              <mxPoint x="1313" y="422" />
            </Array>
          </mxGeometry>
        </mxCell>
        <mxCell id="Rmssmwa-QkhL1RjJEDaq-191" value="" style="endArrow=classic;html=1;rounded=0;entryX=0.3;entryY=0;entryDx=0;entryDy=0;edgeStyle=orthogonalEdgeStyle;entryPerimeter=0;" parent="1" source="9SPt6M4kK89ER8js-FHe-58" target="9SPt6M4kK89ER8js-FHe-103" edge="1">
          <mxGeometry width="50" height="50" relative="1" as="geometry">
            <mxPoint x="1157" y="711" as="sourcePoint" />
            <mxPoint x="1323" y="475" as="targetPoint" />
          </mxGeometry>
        </mxCell>
        <mxCell id="Rmssmwa-QkhL1RjJEDaq-193" value="" style="endArrow=classic;html=1;rounded=0;entryX=0.5;entryY=0;entryDx=0;entryDy=0;edgeStyle=orthogonalEdgeStyle;exitX=1.043;exitY=0.448;exitDx=0;exitDy=0;exitPerimeter=0;" parent="1" source="9SPt6M4kK89ER8js-FHe-58" target="tDnqYvwLVkWDqhEaBBwF-38" edge="1">
          <mxGeometry width="50" height="50" relative="1" as="geometry">
            <mxPoint x="1024" y="404" as="sourcePoint" />
            <mxPoint x="1376" y="475" as="targetPoint" />
          </mxGeometry>
        </mxCell>
        <mxCell id="Rmssmwa-QkhL1RjJEDaq-196" value="" style="endArrow=classic;html=1;rounded=0;exitX=0.7;exitY=0;exitDx=0;exitDy=0;entryX=0.5;entryY=0;entryDx=0;entryDy=0;edgeStyle=orthogonalEdgeStyle;exitPerimeter=0;" parent="1" source="9SPt6M4kK89ER8js-FHe-100" target="tDnqYvwLVkWDqhEaBBwF-35" edge="1">
          <mxGeometry width="50" height="50" relative="1" as="geometry">
            <mxPoint x="1692" y="534" as="sourcePoint" />
            <mxPoint x="1554" y="727" as="targetPoint" />
            <Array as="points">
              <mxPoint x="1486" y="433" />
              <mxPoint x="1596" y="433" />
            </Array>
          </mxGeometry>
        </mxCell>
        <mxCell id="tDnqYvwLVkWDqhEaBBwF-7" value="&lt;b&gt;sel_min&lt;/b&gt;" style="rounded=0;whiteSpace=wrap;html=1;fillColor=#dae8fc;strokeColor=#6c8ebf;" parent="1" vertex="1">
          <mxGeometry x="1498" y="479" width="59" height="21" as="geometry" />
        </mxCell>
        <mxCell id="Rmssmwa-QkhL1RjJEDaq-197" value="" style="endArrow=classic;html=1;rounded=0;exitX=0.493;exitY=0.9;exitDx=0;exitDy=0;entryX=0.7;entryY=0;entryDx=0;entryDy=0;entryPerimeter=0;exitPerimeter=0;edgeStyle=orthogonalEdgeStyle;" parent="1" source="9SPt6M4kK89ER8js-FHe-14" target="9SPt6M4kK89ER8js-FHe-100" edge="1">
          <mxGeometry width="50" height="50" relative="1" as="geometry">
            <mxPoint x="1634" y="518" as="sourcePoint" />
            <mxPoint x="1634" y="578" as="targetPoint" />
            <Array as="points">
              <mxPoint x="1623" y="679" />
              <mxPoint x="1486" y="679" />
            </Array>
          </mxGeometry>
        </mxCell>
        <mxCell id="Q7C4iDFm5_iqHvj9V3m8-19" value="&lt;b&gt;&lt;font style=&quot;font-size: 14px;&quot;&gt;MemSize(1)&lt;/font&gt;&lt;/b&gt;" style="rounded=0;whiteSpace=wrap;html=1;" parent="1" vertex="1">
          <mxGeometry x="1136" y="-288" width="120" height="180" as="geometry" />
        </mxCell>
        <mxCell id="Q7C4iDFm5_iqHvj9V3m8-20" value="" style="triangle;whiteSpace=wrap;html=1;" parent="1" vertex="1">
          <mxGeometry x="1136" y="-233" width="10" height="20" as="geometry" />
        </mxCell>
        <mxCell id="Q7C4iDFm5_iqHvj9V3m8-21" value="CLK" style="text;html=1;strokeColor=none;fillColor=none;align=center;verticalAlign=middle;whiteSpace=wrap;rounded=0;fontSize=14;" parent="1" vertex="1">
          <mxGeometry x="1036" y="-238" width="60" height="30" as="geometry" />
        </mxCell>
        <mxCell id="Q7C4iDFm5_iqHvj9V3m8-22" value="RST" style="text;html=1;align=center;verticalAlign=middle;resizable=0;points=[];autosize=1;strokeColor=none;fillColor=none;fontSize=14;" parent="1" vertex="1">
          <mxGeometry x="1171" y="-138" width="50" height="30" as="geometry" />
        </mxCell>
        <mxCell id="Q7C4iDFm5_iqHvj9V3m8-23" value="mi_r_en" style="rounded=0;whiteSpace=wrap;html=1;fontSize=14;fillColor=#dae8fc;strokeColor=#6c8ebf;" parent="1" vertex="1">
          <mxGeometry x="1006" y="-183" width="70" height="20" as="geometry" />
        </mxCell>
        <mxCell id="Q7C4iDFm5_iqHvj9V3m8-24" value="Din" style="text;html=1;strokeColor=none;fillColor=none;align=center;verticalAlign=middle;whiteSpace=wrap;rounded=0;fontSize=14;" parent="1" vertex="1">
          <mxGeometry x="1126" y="-273" width="60" height="30" as="geometry" />
        </mxCell>
        <mxCell id="Q7C4iDFm5_iqHvj9V3m8-25" value="RE" style="text;html=1;align=center;verticalAlign=middle;resizable=0;points=[];autosize=1;strokeColor=none;fillColor=none;fontSize=14;" parent="1" vertex="1">
          <mxGeometry x="1131" y="-188" width="40" height="30" as="geometry" />
        </mxCell>
        <mxCell id="Q7C4iDFm5_iqHvj9V3m8-26" value="WE" style="text;html=1;align=center;verticalAlign=middle;resizable=0;points=[];autosize=1;strokeColor=none;fillColor=none;fontSize=14;" parent="1" vertex="1">
          <mxGeometry x="1126" y="-143" width="50" height="30" as="geometry" />
        </mxCell>
        <mxCell id="Q7C4iDFm5_iqHvj9V3m8-27" value="Dout" style="text;html=1;align=center;verticalAlign=middle;resizable=0;points=[];autosize=1;strokeColor=none;fillColor=none;fontSize=14;" parent="1" vertex="1">
          <mxGeometry x="1206" y="-263" width="50" height="30" as="geometry" />
        </mxCell>
        <mxCell id="Q7C4iDFm5_iqHvj9V3m8-28" value="" style="endArrow=none;html=1;rounded=0;fontSize=14;" parent="1" edge="1">
          <mxGeometry width="50" height="50" relative="1" as="geometry">
            <mxPoint x="1086" y="-223" as="sourcePoint" />
            <mxPoint x="1136" y="-223" as="targetPoint" />
          </mxGeometry>
        </mxCell>
        <mxCell id="Q7C4iDFm5_iqHvj9V3m8-29" value="" style="edgeStyle=orthogonalEdgeStyle;rounded=0;orthogonalLoop=1;jettySize=auto;html=1;fontSize=14;" parent="1" source="Q7C4iDFm5_iqHvj9V3m8-23" edge="1">
          <mxGeometry relative="1" as="geometry">
            <mxPoint x="1136" y="-173" as="targetPoint" />
          </mxGeometry>
        </mxCell>
        <mxCell id="Q7C4iDFm5_iqHvj9V3m8-30" value="" style="endArrow=none;html=1;rounded=0;fontSize=14;exitX=0.5;exitY=1;exitDx=0;exitDy=0;" parent="1" source="Q7C4iDFm5_iqHvj9V3m8-19" edge="1">
          <mxGeometry width="50" height="50" relative="1" as="geometry">
            <mxPoint x="1196" y="-103" as="sourcePoint" />
            <mxPoint x="1196" y="-63" as="targetPoint" />
          </mxGeometry>
        </mxCell>
        <mxCell id="Q7C4iDFm5_iqHvj9V3m8-31" value="reset" style="text;html=1;align=center;verticalAlign=middle;resizable=0;points=[];autosize=1;strokeColor=none;fillColor=none;fontSize=14;" parent="1" vertex="1">
          <mxGeometry x="1166" y="-73" width="50" height="30" as="geometry" />
        </mxCell>
        <mxCell id="Q7C4iDFm5_iqHvj9V3m8-32" style="edgeStyle=orthogonalEdgeStyle;rounded=0;orthogonalLoop=1;jettySize=auto;html=1;entryX=0;entryY=0.139;entryDx=0;entryDy=0;entryPerimeter=0;fontSize=14;" parent="1" source="Q7C4iDFm5_iqHvj9V3m8-33" target="Q7C4iDFm5_iqHvj9V3m8-19" edge="1">
          <mxGeometry relative="1" as="geometry" />
        </mxCell>
        <mxCell id="Q7C4iDFm5_iqHvj9V3m8-33" value="size" style="rounded=0;whiteSpace=wrap;html=1;fontSize=14;fillColor=#d5e8d4;strokeColor=#82b366;" parent="1" vertex="1">
          <mxGeometry x="1016" y="-273" width="60" height="20" as="geometry" />
        </mxCell>
        <mxCell id="Q7C4iDFm5_iqHvj9V3m8-34" value="mi_w_en" style="rounded=0;whiteSpace=wrap;html=1;fontSize=14;fillColor=#dae8fc;strokeColor=#6c8ebf;" parent="1" vertex="1">
          <mxGeometry x="1006" y="-138" width="70" height="20" as="geometry" />
        </mxCell>
        <mxCell id="Q7C4iDFm5_iqHvj9V3m8-35" style="edgeStyle=orthogonalEdgeStyle;rounded=0;orthogonalLoop=1;jettySize=auto;html=1;fontSize=14;" parent="1" source="Q7C4iDFm5_iqHvj9V3m8-34" edge="1">
          <mxGeometry relative="1" as="geometry">
            <mxPoint x="1136" y="-128" as="targetPoint" />
          </mxGeometry>
        </mxCell>
        <mxCell id="Q7C4iDFm5_iqHvj9V3m8-39" value="size_r_en" style="rounded=0;whiteSpace=wrap;html=1;fillColor=#dae8fc;strokeColor=#6c8ebf;" parent="1" vertex="1">
          <mxGeometry x="398" y="521" width="96" height="28" as="geometry" />
        </mxCell>
        <mxCell id="Q7C4iDFm5_iqHvj9V3m8-40" value="size_w_en" style="rounded=0;whiteSpace=wrap;html=1;fillColor=#dae8fc;strokeColor=#6c8ebf;" parent="1" vertex="1">
          <mxGeometry x="398" y="555" width="96" height="28" as="geometry" />
        </mxCell>
        <mxCell id="Q7C4iDFm5_iqHvj9V3m8-41" value="" style="endArrow=classic;html=1;rounded=0;entryX=0;entryY=0.5;entryDx=0;entryDy=0;" parent="1" edge="1">
          <mxGeometry width="50" height="50" relative="1" as="geometry">
            <mxPoint x="324" y="537" as="sourcePoint" />
            <mxPoint x="397" y="537" as="targetPoint" />
          </mxGeometry>
        </mxCell>
        <mxCell id="Q7C4iDFm5_iqHvj9V3m8-42" value="" style="endArrow=classic;html=1;rounded=0;entryX=0;entryY=0.5;entryDx=0;entryDy=0;" parent="1" edge="1">
          <mxGeometry width="50" height="50" relative="1" as="geometry">
            <mxPoint x="325" y="568" as="sourcePoint" />
            <mxPoint x="398" y="568" as="targetPoint" />
          </mxGeometry>
        </mxCell>
      </root>
    </mxGraphModel>
  </diagram>
  <diagram name="fsm" id="6tG4-XIxfizkVGqk_tBZ">
    <mxGraphModel dx="1633" dy="746" grid="1" gridSize="10" guides="1" tooltips="1" connect="1" arrows="1" fold="1" page="1" pageScale="1" pageWidth="827" pageHeight="1169" math="0" shadow="0">
      <root>
        <mxCell id="0" />
        <mxCell id="1" parent="0" />
        <mxCell id="6HWEtd2WRSsSPUaocRVc-1" value="Reset all Register&lt;br&gt;Done = &#39;0&#39;" style="rounded=1;whiteSpace=wrap;html=1;fontSize=12;glass=0;strokeWidth=1;shadow=0;" parent="1" vertex="1">
          <mxGeometry x="249" y="20" width="120" height="90" as="geometry" />
        </mxCell>
        <mxCell id="6HWEtd2WRSsSPUaocRVc-2" value="Start = &#39;1&#39; ?" style="rhombus;whiteSpace=wrap;html=1;shadow=0;fontFamily=Helvetica;fontSize=12;align=center;strokeWidth=1;spacing=6;spacingTop=-4;" parent="1" vertex="1">
          <mxGeometry x="257.25" y="170" width="103.5" height="78" as="geometry" />
        </mxCell>
        <mxCell id="6HWEtd2WRSsSPUaocRVc-3" value="i_lt =1?" style="rhombus;whiteSpace=wrap;html=1;shadow=0;fontFamily=Helvetica;fontSize=12;align=center;strokeWidth=1;spacing=6;spacingTop=-4;" parent="1" vertex="1">
          <mxGeometry x="258.25" y="480" width="103.5" height="78" as="geometry" />
        </mxCell>
        <mxCell id="6HWEtd2WRSsSPUaocRVc-4" value="max_lt =1?" style="rhombus;whiteSpace=wrap;html=1;shadow=0;fontFamily=Helvetica;fontSize=12;align=center;strokeWidth=1;spacing=6;spacingTop=-4;" parent="1" vertex="1">
          <mxGeometry x="261" y="700" width="103.5" height="78" as="geometry" />
        </mxCell>
        <mxCell id="6HWEtd2WRSsSPUaocRVc-5" value="sel_max=1 ,&lt;span style=&quot;background-color: initial;&quot;&gt;ld_max=1&lt;/span&gt;" style="rounded=0;whiteSpace=wrap;html=1;" parent="1" vertex="1">
          <mxGeometry x="232.75" y="800" width="160" height="60" as="geometry" />
        </mxCell>
        <mxCell id="6HWEtd2WRSsSPUaocRVc-6" value="min_mt =1?" style="rhombus;whiteSpace=wrap;html=1;shadow=0;fontFamily=Helvetica;fontSize=12;align=center;strokeWidth=1;spacing=6;spacingTop=-4;" parent="1" vertex="1">
          <mxGeometry x="261" y="890" width="103.5" height="78" as="geometry" />
        </mxCell>
        <mxCell id="6HWEtd2WRSsSPUaocRVc-7" value="sel_min=1&lt;div&gt;ld_min=1&lt;/div&gt;" style="rounded=0;whiteSpace=wrap;html=1;" parent="1" vertex="1">
          <mxGeometry x="252.75" y="990" width="120" height="60" as="geometry" />
        </mxCell>
        <mxCell id="6HWEtd2WRSsSPUaocRVc-8" value="ld_i=1&lt;div&gt;sel_i=1&lt;/div&gt;" style="rounded=0;whiteSpace=wrap;html=1;" parent="1" vertex="1">
          <mxGeometry x="252.75" y="1090" width="120" height="60" as="geometry" />
        </mxCell>
        <mxCell id="6HWEtd2WRSsSPUaocRVc-9" value="mo_w_ẹn=1&lt;div&gt;done=1&lt;/div&gt;" style="rounded=0;whiteSpace=wrap;html=1;" parent="1" vertex="1">
          <mxGeometry x="252.75" y="1180" width="120" height="60" as="geometry" />
        </mxCell>
        <mxCell id="6HWEtd2WRSsSPUaocRVc-10" value="Start = &#39;0&#39; ?" style="rhombus;whiteSpace=wrap;html=1;shadow=0;fontFamily=Helvetica;fontSize=12;align=center;strokeWidth=1;spacing=6;spacingTop=-4;" parent="1" vertex="1">
          <mxGeometry x="261" y="1290" width="103.5" height="78" as="geometry" />
        </mxCell>
        <mxCell id="6HWEtd2WRSsSPUaocRVc-11" value="done =0" style="rounded=0;whiteSpace=wrap;html=1;" parent="1" vertex="1">
          <mxGeometry x="252.75" y="1410" width="120" height="60" as="geometry" />
        </mxCell>
        <mxCell id="6HWEtd2WRSsSPUaocRVc-12" value="" style="endArrow=classic;html=1;rounded=0;fontSize=12;startSize=8;endSize=8;curved=1;entryX=0.5;entryY=0;entryDx=0;entryDy=0;" parent="1" target="6HWEtd2WRSsSPUaocRVc-2" edge="1">
          <mxGeometry width="50" height="50" relative="1" as="geometry">
            <mxPoint x="309" y="110" as="sourcePoint" />
            <mxPoint x="311" y="160" as="targetPoint" />
          </mxGeometry>
        </mxCell>
        <mxCell id="6HWEtd2WRSsSPUaocRVc-13" value="" style="endArrow=none;html=1;rounded=0;fontSize=12;startSize=8;endSize=8;curved=1;" parent="1" edge="1">
          <mxGeometry width="50" height="50" relative="1" as="geometry">
            <mxPoint x="361" y="210" as="sourcePoint" />
            <mxPoint x="411" y="210" as="targetPoint" />
          </mxGeometry>
        </mxCell>
        <mxCell id="6HWEtd2WRSsSPUaocRVc-14" value="" style="endArrow=none;html=1;rounded=0;fontSize=12;startSize=8;endSize=8;curved=1;" parent="1" edge="1">
          <mxGeometry width="50" height="50" relative="1" as="geometry">
            <mxPoint x="411" y="210" as="sourcePoint" />
            <mxPoint x="411" y="150" as="targetPoint" />
          </mxGeometry>
        </mxCell>
        <mxCell id="6HWEtd2WRSsSPUaocRVc-15" value="" style="endArrow=classic;html=1;rounded=0;fontSize=12;startSize=8;endSize=8;curved=1;" parent="1" edge="1">
          <mxGeometry width="50" height="50" relative="1" as="geometry">
            <mxPoint x="411" y="150" as="sourcePoint" />
            <mxPoint x="321" y="150" as="targetPoint" />
          </mxGeometry>
        </mxCell>
        <mxCell id="_UK82que1gwiX8bq44kw-3" value="" style="edgeStyle=orthogonalEdgeStyle;rounded=0;orthogonalLoop=1;jettySize=auto;html=1;" edge="1" parent="1" source="6HWEtd2WRSsSPUaocRVc-16" target="_UK82que1gwiX8bq44kw-2">
          <mxGeometry relative="1" as="geometry" />
        </mxCell>
        <mxCell id="6HWEtd2WRSsSPUaocRVc-16" value="&lt;div&gt;sel_i = &#39;0&#39;, ld_i = &#39;1&#39; &lt;span style=&quot;background-color: initial;&quot;&gt;size_r_en=1&lt;/span&gt;&lt;div&gt;&lt;span style=&quot;background-color: initial;&quot;&gt;&amp;nbsp;&lt;/span&gt;&lt;span style=&quot;background-color: initial;&quot;&gt;mi_r_en=1&lt;/span&gt;&lt;/div&gt;&lt;/div&gt;" style="rounded=0;whiteSpace=wrap;html=1;" parent="1" vertex="1">
          <mxGeometry x="229" y="280" width="160" height="60" as="geometry" />
        </mxCell>
        <mxCell id="6HWEtd2WRSsSPUaocRVc-17" style="edgeStyle=none;curved=1;rounded=0;orthogonalLoop=1;jettySize=auto;html=1;exitX=0.5;exitY=1;exitDx=0;exitDy=0;fontSize=12;startSize=8;endSize=8;" parent="1" source="6HWEtd2WRSsSPUaocRVc-1" target="6HWEtd2WRSsSPUaocRVc-1" edge="1">
          <mxGeometry relative="1" as="geometry" />
        </mxCell>
        <mxCell id="6HWEtd2WRSsSPUaocRVc-18" value="" style="endArrow=classic;html=1;rounded=0;fontSize=12;startSize=8;endSize=8;curved=1;entryX=0.5;entryY=0;entryDx=0;entryDy=0;" parent="1" target="6HWEtd2WRSsSPUaocRVc-16" edge="1">
          <mxGeometry width="50" height="50" relative="1" as="geometry">
            <mxPoint x="309" y="250" as="sourcePoint" />
            <mxPoint x="359" y="200" as="targetPoint" />
          </mxGeometry>
        </mxCell>
        <mxCell id="6HWEtd2WRSsSPUaocRVc-19" value="" style="endArrow=classic;html=1;rounded=0;fontSize=12;startSize=8;endSize=8;curved=1;entryX=0.5;entryY=0;entryDx=0;entryDy=0;" parent="1" target="6HWEtd2WRSsSPUaocRVc-3" edge="1">
          <mxGeometry width="50" height="50" relative="1" as="geometry">
            <mxPoint x="310" y="430" as="sourcePoint" />
            <mxPoint x="360" y="380" as="targetPoint" />
          </mxGeometry>
        </mxCell>
        <mxCell id="6HWEtd2WRSsSPUaocRVc-21" value="" style="endArrow=classic;html=1;rounded=0;fontSize=12;startSize=8;endSize=8;curved=1;entryX=0.5;entryY=0;entryDx=0;entryDy=0;" parent="1" target="6HWEtd2WRSsSPUaocRVc-5" edge="1">
          <mxGeometry width="50" height="50" relative="1" as="geometry">
            <mxPoint x="312.75" y="780" as="sourcePoint" />
            <mxPoint x="362.75" y="730" as="targetPoint" />
          </mxGeometry>
        </mxCell>
        <mxCell id="6HWEtd2WRSsSPUaocRVc-22" value="" style="endArrow=none;html=1;rounded=0;fontSize=12;startSize=8;endSize=8;curved=1;exitX=1;exitY=0.5;exitDx=0;exitDy=0;" parent="1" source="6HWEtd2WRSsSPUaocRVc-4" edge="1">
          <mxGeometry width="50" height="50" relative="1" as="geometry">
            <mxPoint x="362.75" y="750" as="sourcePoint" />
            <mxPoint x="412.75" y="740" as="targetPoint" />
          </mxGeometry>
        </mxCell>
        <mxCell id="6HWEtd2WRSsSPUaocRVc-23" value="" style="endArrow=none;html=1;rounded=0;fontSize=12;startSize=8;endSize=8;curved=1;" parent="1" edge="1">
          <mxGeometry width="50" height="50" relative="1" as="geometry">
            <mxPoint x="412.75" y="880" as="sourcePoint" />
            <mxPoint x="412.75" y="740" as="targetPoint" />
          </mxGeometry>
        </mxCell>
        <mxCell id="6HWEtd2WRSsSPUaocRVc-24" value="" style="endArrow=classic;html=1;rounded=0;fontSize=12;startSize=8;endSize=8;curved=1;" parent="1" edge="1">
          <mxGeometry width="50" height="50" relative="1" as="geometry">
            <mxPoint x="412.75" y="880" as="sourcePoint" />
            <mxPoint x="312.75" y="880" as="targetPoint" />
          </mxGeometry>
        </mxCell>
        <mxCell id="6HWEtd2WRSsSPUaocRVc-25" value="" style="endArrow=classic;html=1;rounded=0;fontSize=12;startSize=8;endSize=8;curved=1;" parent="1" target="6HWEtd2WRSsSPUaocRVc-6" edge="1">
          <mxGeometry width="50" height="50" relative="1" as="geometry">
            <mxPoint x="312.75" y="860" as="sourcePoint" />
            <mxPoint x="362.75" y="810" as="targetPoint" />
          </mxGeometry>
        </mxCell>
        <mxCell id="6HWEtd2WRSsSPUaocRVc-26" value="" style="endArrow=classic;html=1;rounded=0;fontSize=12;startSize=8;endSize=8;curved=1;entryX=0.5;entryY=0;entryDx=0;entryDy=0;" parent="1" target="6HWEtd2WRSsSPUaocRVc-7" edge="1">
          <mxGeometry width="50" height="50" relative="1" as="geometry">
            <mxPoint x="312.75" y="970" as="sourcePoint" />
            <mxPoint x="362.75" y="920" as="targetPoint" />
          </mxGeometry>
        </mxCell>
        <mxCell id="6HWEtd2WRSsSPUaocRVc-27" value="" style="endArrow=none;html=1;rounded=0;fontSize=12;startSize=8;endSize=8;curved=1;exitX=1;exitY=0.5;exitDx=0;exitDy=0;" parent="1" source="6HWEtd2WRSsSPUaocRVc-6" edge="1">
          <mxGeometry width="50" height="50" relative="1" as="geometry">
            <mxPoint x="362.75" y="940" as="sourcePoint" />
            <mxPoint x="412.75" y="930" as="targetPoint" />
          </mxGeometry>
        </mxCell>
        <mxCell id="6HWEtd2WRSsSPUaocRVc-28" value="" style="endArrow=none;html=1;rounded=0;fontSize=12;startSize=8;endSize=8;curved=1;" parent="1" edge="1">
          <mxGeometry width="50" height="50" relative="1" as="geometry">
            <mxPoint x="412.75" y="1070" as="sourcePoint" />
            <mxPoint x="412.75" y="930" as="targetPoint" />
          </mxGeometry>
        </mxCell>
        <mxCell id="6HWEtd2WRSsSPUaocRVc-29" value="" style="endArrow=classic;html=1;rounded=0;fontSize=12;startSize=8;endSize=8;curved=1;entryX=0.5;entryY=0;entryDx=0;entryDy=0;" parent="1" target="6HWEtd2WRSsSPUaocRVc-8" edge="1">
          <mxGeometry width="50" height="50" relative="1" as="geometry">
            <mxPoint x="312.75" y="1050" as="sourcePoint" />
            <mxPoint x="362.75" y="1000" as="targetPoint" />
          </mxGeometry>
        </mxCell>
        <mxCell id="6HWEtd2WRSsSPUaocRVc-30" value="" style="endArrow=classic;html=1;rounded=0;fontSize=12;startSize=8;endSize=8;curved=1;" parent="1" edge="1">
          <mxGeometry width="50" height="50" relative="1" as="geometry">
            <mxPoint x="412.75" y="1070" as="sourcePoint" />
            <mxPoint x="312.75" y="1070" as="targetPoint" />
          </mxGeometry>
        </mxCell>
        <mxCell id="6HWEtd2WRSsSPUaocRVc-31" value="" style="endArrow=none;html=1;rounded=0;fontSize=12;startSize=8;endSize=8;curved=1;exitX=1;exitY=0.5;exitDx=0;exitDy=0;" parent="1" source="6HWEtd2WRSsSPUaocRVc-3" edge="1">
          <mxGeometry width="50" height="50" relative="1" as="geometry">
            <mxPoint x="460" y="580" as="sourcePoint" />
            <mxPoint x="480" y="519" as="targetPoint" />
          </mxGeometry>
        </mxCell>
        <mxCell id="6HWEtd2WRSsSPUaocRVc-32" value="" style="endArrow=none;html=1;rounded=0;fontSize=12;startSize=8;endSize=8;curved=1;" parent="1" edge="1">
          <mxGeometry width="50" height="50" relative="1" as="geometry">
            <mxPoint x="480" y="1110" as="sourcePoint" />
            <mxPoint x="480" y="520" as="targetPoint" />
          </mxGeometry>
        </mxCell>
        <mxCell id="6HWEtd2WRSsSPUaocRVc-33" value="" style="endArrow=classic;html=1;rounded=0;fontSize=12;startSize=8;endSize=8;entryX=1;entryY=0.75;entryDx=0;entryDy=0;edgeStyle=orthogonalEdgeStyle;" parent="1" target="6HWEtd2WRSsSPUaocRVc-9" edge="1">
          <mxGeometry width="50" height="50" relative="1" as="geometry">
            <mxPoint x="480" y="1110" as="sourcePoint" />
            <mxPoint x="370" y="1109.7" as="targetPoint" />
            <Array as="points">
              <mxPoint x="480" y="1225" />
            </Array>
          </mxGeometry>
        </mxCell>
        <mxCell id="6HWEtd2WRSsSPUaocRVc-34" value="" style="endArrow=none;html=1;rounded=0;fontSize=12;startSize=8;endSize=8;curved=1;" parent="1" edge="1">
          <mxGeometry width="50" height="50" relative="1" as="geometry">
            <mxPoint x="160" y="1020" as="sourcePoint" />
            <mxPoint x="160" y="520" as="targetPoint" />
          </mxGeometry>
        </mxCell>
        <mxCell id="6HWEtd2WRSsSPUaocRVc-35" value="" style="endArrow=classic;html=1;rounded=0;fontSize=12;startSize=8;endSize=8;curved=1;entryX=0.5;entryY=0;entryDx=0;entryDy=0;" parent="1" target="6HWEtd2WRSsSPUaocRVc-10" edge="1">
          <mxGeometry width="50" height="50" relative="1" as="geometry">
            <mxPoint x="312.75" y="1240" as="sourcePoint" />
            <mxPoint x="362.75" y="1190" as="targetPoint" />
          </mxGeometry>
        </mxCell>
        <mxCell id="6HWEtd2WRSsSPUaocRVc-36" value="" style="endArrow=none;html=1;rounded=0;fontSize=12;startSize=8;endSize=8;entryX=0;entryY=0.5;entryDx=0;entryDy=0;edgeStyle=orthogonalEdgeStyle;" parent="1" target="6HWEtd2WRSsSPUaocRVc-8" edge="1">
          <mxGeometry width="50" height="50" relative="1" as="geometry">
            <mxPoint x="160" y="1020" as="sourcePoint" />
            <mxPoint x="250" y="1110" as="targetPoint" />
            <Array as="points">
              <mxPoint x="160" y="1120" />
            </Array>
          </mxGeometry>
        </mxCell>
        <mxCell id="6HWEtd2WRSsSPUaocRVc-37" value="" style="endArrow=classic;html=1;rounded=0;fontSize=12;startSize=8;endSize=8;curved=1;entryX=0;entryY=0.5;entryDx=0;entryDy=0;" parent="1" target="6HWEtd2WRSsSPUaocRVc-3" edge="1">
          <mxGeometry width="50" height="50" relative="1" as="geometry">
            <mxPoint x="160" y="519" as="sourcePoint" />
            <mxPoint x="250" y="470" as="targetPoint" />
          </mxGeometry>
        </mxCell>
        <mxCell id="6HWEtd2WRSsSPUaocRVc-38" value="" style="endArrow=none;html=1;rounded=0;fontSize=12;startSize=8;endSize=8;curved=1;" parent="1" edge="1">
          <mxGeometry width="50" height="50" relative="1" as="geometry">
            <mxPoint x="362.75" y="1330" as="sourcePoint" />
            <mxPoint x="402.75" y="1330" as="targetPoint" />
          </mxGeometry>
        </mxCell>
        <mxCell id="6HWEtd2WRSsSPUaocRVc-39" value="" style="endArrow=none;html=1;rounded=0;fontSize=12;startSize=8;endSize=8;curved=1;" parent="1" edge="1">
          <mxGeometry width="50" height="50" relative="1" as="geometry">
            <mxPoint x="402.75" y="1330" as="sourcePoint" />
            <mxPoint x="402.75" y="1270" as="targetPoint" />
          </mxGeometry>
        </mxCell>
        <mxCell id="6HWEtd2WRSsSPUaocRVc-40" value="" style="endArrow=classic;html=1;rounded=0;fontSize=12;startSize=8;endSize=8;curved=1;" parent="1" edge="1">
          <mxGeometry width="50" height="50" relative="1" as="geometry">
            <mxPoint x="402.75" y="1270" as="sourcePoint" />
            <mxPoint x="312.75" y="1270" as="targetPoint" />
          </mxGeometry>
        </mxCell>
        <mxCell id="6HWEtd2WRSsSPUaocRVc-41" value="" style="endArrow=classic;html=1;rounded=0;fontSize=12;startSize=8;endSize=8;curved=1;entryX=0.5;entryY=0;entryDx=0;entryDy=0;" parent="1" target="6HWEtd2WRSsSPUaocRVc-11" edge="1">
          <mxGeometry width="50" height="50" relative="1" as="geometry">
            <mxPoint x="312.75" y="1370" as="sourcePoint" />
            <mxPoint x="362.75" y="1320" as="targetPoint" />
          </mxGeometry>
        </mxCell>
        <mxCell id="6HWEtd2WRSsSPUaocRVc-42" value="" style="endArrow=classic;html=1;rounded=0;" parent="1" edge="1">
          <mxGeometry width="50" height="50" relative="1" as="geometry">
            <mxPoint x="169" y="69" as="sourcePoint" />
            <mxPoint x="249" y="69" as="targetPoint" />
          </mxGeometry>
        </mxCell>
        <mxCell id="6HWEtd2WRSsSPUaocRVc-43" value="Reset" style="text;html=1;strokeColor=none;fillColor=none;align=center;verticalAlign=middle;whiteSpace=wrap;rounded=0;" parent="1" vertex="1">
          <mxGeometry x="171.75" y="40" width="60" height="30" as="geometry" />
        </mxCell>
        <mxCell id="6HWEtd2WRSsSPUaocRVc-44" value="F" style="text;html=1;align=center;verticalAlign=middle;whiteSpace=wrap;rounded=0;fontSize=16;" parent="1" vertex="1">
          <mxGeometry x="349" y="210" width="60" height="30" as="geometry" />
        </mxCell>
        <mxCell id="6HWEtd2WRSsSPUaocRVc-45" value="T" style="text;html=1;align=center;verticalAlign=middle;whiteSpace=wrap;rounded=0;fontSize=16;" parent="1" vertex="1">
          <mxGeometry x="299" y="240" width="60" height="30" as="geometry" />
        </mxCell>
        <mxCell id="6HWEtd2WRSsSPUaocRVc-46" value="F" style="text;html=1;align=center;verticalAlign=middle;whiteSpace=wrap;rounded=0;fontSize=16;" parent="1" vertex="1">
          <mxGeometry x="350" y="490" width="60" height="30" as="geometry" />
        </mxCell>
        <mxCell id="6HWEtd2WRSsSPUaocRVc-47" value="T" style="text;html=1;align=center;verticalAlign=middle;whiteSpace=wrap;rounded=0;fontSize=16;" parent="1" vertex="1">
          <mxGeometry x="301.75" y="555" width="60" height="30" as="geometry" />
        </mxCell>
        <mxCell id="6HWEtd2WRSsSPUaocRVc-48" value="F" style="text;html=1;align=center;verticalAlign=middle;whiteSpace=wrap;rounded=0;fontSize=16;" parent="1" vertex="1">
          <mxGeometry x="342.75" y="710" width="60" height="30" as="geometry" />
        </mxCell>
        <mxCell id="6HWEtd2WRSsSPUaocRVc-49" value="T" style="text;html=1;align=center;verticalAlign=middle;whiteSpace=wrap;rounded=0;fontSize=16;" parent="1" vertex="1">
          <mxGeometry x="302.75" y="770" width="60" height="30" as="geometry" />
        </mxCell>
        <mxCell id="6HWEtd2WRSsSPUaocRVc-50" value="F" style="text;html=1;align=center;verticalAlign=middle;whiteSpace=wrap;rounded=0;fontSize=16;" parent="1" vertex="1">
          <mxGeometry x="356.75" y="900" width="60" height="30" as="geometry" />
        </mxCell>
        <mxCell id="6HWEtd2WRSsSPUaocRVc-51" value="T" style="text;html=1;align=center;verticalAlign=middle;whiteSpace=wrap;rounded=0;fontSize=16;" parent="1" vertex="1">
          <mxGeometry x="322.75" y="961" width="60" height="30" as="geometry" />
        </mxCell>
        <mxCell id="6HWEtd2WRSsSPUaocRVc-52" value="F" style="text;html=1;align=center;verticalAlign=middle;whiteSpace=wrap;rounded=0;fontSize=16;" parent="1" vertex="1">
          <mxGeometry x="342.75" y="1300" width="60" height="30" as="geometry" />
        </mxCell>
        <mxCell id="6HWEtd2WRSsSPUaocRVc-53" value="T" style="text;html=1;align=center;verticalAlign=middle;whiteSpace=wrap;rounded=0;fontSize=16;" parent="1" vertex="1">
          <mxGeometry x="302.75" y="1360" width="60" height="30" as="geometry" />
        </mxCell>
        <mxCell id="6HWEtd2WRSsSPUaocRVc-54" value="state 0" style="text;html=1;align=center;verticalAlign=middle;whiteSpace=wrap;rounded=0;fontSize=16;" parent="1" vertex="1">
          <mxGeometry x="589" y="50" width="60" height="30" as="geometry" />
        </mxCell>
        <mxCell id="6HWEtd2WRSsSPUaocRVc-55" value="state 2" style="text;html=1;align=center;verticalAlign=middle;whiteSpace=wrap;rounded=0;fontSize=16;" parent="1" vertex="1">
          <mxGeometry x="594" y="295" width="60" height="30" as="geometry" />
        </mxCell>
        <mxCell id="6HWEtd2WRSsSPUaocRVc-56" value="state 1" style="text;html=1;align=center;verticalAlign=middle;whiteSpace=wrap;rounded=0;fontSize=16;" parent="1" vertex="1">
          <mxGeometry x="599" y="180" width="60" height="30" as="geometry" />
        </mxCell>
        <mxCell id="6HWEtd2WRSsSPUaocRVc-57" value="state 3" style="text;html=1;align=center;verticalAlign=middle;whiteSpace=wrap;rounded=0;fontSize=16;" parent="1" vertex="1">
          <mxGeometry x="595" y="504" width="60" height="30" as="geometry" />
        </mxCell>
        <mxCell id="6HWEtd2WRSsSPUaocRVc-58" value="state 4" style="text;html=1;align=center;verticalAlign=middle;whiteSpace=wrap;rounded=0;fontSize=16;" parent="1" vertex="1">
          <mxGeometry x="595" y="624" width="60" height="30" as="geometry" />
        </mxCell>
        <mxCell id="6HWEtd2WRSsSPUaocRVc-59" value="state 5" style="text;html=1;align=center;verticalAlign=middle;resizable=0;points=[];autosize=1;strokeColor=none;fillColor=none;fontSize=16;" parent="1" vertex="1">
          <mxGeometry x="590" y="715" width="70" height="30" as="geometry" />
        </mxCell>
        <mxCell id="6HWEtd2WRSsSPUaocRVc-60" value="state 6" style="text;html=1;align=center;verticalAlign=middle;whiteSpace=wrap;rounded=0;fontSize=16;" parent="1" vertex="1">
          <mxGeometry x="595" y="814" width="60" height="30" as="geometry" />
        </mxCell>
        <mxCell id="6HWEtd2WRSsSPUaocRVc-61" value="state 7" style="text;html=1;align=center;verticalAlign=middle;resizable=0;points=[];autosize=1;strokeColor=none;fillColor=none;fontSize=16;" parent="1" vertex="1">
          <mxGeometry x="590" y="905" width="70" height="30" as="geometry" />
        </mxCell>
        <mxCell id="6HWEtd2WRSsSPUaocRVc-62" value="state 8" style="text;html=1;align=center;verticalAlign=middle;resizable=0;points=[];autosize=1;strokeColor=none;fillColor=none;fontSize=16;" parent="1" vertex="1">
          <mxGeometry x="590" y="1005" width="70" height="30" as="geometry" />
        </mxCell>
        <mxCell id="6HWEtd2WRSsSPUaocRVc-63" value="state 9" style="text;html=1;align=center;verticalAlign=middle;resizable=0;points=[];autosize=1;strokeColor=none;fillColor=none;fontSize=16;" parent="1" vertex="1">
          <mxGeometry x="590" y="1105" width="70" height="30" as="geometry" />
        </mxCell>
        <mxCell id="6HWEtd2WRSsSPUaocRVc-64" value="state 10" style="text;html=1;align=center;verticalAlign=middle;resizable=0;points=[];autosize=1;strokeColor=none;fillColor=none;fontSize=16;" parent="1" vertex="1">
          <mxGeometry x="580" y="1195" width="80" height="30" as="geometry" />
        </mxCell>
        <mxCell id="6HWEtd2WRSsSPUaocRVc-65" value="state 11" style="text;html=1;align=center;verticalAlign=middle;resizable=0;points=[];autosize=1;strokeColor=none;fillColor=none;fontSize=16;" parent="1" vertex="1">
          <mxGeometry x="580" y="1300" width="80" height="30" as="geometry" />
        </mxCell>
        <mxCell id="6HWEtd2WRSsSPUaocRVc-66" value="" style="endArrow=classic;html=1;rounded=0;exitX=0;exitY=0.5;exitDx=0;exitDy=0;entryX=0;entryY=0.75;entryDx=0;entryDy=0;edgeStyle=orthogonalEdgeStyle;" parent="1" source="6HWEtd2WRSsSPUaocRVc-11" target="6HWEtd2WRSsSPUaocRVc-1" edge="1">
          <mxGeometry width="50" height="50" relative="1" as="geometry">
            <mxPoint x="740" y="780" as="sourcePoint" />
            <mxPoint x="130" y="290" as="targetPoint" />
            <Array as="points">
              <mxPoint x="253" y="1430" />
              <mxPoint x="130" y="1430" />
              <mxPoint x="130" y="38" />
            </Array>
          </mxGeometry>
        </mxCell>
        <mxCell id="Zovo3GFUtzwWf39hJ12Q-1" value="&lt;div&gt;mi_r_en=1&lt;br&gt;&lt;/div&gt;" style="rounded=0;whiteSpace=wrap;html=1;" parent="1" vertex="1">
          <mxGeometry x="232.75" y="620" width="160" height="34" as="geometry" />
        </mxCell>
        <mxCell id="Zovo3GFUtzwWf39hJ12Q-3" value="" style="endArrow=classic;html=1;rounded=0;exitX=0.138;exitY=-0.033;exitDx=0;exitDy=0;exitPerimeter=0;entryX=0.5;entryY=0;entryDx=0;entryDy=0;" parent="1" source="6HWEtd2WRSsSPUaocRVc-47" target="Zovo3GFUtzwWf39hJ12Q-1" edge="1">
          <mxGeometry width="50" height="50" relative="1" as="geometry">
            <mxPoint x="420" y="830" as="sourcePoint" />
            <mxPoint x="470" y="780" as="targetPoint" />
          </mxGeometry>
        </mxCell>
        <mxCell id="Zovo3GFUtzwWf39hJ12Q-4" value="" style="endArrow=classic;html=1;rounded=0;exitX=0.5;exitY=1;exitDx=0;exitDy=0;" parent="1" source="Zovo3GFUtzwWf39hJ12Q-1" target="6HWEtd2WRSsSPUaocRVc-4" edge="1">
          <mxGeometry width="50" height="50" relative="1" as="geometry">
            <mxPoint x="420" y="830" as="sourcePoint" />
            <mxPoint x="470" y="780" as="targetPoint" />
          </mxGeometry>
        </mxCell>
        <mxCell id="Zovo3GFUtzwWf39hJ12Q-5" value="state 12" style="text;html=1;align=center;verticalAlign=middle;resizable=0;points=[];autosize=1;strokeColor=none;fillColor=none;fontSize=16;" parent="1" vertex="1">
          <mxGeometry x="575" y="1425" width="80" height="30" as="geometry" />
        </mxCell>
        <mxCell id="_UK82que1gwiX8bq44kw-2" value="&lt;div&gt;sel_max=1 ;,&lt;span style=&quot;background-color: initial;&quot;&gt;ld_max=1 ;&lt;/span&gt;&lt;/div&gt;sel_min=1 ;&lt;span style=&quot;background-color: initial;&quot;&gt;l&lt;/span&gt;&lt;span style=&quot;background-color: initial;&quot;&gt;d_min=1&lt;/span&gt;" style="rounded=0;whiteSpace=wrap;html=1;" vertex="1" parent="1">
          <mxGeometry x="190" y="370" width="240" height="75" as="geometry" />
        </mxCell>
        <mxCell id="_UK82que1gwiX8bq44kw-4" value="state 20" style="text;html=1;align=center;verticalAlign=middle;whiteSpace=wrap;rounded=0;fontSize=16;" vertex="1" parent="1">
          <mxGeometry x="595" y="400" width="60" height="30" as="geometry" />
        </mxCell>
      </root>
    </mxGraphModel>
  </diagram>
  <diagram id="yOWzCsn-p1q462z6p6IQ" name="fsmd">
    <mxGraphModel dx="1633" dy="746" grid="1" gridSize="10" guides="1" tooltips="1" connect="1" arrows="1" fold="1" page="1" pageScale="1" pageWidth="827" pageHeight="1169" math="0" shadow="0">
      <root>
        <mxCell id="0" />
        <mxCell id="1" parent="0" />
        <mxCell id="Ga9cEaKDpipMAY2dxr2g-1" value="&lt;div&gt;reset all res&lt;/div&gt;&lt;div&gt;done = &#39;0&#39;&lt;/div&gt;" style="rounded=1;whiteSpace=wrap;html=1;fontSize=12;glass=0;strokeWidth=1;shadow=0;" vertex="1" parent="1">
          <mxGeometry x="358" y="140" width="120" height="70" as="geometry" />
        </mxCell>
        <mxCell id="Ga9cEaKDpipMAY2dxr2g-2" value="start = 1" style="rhombus;whiteSpace=wrap;html=1;shadow=0;fontFamily=Helvetica;fontSize=12;align=center;strokeWidth=1;spacing=6;spacingTop=-4;" vertex="1" parent="1">
          <mxGeometry x="368" y="230" width="100" height="80" as="geometry" />
        </mxCell>
        <mxCell id="Ga9cEaKDpipMAY2dxr2g-3" value="" style="endArrow=classic;html=1;rounded=0;fontSize=12;startSize=8;endSize=8;curved=1;entryX=0;entryY=0.5;entryDx=0;entryDy=0;" edge="1" parent="1" target="Ga9cEaKDpipMAY2dxr2g-1">
          <mxGeometry width="50" height="50" relative="1" as="geometry">
            <mxPoint x="268" y="175" as="sourcePoint" />
            <mxPoint x="328" y="180" as="targetPoint" />
          </mxGeometry>
        </mxCell>
        <mxCell id="Ga9cEaKDpipMAY2dxr2g-4" value="reset" style="text;html=1;align=center;verticalAlign=middle;whiteSpace=wrap;rounded=0;fontSize=16;" vertex="1" parent="1">
          <mxGeometry x="278" y="140" width="60" height="50" as="geometry" />
        </mxCell>
        <mxCell id="Ga9cEaKDpipMAY2dxr2g-5" value="&lt;p style=&quot;margin-top:0cm;text-align:left;text-indent:&lt;br/&gt;12.0pt&quot; align=&quot;left&quot; class=&quot;MsoNormal&quot;&gt;&lt;span style=&quot;font-family:&amp;quot;Times New Roman&amp;quot;,serif;mso-bidi-font-weight:&lt;br/&gt;bold&quot;&gt;Maxvalue = A[0]&lt;/span&gt;&lt;/p&gt;&lt;p style=&quot;margin-top:0cm;text-align:left;text-indent:&lt;br/&gt;12.0pt&quot; align=&quot;left&quot; class=&quot;MsoNormal&quot;&gt;&lt;span style=&quot;font-family:&amp;quot;Times New Roman&amp;quot;,serif;mso-bidi-font-weight:&lt;br/&gt;bold&quot;&gt;Minvalue = A[0];&lt;/span&gt;&lt;/p&gt;" style="rounded=0;whiteSpace=wrap;html=1;" vertex="1" parent="1">
          <mxGeometry x="358" y="393" width="120" height="60" as="geometry" />
        </mxCell>
        <mxCell id="Ga9cEaKDpipMAY2dxr2g-6" value="i&amp;lt;n" style="rhombus;whiteSpace=wrap;html=1;" vertex="1" parent="1">
          <mxGeometry x="378" y="490" width="80" height="60" as="geometry" />
        </mxCell>
        <mxCell id="Ga9cEaKDpipMAY2dxr2g-7" value="&lt;span style=&quot;font-size:12.0pt;line-height:120%;&lt;br/&gt;font-family:&amp;quot;Times New Roman&amp;quot;,serif;mso-fareast-font-family:SimSun;mso-ansi-language:&lt;br/&gt;EN-US;mso-fareast-language:EN-US;mso-bidi-language:AR-SA;mso-bidi-font-weight:&lt;br/&gt;bold&quot;&gt;Maxvalue &amp;gt; a[i]&lt;/span&gt;" style="rhombus;whiteSpace=wrap;html=1;" vertex="1" parent="1">
          <mxGeometry x="343" y="590" width="150" height="80" as="geometry" />
        </mxCell>
        <mxCell id="Ga9cEaKDpipMAY2dxr2g-8" value="&lt;span style=&quot;font-size:12.0pt;line-height:120%;&lt;br/&gt;font-family:&amp;quot;Times New Roman&amp;quot;,serif;mso-fareast-font-family:SimSun;mso-ansi-language:&lt;br/&gt;EN-US;mso-fareast-language:EN-US;mso-bidi-language:AR-SA;mso-bidi-font-weight:&lt;br/&gt;bold&quot;&gt;&amp;nbsp;Maxvalue = a[i]&lt;/span&gt;" style="rounded=0;whiteSpace=wrap;html=1;" vertex="1" parent="1">
          <mxGeometry x="358" y="690" width="120" height="30" as="geometry" />
        </mxCell>
        <mxCell id="Ga9cEaKDpipMAY2dxr2g-9" value="&lt;br&gt;&lt;span style=&quot;font-size:12.0pt;line-height:120%;&lt;br/&gt;font-family:&amp;quot;Times New Roman&amp;quot;,serif;mso-fareast-font-family:SimSun;mso-ansi-language:&lt;br/&gt;EN-US;mso-fareast-language:EN-US;mso-bidi-language:AR-SA;mso-bidi-font-weight:&lt;br/&gt;bold&quot;&gt;&lt;br&gt;&lt;/span&gt;&lt;div&gt;&lt;span style=&quot;font-size:12.0pt;line-height:120%;&lt;br/&gt;font-family:&amp;quot;Times New Roman&amp;quot;,serif;mso-fareast-font-family:SimSun;mso-ansi-language:&lt;br/&gt;EN-US;mso-fareast-language:EN-US;mso-bidi-language:AR-SA;mso-bidi-font-weight:&lt;br/&gt;bold&quot;&gt;Minvalue &amp;lt; a[i]&lt;/span&gt;&lt;br&gt;&lt;br&gt;&lt;br&gt;&lt;br&gt;&lt;/div&gt;" style="rhombus;whiteSpace=wrap;html=1;" vertex="1" parent="1">
          <mxGeometry x="335.5" y="770" width="165" height="80" as="geometry" />
        </mxCell>
        <mxCell id="Ga9cEaKDpipMAY2dxr2g-10" value="" style="edgeStyle=none;curved=1;rounded=0;orthogonalLoop=1;jettySize=auto;html=1;fontSize=12;startSize=8;endSize=8;exitX=0.5;exitY=1;exitDx=0;exitDy=0;" edge="1" parent="1" source="Ga9cEaKDpipMAY2dxr2g-13" target="Ga9cEaKDpipMAY2dxr2g-15">
          <mxGeometry relative="1" as="geometry" />
        </mxCell>
        <mxCell id="Ga9cEaKDpipMAY2dxr2g-11" value="&lt;div&gt;&lt;br&gt;&lt;/div&gt;&lt;div&gt;&lt;br&gt;&lt;/div&gt;&lt;br&gt;&lt;span style=&quot;font-size:12.0pt;line-height:120%;&lt;br/&gt;font-family:&amp;quot;Times New Roman&amp;quot;,serif;mso-fareast-font-family:SimSun;mso-ansi-language:&lt;br/&gt;EN-US;mso-fareast-language:EN-US;mso-bidi-language:AR-SA;mso-bidi-font-weight:&lt;br/&gt;bold&quot;&gt;Minvalue = a[i]&lt;/span&gt;&lt;br&gt;&lt;br&gt;&lt;div&gt;&lt;br/&gt;&lt;/div&gt;" style="rounded=0;whiteSpace=wrap;html=1;" vertex="1" parent="1">
          <mxGeometry x="358" y="880" width="120" height="40" as="geometry" />
        </mxCell>
        <mxCell id="Ga9cEaKDpipMAY2dxr2g-12" style="edgeStyle=none;curved=1;rounded=0;orthogonalLoop=1;jettySize=auto;html=1;entryX=0.5;entryY=1;entryDx=0;entryDy=0;fontSize=12;startSize=8;endSize=8;" edge="1" parent="1" source="Ga9cEaKDpipMAY2dxr2g-11" target="Ga9cEaKDpipMAY2dxr2g-11">
          <mxGeometry relative="1" as="geometry" />
        </mxCell>
        <mxCell id="Ga9cEaKDpipMAY2dxr2g-13" value="i++" style="rounded=0;whiteSpace=wrap;html=1;" vertex="1" parent="1">
          <mxGeometry x="358" y="970" width="120" height="60" as="geometry" />
        </mxCell>
        <mxCell id="Ga9cEaKDpipMAY2dxr2g-14" value="i=0" style="rounded=0;whiteSpace=wrap;html=1;" vertex="1" parent="1">
          <mxGeometry x="358" y="328" width="120" height="40" as="geometry" />
        </mxCell>
        <mxCell id="Ga9cEaKDpipMAY2dxr2g-15" value="&lt;span style=&quot;font-size:12.0pt;line-height:120%;&lt;br/&gt;font-family:&amp;quot;Times New Roman&amp;quot;,serif;mso-fareast-font-family:SimSun;mso-ansi-language:&lt;br/&gt;EN-US;mso-fareast-language:EN-US;mso-bidi-language:AR-SA;mso-bidi-font-weight:&lt;br/&gt;bold&quot;&gt;&lt;span style=&quot;font-size:13.0pt;line-height:120%;&lt;br/&gt;font-family:&amp;quot;Liberation Serif&amp;quot;,serif;mso-fareast-font-family:SimSun;mso-bidi-font-family:&lt;br/&gt;&amp;quot;Times New Roman&amp;quot;;mso-ansi-language:EN-US;mso-fareast-language:EN-US;&lt;br/&gt;mso-bidi-language:AR-SA&quot;&gt;MAXDIFF =&lt;/span&gt;Maxvalue – Minvalue&lt;/span&gt;" style="rounded=0;whiteSpace=wrap;html=1;" vertex="1" parent="1">
          <mxGeometry x="290.5" y="1070" width="255" height="60" as="geometry" />
        </mxCell>
        <mxCell id="Ga9cEaKDpipMAY2dxr2g-16" value="done =1" style="rounded=0;whiteSpace=wrap;html=1;" vertex="1" parent="1">
          <mxGeometry x="358" y="1170" width="120" height="60" as="geometry" />
        </mxCell>
        <mxCell id="Ga9cEaKDpipMAY2dxr2g-17" value="start = 0" style="rhombus;whiteSpace=wrap;html=1;" vertex="1" parent="1">
          <mxGeometry x="378" y="1260" width="80" height="80" as="geometry" />
        </mxCell>
        <mxCell id="Ga9cEaKDpipMAY2dxr2g-18" value="done =0" style="rounded=0;whiteSpace=wrap;html=1;" vertex="1" parent="1">
          <mxGeometry x="358" y="1380" width="120" height="60" as="geometry" />
        </mxCell>
        <mxCell id="Ga9cEaKDpipMAY2dxr2g-19" value="" style="endArrow=classic;html=1;rounded=0;fontSize=12;startSize=8;endSize=8;curved=1;exitX=0.5;exitY=1;exitDx=0;exitDy=0;entryX=0.5;entryY=0;entryDx=0;entryDy=0;" edge="1" parent="1" source="Ga9cEaKDpipMAY2dxr2g-1" target="Ga9cEaKDpipMAY2dxr2g-2">
          <mxGeometry width="50" height="50" relative="1" as="geometry">
            <mxPoint x="478" y="300" as="sourcePoint" />
            <mxPoint x="528" y="250" as="targetPoint" />
          </mxGeometry>
        </mxCell>
        <mxCell id="Ga9cEaKDpipMAY2dxr2g-20" value="" style="endArrow=none;html=1;rounded=0;fontSize=12;startSize=8;endSize=8;curved=1;exitX=1;exitY=0.5;exitDx=0;exitDy=0;" edge="1" parent="1" source="Ga9cEaKDpipMAY2dxr2g-2">
          <mxGeometry width="50" height="50" relative="1" as="geometry">
            <mxPoint x="468" y="300" as="sourcePoint" />
            <mxPoint x="518" y="270" as="targetPoint" />
          </mxGeometry>
        </mxCell>
        <mxCell id="Ga9cEaKDpipMAY2dxr2g-21" value="" style="endArrow=none;html=1;rounded=0;fontSize=12;startSize=8;endSize=8;curved=1;" edge="1" parent="1">
          <mxGeometry width="50" height="50" relative="1" as="geometry">
            <mxPoint x="518" y="270" as="sourcePoint" />
            <mxPoint x="518" y="220" as="targetPoint" />
          </mxGeometry>
        </mxCell>
        <mxCell id="Ga9cEaKDpipMAY2dxr2g-22" value="" style="endArrow=classic;html=1;rounded=0;fontSize=12;startSize=8;endSize=8;curved=1;" edge="1" parent="1">
          <mxGeometry width="50" height="50" relative="1" as="geometry">
            <mxPoint x="518" y="220" as="sourcePoint" />
            <mxPoint x="428" y="220" as="targetPoint" />
          </mxGeometry>
        </mxCell>
        <mxCell id="Ga9cEaKDpipMAY2dxr2g-23" value="" style="endArrow=classic;html=1;rounded=0;fontSize=12;startSize=8;endSize=8;curved=1;exitX=0.5;exitY=1;exitDx=0;exitDy=0;entryX=0.5;entryY=0;entryDx=0;entryDy=0;" edge="1" parent="1" source="Ga9cEaKDpipMAY2dxr2g-6" target="Ga9cEaKDpipMAY2dxr2g-7">
          <mxGeometry width="50" height="50" relative="1" as="geometry">
            <mxPoint x="478" y="570" as="sourcePoint" />
            <mxPoint x="528" y="520" as="targetPoint" />
          </mxGeometry>
        </mxCell>
        <mxCell id="Ga9cEaKDpipMAY2dxr2g-24" value="" style="endArrow=classic;html=1;rounded=0;fontSize=12;startSize=8;endSize=8;curved=1;entryX=0.5;entryY=0;entryDx=0;entryDy=0;" edge="1" parent="1" target="Ga9cEaKDpipMAY2dxr2g-8">
          <mxGeometry width="50" height="50" relative="1" as="geometry">
            <mxPoint x="418" y="670" as="sourcePoint" />
            <mxPoint x="468" y="620" as="targetPoint" />
          </mxGeometry>
        </mxCell>
        <mxCell id="Ga9cEaKDpipMAY2dxr2g-25" value="" style="endArrow=classic;html=1;rounded=0;fontSize=12;startSize=8;endSize=8;curved=1;entryX=0.5;entryY=0;entryDx=0;entryDy=0;" edge="1" parent="1" target="Ga9cEaKDpipMAY2dxr2g-9">
          <mxGeometry width="50" height="50" relative="1" as="geometry">
            <mxPoint x="418" y="720" as="sourcePoint" />
            <mxPoint x="468" y="700" as="targetPoint" />
          </mxGeometry>
        </mxCell>
        <mxCell id="Ga9cEaKDpipMAY2dxr2g-26" value="" style="endArrow=classic;html=1;rounded=0;fontSize=12;startSize=8;endSize=8;curved=1;entryX=0.5;entryY=0;entryDx=0;entryDy=0;" edge="1" parent="1" target="Ga9cEaKDpipMAY2dxr2g-11">
          <mxGeometry width="50" height="50" relative="1" as="geometry">
            <mxPoint x="418" y="850" as="sourcePoint" />
            <mxPoint x="468" y="800" as="targetPoint" />
          </mxGeometry>
        </mxCell>
        <mxCell id="Ga9cEaKDpipMAY2dxr2g-27" value="" style="endArrow=none;html=1;rounded=0;fontSize=12;startSize=8;endSize=8;curved=1;" edge="1" parent="1">
          <mxGeometry width="50" height="50" relative="1" as="geometry">
            <mxPoint x="493" y="630" as="sourcePoint" />
            <mxPoint x="528" y="630" as="targetPoint" />
          </mxGeometry>
        </mxCell>
        <mxCell id="Ga9cEaKDpipMAY2dxr2g-28" style="edgeStyle=none;curved=1;rounded=0;orthogonalLoop=1;jettySize=auto;html=1;exitX=0.5;exitY=1;exitDx=0;exitDy=0;fontSize=12;startSize=8;endSize=8;" edge="1" parent="1" source="Ga9cEaKDpipMAY2dxr2g-8" target="Ga9cEaKDpipMAY2dxr2g-8">
          <mxGeometry relative="1" as="geometry" />
        </mxCell>
        <mxCell id="Ga9cEaKDpipMAY2dxr2g-29" value="" style="endArrow=none;html=1;rounded=0;fontSize=12;startSize=8;endSize=8;curved=1;" edge="1" parent="1">
          <mxGeometry width="50" height="50" relative="1" as="geometry">
            <mxPoint x="528" y="740" as="sourcePoint" />
            <mxPoint x="528" y="630" as="targetPoint" />
          </mxGeometry>
        </mxCell>
        <mxCell id="Ga9cEaKDpipMAY2dxr2g-30" value="" style="endArrow=classic;html=1;rounded=0;fontSize=12;startSize=8;endSize=8;curved=1;" edge="1" parent="1">
          <mxGeometry width="50" height="50" relative="1" as="geometry">
            <mxPoint x="528" y="740" as="sourcePoint" />
            <mxPoint x="418" y="740" as="targetPoint" />
          </mxGeometry>
        </mxCell>
        <mxCell id="Ga9cEaKDpipMAY2dxr2g-31" value="" style="endArrow=none;html=1;rounded=0;fontSize=12;startSize=8;endSize=8;curved=1;exitX=1;exitY=0.5;exitDx=0;exitDy=0;" edge="1" parent="1" source="Ga9cEaKDpipMAY2dxr2g-9">
          <mxGeometry width="50" height="50" relative="1" as="geometry">
            <mxPoint x="498" y="820" as="sourcePoint" />
            <mxPoint x="538" y="810" as="targetPoint" />
          </mxGeometry>
        </mxCell>
        <mxCell id="Ga9cEaKDpipMAY2dxr2g-32" value="" style="endArrow=classic;html=1;rounded=0;fontSize=12;startSize=8;endSize=8;curved=1;entryX=0.5;entryY=0;entryDx=0;entryDy=0;" edge="1" parent="1" target="Ga9cEaKDpipMAY2dxr2g-13">
          <mxGeometry width="50" height="50" relative="1" as="geometry">
            <mxPoint x="418" y="930" as="sourcePoint" />
            <mxPoint x="468" y="890" as="targetPoint" />
          </mxGeometry>
        </mxCell>
        <mxCell id="Ga9cEaKDpipMAY2dxr2g-33" value="" style="endArrow=none;html=1;rounded=0;fontSize=12;startSize=8;endSize=8;curved=1;" edge="1" parent="1">
          <mxGeometry width="50" height="50" relative="1" as="geometry">
            <mxPoint x="538" y="950" as="sourcePoint" />
            <mxPoint x="538" y="810" as="targetPoint" />
          </mxGeometry>
        </mxCell>
        <mxCell id="Ga9cEaKDpipMAY2dxr2g-34" value="" style="endArrow=classic;html=1;rounded=0;fontSize=12;startSize=8;endSize=8;curved=1;" edge="1" parent="1">
          <mxGeometry width="50" height="50" relative="1" as="geometry">
            <mxPoint x="538" y="950" as="sourcePoint" />
            <mxPoint x="418" y="950" as="targetPoint" />
          </mxGeometry>
        </mxCell>
        <mxCell id="Ga9cEaKDpipMAY2dxr2g-35" value="" style="endArrow=none;html=1;rounded=0;fontSize=12;startSize=8;endSize=8;curved=1;" edge="1" parent="1">
          <mxGeometry width="50" height="50" relative="1" as="geometry">
            <mxPoint x="298" y="990" as="sourcePoint" />
            <mxPoint x="358" y="990" as="targetPoint" />
          </mxGeometry>
        </mxCell>
        <mxCell id="Ga9cEaKDpipMAY2dxr2g-36" value="" style="endArrow=none;html=1;rounded=0;fontSize=12;startSize=8;endSize=8;curved=1;" edge="1" parent="1">
          <mxGeometry width="50" height="50" relative="1" as="geometry">
            <mxPoint x="298" y="990" as="sourcePoint" />
            <mxPoint x="298" y="470" as="targetPoint" />
          </mxGeometry>
        </mxCell>
        <mxCell id="Ga9cEaKDpipMAY2dxr2g-37" value="" style="endArrow=classic;html=1;rounded=0;fontSize=12;startSize=8;endSize=8;curved=1;" edge="1" parent="1">
          <mxGeometry width="50" height="50" relative="1" as="geometry">
            <mxPoint x="298" y="470" as="sourcePoint" />
            <mxPoint x="418" y="470" as="targetPoint" />
          </mxGeometry>
        </mxCell>
        <mxCell id="Ga9cEaKDpipMAY2dxr2g-38" value="" style="endArrow=none;html=1;rounded=0;fontSize=12;startSize=8;endSize=8;curved=1;exitX=1;exitY=0.5;exitDx=0;exitDy=0;" edge="1" parent="1" source="Ga9cEaKDpipMAY2dxr2g-6">
          <mxGeometry width="50" height="50" relative="1" as="geometry">
            <mxPoint x="488" y="600" as="sourcePoint" />
            <mxPoint x="578" y="520" as="targetPoint" />
          </mxGeometry>
        </mxCell>
        <mxCell id="Ga9cEaKDpipMAY2dxr2g-39" value="" style="endArrow=none;html=1;rounded=0;fontSize=12;startSize=8;endSize=8;curved=1;" edge="1" parent="1">
          <mxGeometry width="50" height="50" relative="1" as="geometry">
            <mxPoint x="578" y="1050" as="sourcePoint" />
            <mxPoint x="578" y="520" as="targetPoint" />
          </mxGeometry>
        </mxCell>
        <mxCell id="Ga9cEaKDpipMAY2dxr2g-40" value="" style="endArrow=classic;html=1;rounded=0;fontSize=12;startSize=8;endSize=8;curved=1;" edge="1" parent="1">
          <mxGeometry width="50" height="50" relative="1" as="geometry">
            <mxPoint x="578" y="1050" as="sourcePoint" />
            <mxPoint x="418" y="1050" as="targetPoint" />
          </mxGeometry>
        </mxCell>
        <mxCell id="Ga9cEaKDpipMAY2dxr2g-41" value="" style="endArrow=classic;html=1;rounded=0;fontSize=12;startSize=8;endSize=8;curved=1;entryX=0.5;entryY=0;entryDx=0;entryDy=0;" edge="1" parent="1" target="Ga9cEaKDpipMAY2dxr2g-17">
          <mxGeometry width="50" height="50" relative="1" as="geometry">
            <mxPoint x="418" y="1230" as="sourcePoint" />
            <mxPoint x="468" y="1180" as="targetPoint" />
          </mxGeometry>
        </mxCell>
        <mxCell id="Ga9cEaKDpipMAY2dxr2g-42" value="" style="endArrow=classic;html=1;rounded=0;fontSize=12;startSize=8;endSize=8;curved=1;entryX=0.5;entryY=0;entryDx=0;entryDy=0;" edge="1" parent="1" target="Ga9cEaKDpipMAY2dxr2g-16">
          <mxGeometry width="50" height="50" relative="1" as="geometry">
            <mxPoint x="418" y="1130" as="sourcePoint" />
            <mxPoint x="468" y="1080" as="targetPoint" />
          </mxGeometry>
        </mxCell>
        <mxCell id="Ga9cEaKDpipMAY2dxr2g-43" value="" style="endArrow=classic;html=1;rounded=0;fontSize=12;startSize=8;endSize=8;curved=1;entryX=0.5;entryY=0;entryDx=0;entryDy=0;" edge="1" parent="1" target="Ga9cEaKDpipMAY2dxr2g-18">
          <mxGeometry width="50" height="50" relative="1" as="geometry">
            <mxPoint x="418" y="1340" as="sourcePoint" />
            <mxPoint x="468" y="1290" as="targetPoint" />
          </mxGeometry>
        </mxCell>
        <mxCell id="Ga9cEaKDpipMAY2dxr2g-44" value="" style="endArrow=none;html=1;rounded=0;fontSize=12;startSize=8;endSize=8;curved=1;" edge="1" parent="1">
          <mxGeometry width="50" height="50" relative="1" as="geometry">
            <mxPoint x="248" y="1420" as="sourcePoint" />
            <mxPoint x="358" y="1420" as="targetPoint" />
          </mxGeometry>
        </mxCell>
        <mxCell id="Ga9cEaKDpipMAY2dxr2g-45" value="" style="endArrow=none;html=1;rounded=0;fontSize=12;startSize=8;endSize=8;curved=1;" edge="1" parent="1">
          <mxGeometry width="50" height="50" relative="1" as="geometry">
            <mxPoint x="248" y="1420" as="sourcePoint" />
            <mxPoint x="248" y="220" as="targetPoint" />
          </mxGeometry>
        </mxCell>
        <mxCell id="Ga9cEaKDpipMAY2dxr2g-46" value="" style="endArrow=classic;html=1;rounded=0;fontSize=12;startSize=8;endSize=8;curved=1;" edge="1" parent="1">
          <mxGeometry width="50" height="50" relative="1" as="geometry">
            <mxPoint x="248" y="220" as="sourcePoint" />
            <mxPoint x="408" y="220" as="targetPoint" />
          </mxGeometry>
        </mxCell>
        <mxCell id="Ga9cEaKDpipMAY2dxr2g-47" value="F" style="text;html=1;align=center;verticalAlign=middle;whiteSpace=wrap;rounded=0;fontSize=16;" vertex="1" parent="1">
          <mxGeometry x="468" y="490" width="60" height="30" as="geometry" />
        </mxCell>
        <mxCell id="Ga9cEaKDpipMAY2dxr2g-48" value="F" style="text;html=1;align=center;verticalAlign=middle;whiteSpace=wrap;rounded=0;fontSize=16;" vertex="1" parent="1">
          <mxGeometry x="493" y="600" width="60" height="30" as="geometry" />
        </mxCell>
        <mxCell id="Ga9cEaKDpipMAY2dxr2g-49" value="F" style="text;html=1;align=center;verticalAlign=middle;whiteSpace=wrap;rounded=0;fontSize=16;" vertex="1" parent="1">
          <mxGeometry x="501" y="780" width="60" height="30" as="geometry" />
        </mxCell>
        <mxCell id="Ga9cEaKDpipMAY2dxr2g-50" value="" style="endArrow=none;html=1;rounded=0;fontSize=12;startSize=8;endSize=8;curved=1;" edge="1" parent="1">
          <mxGeometry width="50" height="50" relative="1" as="geometry">
            <mxPoint x="458" y="1300" as="sourcePoint" />
            <mxPoint x="508" y="1300" as="targetPoint" />
          </mxGeometry>
        </mxCell>
        <mxCell id="Ga9cEaKDpipMAY2dxr2g-51" value="" style="endArrow=none;html=1;rounded=0;fontSize=12;startSize=8;endSize=8;curved=1;" edge="1" parent="1">
          <mxGeometry width="50" height="50" relative="1" as="geometry">
            <mxPoint x="508" y="1300" as="sourcePoint" />
            <mxPoint x="508" y="1250" as="targetPoint" />
          </mxGeometry>
        </mxCell>
        <mxCell id="Ga9cEaKDpipMAY2dxr2g-52" value="" style="endArrow=classic;html=1;rounded=0;fontSize=12;startSize=8;endSize=8;curved=1;" edge="1" parent="1">
          <mxGeometry width="50" height="50" relative="1" as="geometry">
            <mxPoint x="508" y="1250" as="sourcePoint" />
            <mxPoint x="418" y="1250" as="targetPoint" />
          </mxGeometry>
        </mxCell>
        <mxCell id="Ga9cEaKDpipMAY2dxr2g-53" value="" style="endArrow=classic;html=1;rounded=0;entryX=0.5;entryY=0;entryDx=0;entryDy=0;" edge="1" parent="1" target="Ga9cEaKDpipMAY2dxr2g-14">
          <mxGeometry width="50" height="50" relative="1" as="geometry">
            <mxPoint x="418" y="311" as="sourcePoint" />
            <mxPoint x="468" y="261" as="targetPoint" />
          </mxGeometry>
        </mxCell>
        <mxCell id="Ga9cEaKDpipMAY2dxr2g-54" value="" style="endArrow=classic;html=1;rounded=0;entryX=0.5;entryY=0;entryDx=0;entryDy=0;" edge="1" parent="1" target="Ga9cEaKDpipMAY2dxr2g-5">
          <mxGeometry width="50" height="50" relative="1" as="geometry">
            <mxPoint x="419" y="369" as="sourcePoint" />
            <mxPoint x="469" y="319" as="targetPoint" />
          </mxGeometry>
        </mxCell>
        <mxCell id="Ga9cEaKDpipMAY2dxr2g-55" value="" style="endArrow=classic;html=1;rounded=0;entryX=0.5;entryY=0;entryDx=0;entryDy=0;" edge="1" parent="1" target="Ga9cEaKDpipMAY2dxr2g-6">
          <mxGeometry width="50" height="50" relative="1" as="geometry">
            <mxPoint x="418" y="454" as="sourcePoint" />
            <mxPoint x="468" y="404" as="targetPoint" />
          </mxGeometry>
        </mxCell>
      </root>
    </mxGraphModel>
  </diagram>
  <diagram id="Uws3OB4fom2xIeWHIsd6" name="Datapath">
    <mxGraphModel dx="1633" dy="1915" grid="1" gridSize="10" guides="1" tooltips="1" connect="1" arrows="1" fold="1" page="1" pageScale="1" pageWidth="827" pageHeight="1169" math="0" shadow="0">
      <root>
        <mxCell id="0" />
        <mxCell id="1" parent="0" />
        <mxCell id="RAENhUPGnJxDj11AomGT-1" value="" style="group" vertex="1" connectable="0" parent="1">
          <mxGeometry x="470" y="-574" width="100" height="100" as="geometry" />
        </mxCell>
        <mxCell id="RAENhUPGnJxDj11AomGT-2" value="" style="verticalLabelPosition=bottom;shadow=0;dashed=0;align=center;html=1;verticalAlign=top;shape=stencil(tVXLcoIwFP2abDuRDEWXStuPcBfwKhkhYUKK+vcGQlqjBGOtM2zuOZl7TnIfIJI2Ba0BRZg2NeQKkQ8URS2VjGalhiPNFAacYWxiTiswUC4qAzVKij0c2EYNhxkvQDJl2IOTgHwivNRo95E0F5xrXSZ44zAXvE5OGVeO8tJkrrVIBQqkQQeDxyF6IyY+OSyKvh5RWgUpJf+gtA5Sih2l2bgSSTXie1qSZjTf76T45ptRf7JrhJ+6z7FTxXfXkPVn/Xiu3hvyyJJ0KyRM+NmysjQdNvGoNe1674awdCVa+HVNcHi9bIaScX8G372nTCRPm0ieNxG7KRZ/cBFfu7jT/hr3FEtvo3tlVnDsepOWbMeHJQS8Gxa7h5z90F6cy4RSdl+NF9E3TQ9qr4K0k5dor4O0ryo2X0wM7c1s9qj5a/TAGQ==);" vertex="1" parent="RAENhUPGnJxDj11AomGT-1">
          <mxGeometry width="100" height="100" as="geometry" />
        </mxCell>
        <mxCell id="RAENhUPGnJxDj11AomGT-3" value="&lt;b&gt;Com&lt;/b&gt;&lt;div&gt;&lt;b&gt;&amp;lt;&lt;/b&gt;&lt;/div&gt;" style="text;html=1;align=center;verticalAlign=middle;whiteSpace=wrap;rounded=0;" vertex="1" parent="RAENhUPGnJxDj11AomGT-1">
          <mxGeometry x="20" y="35" width="60" height="30" as="geometry" />
        </mxCell>
        <mxCell id="RAENhUPGnJxDj11AomGT-4" value="" style="group" vertex="1" connectable="0" parent="1">
          <mxGeometry x="369" y="-702" width="100" height="100" as="geometry" />
        </mxCell>
        <object label="" component="" id="RAENhUPGnJxDj11AomGT-5">
          <mxCell style="verticalLabelPosition=bottom;shadow=0;dashed=0;align=center;html=1;verticalAlign=top;shape=stencil(rZbbcsIgEIafJredGJqqlx3Um3Y6Y9sXwLgqYwIZQj28fYkkrURBgs7kht1kvx+yByKEqw0pIUpiUpWQyQhNoiTZEUHJIlfmRHk22jiIY71mpABtwrwoOQMmtaOSgm9hT5ey+YSyDQjaePdGGDSN4ldlrR+EM86YolPOKsNz5lfBCa1JZ/zPr28du1SYAiQIbW+EHozVsVk9Ib2OklkfFn5/C2ClQazpRwBqGISa+JDabRwNb0/SPIA0uE5CWFlsOYPwgmTbteA/bHlVn6jz/C+tR7GRni+moM4pDyxbPwmyYBFecQEOPSua57p0HIdakrqoLhytu+A7sKUGcv6vNkJOGVj37RfCJWJ4vwi/EKaITohnZz1eV4HMEOn9G0m9VLhO8xEiAk4zNUMEiOhEsNVTDxHjR6i40dGU3VJ/an7eqlwJh7rdkJyumeblsPqfmJ1Jtjt7b8Gl5IXZj8z+iG7MFy92O236oYe90Zm6KKi2b8InXuzOD3Nnnjd7HsIejR0j4KLTn6z6inUy/AI=);strokeColor=default;fontFamily=Helvetica;fontSize=12;fontColor=default;fillColor=default;" vertex="1" parent="RAENhUPGnJxDj11AomGT-4">
            <mxGeometry width="100" height="100" as="geometry" />
          </mxCell>
        </object>
        <mxCell id="RAENhUPGnJxDj11AomGT-6" value="&lt;b&gt;cnt_i&lt;/b&gt;" style="text;html=1;align=center;verticalAlign=middle;whiteSpace=wrap;rounded=0;" vertex="1" parent="RAENhUPGnJxDj11AomGT-4">
          <mxGeometry x="20" y="35" width="60" height="30" as="geometry" />
        </mxCell>
        <mxCell id="RAENhUPGnJxDj11AomGT-7" value="" style="group" vertex="1" connectable="0" parent="1">
          <mxGeometry x="555" y="-283" width="100" height="100" as="geometry" />
        </mxCell>
        <object label="" component="" id="RAENhUPGnJxDj11AomGT-8">
          <mxCell style="verticalLabelPosition=bottom;shadow=0;dashed=0;align=center;html=1;verticalAlign=top;shape=stencil(rZbbcsIgEIafJredGJqqlx3Um3Y6Y9sXwLgqYwIZQj28fYkkrURBgs7kht1kvx+yByKEqw0pIUpiUpWQyQhNoiTZEUHJIlfmRHk22jiIY71mpABtwrwoOQMmtaOSgm9hT5ey+YSyDQjaePdGGDSN4ldlrR+EM86YolPOKsNz5lfBCa1JZ/zPr28du1SYAiQIbW+EHozVsVk9Ib2OklkfFn5/C2ClQazpRwBqGISa+JDabRwNb0/SPIA0uE5CWFlsOYPwgmTbteA/bHlVn6jz/C+tR7GRni+moM4pDyxbPwmyYBFecQEOPSua57p0HIdakrqoLhytu+A7sKUGcv6vNkJOGVj37RfCJWJ4vwi/EKaITohnZz1eV4HMEOn9G0m9VLhO8xEiAk4zNUMEiOhEsNVTDxHjR6i40dGU3VJ/an7eqlwJh7rdkJyumeblsPqfmJ1Jtjt7b8Gl5IXZj8z+iG7MFy92O236oYe90Zm6KKi2b8InXuzOD3Nnnjd7HsIejR0j4KLTn6z6inUy/AI=);strokeColor=default;fontFamily=Helvetica;fontSize=12;fontColor=default;fillColor=default;" vertex="1" parent="RAENhUPGnJxDj11AomGT-7">
            <mxGeometry width="100" height="100" as="geometry" />
          </mxCell>
        </object>
        <mxCell id="RAENhUPGnJxDj11AomGT-9" value="&lt;b&gt;Max&lt;/b&gt;" style="text;html=1;align=center;verticalAlign=middle;whiteSpace=wrap;rounded=0;" vertex="1" parent="RAENhUPGnJxDj11AomGT-7">
          <mxGeometry x="20" y="35" width="60" height="30" as="geometry" />
        </mxCell>
        <mxCell id="RAENhUPGnJxDj11AomGT-10" value="" style="group" vertex="1" connectable="0" parent="1">
          <mxGeometry x="840" y="-284" width="100" height="100" as="geometry" />
        </mxCell>
        <object label="" component="" id="RAENhUPGnJxDj11AomGT-11">
          <mxCell style="verticalLabelPosition=bottom;shadow=0;dashed=0;align=center;html=1;verticalAlign=top;shape=stencil(rZbbcsIgEIafJredGJqqlx3Um3Y6Y9sXwLgqYwIZQj28fYkkrURBgs7kht1kvx+yByKEqw0pIUpiUpWQyQhNoiTZEUHJIlfmRHk22jiIY71mpABtwrwoOQMmtaOSgm9hT5ey+YSyDQjaePdGGDSN4ldlrR+EM86YolPOKsNz5lfBCa1JZ/zPr28du1SYAiQIbW+EHozVsVk9Ib2OklkfFn5/C2ClQazpRwBqGISa+JDabRwNb0/SPIA0uE5CWFlsOYPwgmTbteA/bHlVn6jz/C+tR7GRni+moM4pDyxbPwmyYBFecQEOPSua57p0HIdakrqoLhytu+A7sKUGcv6vNkJOGVj37RfCJWJ4vwi/EKaITohnZz1eV4HMEOn9G0m9VLhO8xEiAk4zNUMEiOhEsNVTDxHjR6i40dGU3VJ/an7eqlwJh7rdkJyumeblsPqfmJ1Jtjt7b8Gl5IXZj8z+iG7MFy92O236oYe90Zm6KKi2b8InXuzOD3Nnnjd7HsIejR0j4KLTn6z6inUy/AI=);strokeColor=default;fontFamily=Helvetica;fontSize=12;fontColor=default;fillColor=default;" vertex="1" parent="RAENhUPGnJxDj11AomGT-10">
            <mxGeometry width="100" height="100" as="geometry" />
          </mxCell>
        </object>
        <mxCell id="RAENhUPGnJxDj11AomGT-12" value="&lt;b&gt;Min&lt;/b&gt;" style="text;html=1;align=center;verticalAlign=middle;whiteSpace=wrap;rounded=0;" vertex="1" parent="RAENhUPGnJxDj11AomGT-10">
          <mxGeometry x="20" y="35" width="60" height="30" as="geometry" />
        </mxCell>
        <mxCell id="RAENhUPGnJxDj11AomGT-13" value="" style="endArrow=classic;html=1;rounded=0;exitX=0.5;exitY=0;exitDx=0;exitDy=0;entryX=0.5;entryY=0;entryDx=0;entryDy=0;entryPerimeter=0;" edge="1" parent="1" source="RAENhUPGnJxDj11AomGT-19" target="RAENhUPGnJxDj11AomGT-5">
          <mxGeometry width="50" height="50" relative="1" as="geometry">
            <mxPoint x="423" y="-758" as="sourcePoint" />
            <mxPoint x="428" y="-660" as="targetPoint" />
          </mxGeometry>
        </mxCell>
        <mxCell id="RAENhUPGnJxDj11AomGT-14" value="" style="endArrow=classic;html=1;rounded=0;exitX=0.98;exitY=0.367;exitDx=0;exitDy=0;entryX=0.7;entryY=0;entryDx=0;entryDy=0;entryPerimeter=0;edgeStyle=orthogonalEdgeStyle;exitPerimeter=0;" edge="1" parent="1" source="RAENhUPGnJxDj11AomGT-124" target="RAENhUPGnJxDj11AomGT-2">
          <mxGeometry width="50" height="50" relative="1" as="geometry">
            <mxPoint x="607" y="-655.5" as="sourcePoint" />
            <mxPoint x="355" y="-438" as="targetPoint" />
          </mxGeometry>
        </mxCell>
        <mxCell id="RAENhUPGnJxDj11AomGT-15" value="" style="endArrow=classic;html=1;rounded=0;exitX=0.5;exitY=1;exitDx=0;exitDy=0;exitPerimeter=0;entryX=0.3;entryY=0;entryDx=0;entryDy=0;entryPerimeter=0;edgeStyle=orthogonalEdgeStyle;" edge="1" parent="1" source="RAENhUPGnJxDj11AomGT-5" target="RAENhUPGnJxDj11AomGT-2">
          <mxGeometry width="50" height="50" relative="1" as="geometry">
            <mxPoint x="378" y="-610" as="sourcePoint" />
            <mxPoint x="428" y="-660" as="targetPoint" />
          </mxGeometry>
        </mxCell>
        <mxCell id="RAENhUPGnJxDj11AomGT-16" value="i_lt" style="rounded=0;whiteSpace=wrap;html=1;fillColor=#fff2cc;strokeColor=#d6b656;" vertex="1" parent="1">
          <mxGeometry x="418" y="-512" width="54" height="24" as="geometry" />
        </mxCell>
        <mxCell id="RAENhUPGnJxDj11AomGT-17" value="" style="rounded=0;orthogonalLoop=1;jettySize=auto;html=1;exitX=0.5;exitY=1;exitDx=0;exitDy=0;exitPerimeter=0;" edge="1" parent="1" source="RAENhUPGnJxDj11AomGT-2" target="RAENhUPGnJxDj11AomGT-16">
          <mxGeometry relative="1" as="geometry">
            <Array as="points">
              <mxPoint x="439" y="-474" />
            </Array>
          </mxGeometry>
        </mxCell>
        <mxCell id="RAENhUPGnJxDj11AomGT-18" value="" style="group" vertex="1" connectable="0" parent="1">
          <mxGeometry x="359" y="-793" width="120" height="41.00000000000001" as="geometry" />
        </mxCell>
        <mxCell id="RAENhUPGnJxDj11AomGT-19" value="" style="shape=trapezoid;perimeter=trapezoidPerimeter;whiteSpace=wrap;html=1;fixedSize=1;rotation=-180;" vertex="1" parent="RAENhUPGnJxDj11AomGT-18">
          <mxGeometry y="7.105427357601002e-15" width="120" height="41" as="geometry" />
        </mxCell>
        <mxCell id="RAENhUPGnJxDj11AomGT-20" value="&lt;b&gt;mux_i&lt;/b&gt;" style="text;html=1;align=center;verticalAlign=middle;whiteSpace=wrap;rounded=0;" vertex="1" parent="RAENhUPGnJxDj11AomGT-18">
          <mxGeometry x="30" y="5.500000000000007" width="60" height="30" as="geometry" />
        </mxCell>
        <mxCell id="RAENhUPGnJxDj11AomGT-21" value="1" style="text;html=1;align=center;verticalAlign=middle;whiteSpace=wrap;rounded=0;" vertex="1" parent="RAENhUPGnJxDj11AomGT-18">
          <mxGeometry x="60" y="-6" width="60" height="30" as="geometry" />
        </mxCell>
        <mxCell id="RAENhUPGnJxDj11AomGT-22" value="&lt;b&gt;sel_i&lt;/b&gt;" style="rounded=0;whiteSpace=wrap;html=1;fillColor=#dae8fc;strokeColor=#6c8ebf;" vertex="1" parent="1">
          <mxGeometry x="221" y="-783" width="59" height="21" as="geometry" />
        </mxCell>
        <mxCell id="RAENhUPGnJxDj11AomGT-23" value="" style="endArrow=classic;html=1;rounded=0;exitX=1;exitY=0.5;exitDx=0;exitDy=0;entryX=1;entryY=0.5;entryDx=0;entryDy=0;" edge="1" parent="1" source="RAENhUPGnJxDj11AomGT-22" target="RAENhUPGnJxDj11AomGT-19">
          <mxGeometry width="50" height="50" relative="1" as="geometry">
            <mxPoint x="478" y="-725" as="sourcePoint" />
            <mxPoint x="528" y="-775" as="targetPoint" />
          </mxGeometry>
        </mxCell>
        <mxCell id="RAENhUPGnJxDj11AomGT-24" value="0" style="whiteSpace=wrap;html=1;aspect=fixed;" vertex="1" parent="1">
          <mxGeometry x="373" y="-869" width="32" height="32" as="geometry" />
        </mxCell>
        <mxCell id="RAENhUPGnJxDj11AomGT-25" value="" style="endArrow=classic;html=1;rounded=0;exitX=0.5;exitY=1;exitDx=0;exitDy=0;entryX=0.75;entryY=1;entryDx=0;entryDy=0;" edge="1" parent="1" source="RAENhUPGnJxDj11AomGT-24" target="RAENhUPGnJxDj11AomGT-19">
          <mxGeometry width="50" height="50" relative="1" as="geometry">
            <mxPoint x="478" y="-725" as="sourcePoint" />
            <mxPoint x="528" y="-775" as="targetPoint" />
          </mxGeometry>
        </mxCell>
        <mxCell id="RAENhUPGnJxDj11AomGT-26" value="" style="endArrow=classic;html=1;rounded=0;exitX=0.3;exitY=0;exitDx=0;exitDy=0;exitPerimeter=0;entryX=0.5;entryY=1;entryDx=0;entryDy=0;edgeStyle=orthogonalEdgeStyle;" edge="1" parent="1" source="RAENhUPGnJxDj11AomGT-2" target="RAENhUPGnJxDj11AomGT-27">
          <mxGeometry width="50" height="50" relative="1" as="geometry">
            <mxPoint x="478" y="-725" as="sourcePoint" />
            <mxPoint x="503" y="-827" as="targetPoint" />
          </mxGeometry>
        </mxCell>
        <mxCell id="RAENhUPGnJxDj11AomGT-27" value="+1" style="whiteSpace=wrap;html=1;aspect=fixed;" vertex="1" parent="1">
          <mxGeometry x="484" y="-863" width="32" height="32" as="geometry" />
        </mxCell>
        <mxCell id="RAENhUPGnJxDj11AomGT-28" value="" style="endArrow=classic;html=1;rounded=0;exitX=0;exitY=0.438;exitDx=0;exitDy=0;entryX=0.25;entryY=1;entryDx=0;entryDy=0;exitPerimeter=0;edgeStyle=orthogonalEdgeStyle;" edge="1" parent="1" source="RAENhUPGnJxDj11AomGT-27" target="RAENhUPGnJxDj11AomGT-19">
          <mxGeometry width="50" height="50" relative="1" as="geometry">
            <mxPoint x="482" y="-857.0000000000002" as="sourcePoint" />
            <mxPoint x="443" y="-799" as="targetPoint" />
          </mxGeometry>
        </mxCell>
        <mxCell id="RAENhUPGnJxDj11AomGT-29" value="&lt;b&gt;&lt;font style=&quot;font-size: 14px;&quot;&gt;MemIn(Size)&lt;/font&gt;&lt;/b&gt;" style="rounded=0;whiteSpace=wrap;html=1;" vertex="1" parent="1">
          <mxGeometry x="160" y="-498" width="120" height="180" as="geometry" />
        </mxCell>
        <mxCell id="RAENhUPGnJxDj11AomGT-30" value="" style="triangle;whiteSpace=wrap;html=1;" vertex="1" parent="1">
          <mxGeometry x="160" y="-443" width="10" height="20" as="geometry" />
        </mxCell>
        <mxCell id="RAENhUPGnJxDj11AomGT-31" value="CLK" style="text;html=1;strokeColor=none;fillColor=none;align=center;verticalAlign=middle;whiteSpace=wrap;rounded=0;fontSize=14;" vertex="1" parent="1">
          <mxGeometry x="60" y="-448" width="60" height="30" as="geometry" />
        </mxCell>
        <mxCell id="RAENhUPGnJxDj11AomGT-32" value="RST" style="text;html=1;align=center;verticalAlign=middle;resizable=0;points=[];autosize=1;strokeColor=none;fillColor=none;fontSize=14;" vertex="1" parent="1">
          <mxGeometry x="195" y="-348" width="50" height="30" as="geometry" />
        </mxCell>
        <mxCell id="RAENhUPGnJxDj11AomGT-33" value="mi_r_en" style="rounded=0;whiteSpace=wrap;html=1;fontSize=14;fillColor=#dae8fc;strokeColor=#6c8ebf;" vertex="1" parent="1">
          <mxGeometry x="30" y="-393" width="70" height="20" as="geometry" />
        </mxCell>
        <mxCell id="RAENhUPGnJxDj11AomGT-34" value="Din" style="text;html=1;strokeColor=none;fillColor=none;align=center;verticalAlign=middle;whiteSpace=wrap;rounded=0;fontSize=14;" vertex="1" parent="1">
          <mxGeometry x="150" y="-483" width="60" height="30" as="geometry" />
        </mxCell>
        <mxCell id="RAENhUPGnJxDj11AomGT-35" value="RE" style="text;html=1;align=center;verticalAlign=middle;resizable=0;points=[];autosize=1;strokeColor=none;fillColor=none;fontSize=14;" vertex="1" parent="1">
          <mxGeometry x="155" y="-398" width="40" height="30" as="geometry" />
        </mxCell>
        <mxCell id="RAENhUPGnJxDj11AomGT-36" value="WE" style="text;html=1;align=center;verticalAlign=middle;resizable=0;points=[];autosize=1;strokeColor=none;fillColor=none;fontSize=14;" vertex="1" parent="1">
          <mxGeometry x="150" y="-353" width="50" height="30" as="geometry" />
        </mxCell>
        <mxCell id="RAENhUPGnJxDj11AomGT-37" value="Dout" style="text;html=1;align=center;verticalAlign=middle;resizable=0;points=[];autosize=1;strokeColor=none;fillColor=none;fontSize=14;" vertex="1" parent="1">
          <mxGeometry x="230" y="-473" width="50" height="30" as="geometry" />
        </mxCell>
        <mxCell id="RAENhUPGnJxDj11AomGT-38" value="" style="endArrow=none;html=1;rounded=0;fontSize=14;" edge="1" parent="1">
          <mxGeometry width="50" height="50" relative="1" as="geometry">
            <mxPoint x="110" y="-433" as="sourcePoint" />
            <mxPoint x="160" y="-433" as="targetPoint" />
          </mxGeometry>
        </mxCell>
        <mxCell id="RAENhUPGnJxDj11AomGT-39" value="" style="edgeStyle=orthogonalEdgeStyle;rounded=0;orthogonalLoop=1;jettySize=auto;html=1;fontSize=14;" edge="1" parent="1" source="RAENhUPGnJxDj11AomGT-33">
          <mxGeometry relative="1" as="geometry">
            <mxPoint x="160" y="-383" as="targetPoint" />
          </mxGeometry>
        </mxCell>
        <mxCell id="RAENhUPGnJxDj11AomGT-40" value="" style="endArrow=none;html=1;rounded=0;fontSize=14;exitX=0.5;exitY=1;exitDx=0;exitDy=0;" edge="1" parent="1" source="RAENhUPGnJxDj11AomGT-29">
          <mxGeometry width="50" height="50" relative="1" as="geometry">
            <mxPoint x="220" y="-313" as="sourcePoint" />
            <mxPoint x="220" y="-273" as="targetPoint" />
          </mxGeometry>
        </mxCell>
        <mxCell id="RAENhUPGnJxDj11AomGT-41" value="reset" style="text;html=1;align=center;verticalAlign=middle;resizable=0;points=[];autosize=1;strokeColor=none;fillColor=none;fontSize=14;" vertex="1" parent="1">
          <mxGeometry x="190" y="-283" width="50" height="30" as="geometry" />
        </mxCell>
        <mxCell id="RAENhUPGnJxDj11AomGT-42" style="edgeStyle=orthogonalEdgeStyle;rounded=0;orthogonalLoop=1;jettySize=auto;html=1;entryX=0;entryY=0.139;entryDx=0;entryDy=0;entryPerimeter=0;fontSize=14;" edge="1" parent="1" source="RAENhUPGnJxDj11AomGT-43" target="RAENhUPGnJxDj11AomGT-29">
          <mxGeometry relative="1" as="geometry" />
        </mxCell>
        <mxCell id="RAENhUPGnJxDj11AomGT-43" value="in_data" style="rounded=0;whiteSpace=wrap;html=1;fontSize=14;fillColor=#d5e8d4;strokeColor=#82b366;" vertex="1" parent="1">
          <mxGeometry x="40" y="-483" width="60" height="20" as="geometry" />
        </mxCell>
        <mxCell id="RAENhUPGnJxDj11AomGT-44" value="mi_w_en" style="rounded=0;whiteSpace=wrap;html=1;fontSize=14;fillColor=#dae8fc;strokeColor=#6c8ebf;" vertex="1" parent="1">
          <mxGeometry x="30" y="-348" width="70" height="20" as="geometry" />
        </mxCell>
        <mxCell id="RAENhUPGnJxDj11AomGT-45" style="edgeStyle=orthogonalEdgeStyle;rounded=0;orthogonalLoop=1;jettySize=auto;html=1;fontSize=14;" edge="1" parent="1" source="RAENhUPGnJxDj11AomGT-44">
          <mxGeometry relative="1" as="geometry">
            <mxPoint x="160" y="-338" as="targetPoint" />
          </mxGeometry>
        </mxCell>
        <mxCell id="RAENhUPGnJxDj11AomGT-46" value="ADDR" style="text;html=1;align=center;verticalAlign=middle;resizable=0;points=[];autosize=1;strokeColor=none;fillColor=none;fontSize=14;" vertex="1" parent="1">
          <mxGeometry x="190" y="-503" width="60" height="30" as="geometry" />
        </mxCell>
        <mxCell id="RAENhUPGnJxDj11AomGT-47" value="" style="endArrow=classic;html=1;rounded=0;exitX=0.5;exitY=1;exitDx=0;exitDy=0;exitPerimeter=0;entryX=0.541;entryY=-0.109;entryDx=0;entryDy=0;entryPerimeter=0;edgeStyle=orthogonalEdgeStyle;" edge="1" parent="1" source="RAENhUPGnJxDj11AomGT-5" target="RAENhUPGnJxDj11AomGT-46">
          <mxGeometry width="50" height="50" relative="1" as="geometry">
            <mxPoint x="381.8800000000001" y="-628" as="sourcePoint" />
            <mxPoint x="173.9999999999999" y="-527.53" as="targetPoint" />
          </mxGeometry>
        </mxCell>
        <mxCell id="RAENhUPGnJxDj11AomGT-48" value="" style="group" vertex="1" connectable="0" parent="1">
          <mxGeometry x="545" y="-382" width="120" height="41.00000000000001" as="geometry" />
        </mxCell>
        <mxCell id="RAENhUPGnJxDj11AomGT-49" value="" style="shape=trapezoid;perimeter=trapezoidPerimeter;whiteSpace=wrap;html=1;fixedSize=1;rotation=-180;" vertex="1" parent="RAENhUPGnJxDj11AomGT-48">
          <mxGeometry y="7.105427357601002e-15" width="120" height="41" as="geometry" />
        </mxCell>
        <mxCell id="RAENhUPGnJxDj11AomGT-50" value="&lt;b&gt;mux_max&lt;/b&gt;" style="text;html=1;align=center;verticalAlign=middle;whiteSpace=wrap;rounded=0;" vertex="1" parent="RAENhUPGnJxDj11AomGT-48">
          <mxGeometry x="30" y="5.500000000000007" width="60" height="30" as="geometry" />
        </mxCell>
        <mxCell id="RAENhUPGnJxDj11AomGT-51" value="0" style="text;html=1;align=center;verticalAlign=middle;whiteSpace=wrap;rounded=0;" vertex="1" parent="RAENhUPGnJxDj11AomGT-48">
          <mxGeometry x="4" y="-5" width="60" height="30" as="geometry" />
        </mxCell>
        <mxCell id="RAENhUPGnJxDj11AomGT-52" value="1" style="text;html=1;align=center;verticalAlign=middle;whiteSpace=wrap;rounded=0;" vertex="1" parent="RAENhUPGnJxDj11AomGT-48">
          <mxGeometry x="57" y="-5" width="60" height="30" as="geometry" />
        </mxCell>
        <mxCell id="RAENhUPGnJxDj11AomGT-53" value="" style="group" vertex="1" connectable="0" parent="1">
          <mxGeometry x="830" y="-385" width="127" height="41.00000000000001" as="geometry" />
        </mxCell>
        <mxCell id="RAENhUPGnJxDj11AomGT-54" value="" style="shape=trapezoid;perimeter=trapezoidPerimeter;whiteSpace=wrap;html=1;fixedSize=1;rotation=-180;" vertex="1" parent="RAENhUPGnJxDj11AomGT-53">
          <mxGeometry y="7.105427357601002e-15" width="120" height="41" as="geometry" />
        </mxCell>
        <mxCell id="RAENhUPGnJxDj11AomGT-55" value="&lt;b&gt;mux_min&lt;/b&gt;" style="text;html=1;align=center;verticalAlign=middle;whiteSpace=wrap;rounded=0;" vertex="1" parent="RAENhUPGnJxDj11AomGT-53">
          <mxGeometry x="30" y="5.500000000000007" width="60" height="30" as="geometry" />
        </mxCell>
        <mxCell id="RAENhUPGnJxDj11AomGT-56" value="1" style="text;html=1;align=center;verticalAlign=middle;whiteSpace=wrap;rounded=0;" vertex="1" parent="RAENhUPGnJxDj11AomGT-53">
          <mxGeometry x="60" y="-2" width="60" height="30" as="geometry" />
        </mxCell>
        <mxCell id="RAENhUPGnJxDj11AomGT-57" value="&lt;b&gt;ld_min&lt;/b&gt;" style="rounded=0;whiteSpace=wrap;html=1;fillColor=#dae8fc;strokeColor=#6c8ebf;" vertex="1" parent="1">
          <mxGeometry x="781" y="-224" width="59" height="21" as="geometry" />
        </mxCell>
        <mxCell id="RAENhUPGnJxDj11AomGT-58" value="&lt;b&gt;sel_max&lt;/b&gt;" style="rounded=0;whiteSpace=wrap;html=1;fillColor=#dae8fc;strokeColor=#6c8ebf;" vertex="1" parent="1">
          <mxGeometry x="437" y="-372" width="59" height="21" as="geometry" />
        </mxCell>
        <mxCell id="RAENhUPGnJxDj11AomGT-59" value="" style="endArrow=classic;html=1;rounded=0;exitX=1;exitY=0.5;exitDx=0;exitDy=0;entryX=1;entryY=0.5;entryDx=0;entryDy=0;" edge="1" parent="1" source="RAENhUPGnJxDj11AomGT-58" target="RAENhUPGnJxDj11AomGT-49">
          <mxGeometry width="50" height="50" relative="1" as="geometry">
            <mxPoint x="434" y="-468" as="sourcePoint" />
            <mxPoint x="484" y="-518" as="targetPoint" />
          </mxGeometry>
        </mxCell>
        <mxCell id="RAENhUPGnJxDj11AomGT-60" value="" style="endArrow=classic;html=1;rounded=0;exitX=0.5;exitY=0;exitDx=0;exitDy=0;entryX=0.5;entryY=0;entryDx=0;entryDy=0;entryPerimeter=0;" edge="1" parent="1" source="RAENhUPGnJxDj11AomGT-49" target="RAENhUPGnJxDj11AomGT-8">
          <mxGeometry width="50" height="50" relative="1" as="geometry">
            <mxPoint x="628" y="-339" as="sourcePoint" />
            <mxPoint x="678" y="-389" as="targetPoint" />
          </mxGeometry>
        </mxCell>
        <mxCell id="RAENhUPGnJxDj11AomGT-61" value="" style="endArrow=classic;html=1;rounded=0;exitX=0.5;exitY=0;exitDx=0;exitDy=0;entryX=0.5;entryY=0;entryDx=0;entryDy=0;entryPerimeter=0;" edge="1" parent="1" source="RAENhUPGnJxDj11AomGT-54" target="RAENhUPGnJxDj11AomGT-11">
          <mxGeometry width="50" height="50" relative="1" as="geometry">
            <mxPoint x="623" y="-340" as="sourcePoint" />
            <mxPoint x="673" y="-390" as="targetPoint" />
          </mxGeometry>
        </mxCell>
        <mxCell id="RAENhUPGnJxDj11AomGT-62" value="" style="group" vertex="1" connectable="0" parent="1">
          <mxGeometry x="682" y="-151" width="100" height="100" as="geometry" />
        </mxCell>
        <mxCell id="RAENhUPGnJxDj11AomGT-63" value="" style="verticalLabelPosition=bottom;shadow=0;dashed=0;align=center;html=1;verticalAlign=top;shape=stencil(tVXLcoIwFP2abDuRDEWXStuPcBfwKhkhYUKK+vcGQlqjBGOtM2zuOZl7TnIfIJI2Ba0BRZg2NeQKkQ8URS2VjGalhiPNFAacYWxiTiswUC4qAzVKij0c2EYNhxkvQDJl2IOTgHwivNRo95E0F5xrXSZ44zAXvE5OGVeO8tJkrrVIBQqkQQeDxyF6IyY+OSyKvh5RWgUpJf+gtA5Sih2l2bgSSTXie1qSZjTf76T45ptRf7JrhJ+6z7FTxXfXkPVn/Xiu3hvyyJJ0KyRM+NmysjQdNvGoNe1674awdCVa+HVNcHi9bIaScX8G372nTCRPm0ieNxG7KRZ/cBFfu7jT/hr3FEtvo3tlVnDsepOWbMeHJQS8Gxa7h5z90F6cy4RSdl+NF9E3TQ9qr4K0k5dor4O0ryo2X0wM7c1s9qj5a/TAGQ==);" vertex="1" parent="RAENhUPGnJxDj11AomGT-62">
          <mxGeometry width="100" height="100" as="geometry" />
        </mxCell>
        <mxCell id="RAENhUPGnJxDj11AomGT-64" value="&lt;b&gt;Com&lt;/b&gt;&lt;div&gt;&lt;b&gt;&amp;lt;&lt;/b&gt;&lt;/div&gt;" style="text;html=1;align=center;verticalAlign=middle;whiteSpace=wrap;rounded=0;" vertex="1" parent="RAENhUPGnJxDj11AomGT-62">
          <mxGeometry x="20" y="35" width="60" height="30" as="geometry" />
        </mxCell>
        <mxCell id="RAENhUPGnJxDj11AomGT-65" value="" style="group" vertex="1" connectable="0" parent="1">
          <mxGeometry x="343" y="-151" width="100" height="100" as="geometry" />
        </mxCell>
        <mxCell id="RAENhUPGnJxDj11AomGT-66" value="" style="verticalLabelPosition=bottom;shadow=0;dashed=0;align=center;html=1;verticalAlign=top;shape=stencil(tVXLcoIwFP2abDuRDEWXStuPcBfwKhkhYUKK+vcGQlqjBGOtM2zuOZl7TnIfIJI2Ba0BRZg2NeQKkQ8URS2VjGalhiPNFAacYWxiTiswUC4qAzVKij0c2EYNhxkvQDJl2IOTgHwivNRo95E0F5xrXSZ44zAXvE5OGVeO8tJkrrVIBQqkQQeDxyF6IyY+OSyKvh5RWgUpJf+gtA5Sih2l2bgSSTXie1qSZjTf76T45ptRf7JrhJ+6z7FTxXfXkPVn/Xiu3hvyyJJ0KyRM+NmysjQdNvGoNe1674awdCVa+HVNcHi9bIaScX8G372nTCRPm0ieNxG7KRZ/cBFfu7jT/hr3FEtvo3tlVnDsepOWbMeHJQS8Gxa7h5z90F6cy4RSdl+NF9E3TQ9qr4K0k5dor4O0ryo2X0wM7c1s9qj5a/TAGQ==);" vertex="1" parent="RAENhUPGnJxDj11AomGT-65">
          <mxGeometry width="100" height="100" as="geometry" />
        </mxCell>
        <mxCell id="RAENhUPGnJxDj11AomGT-67" value="&lt;b&gt;Com&lt;/b&gt;&lt;div&gt;&lt;b&gt;&amp;gt;&lt;/b&gt;&lt;/div&gt;" style="text;html=1;align=center;verticalAlign=middle;whiteSpace=wrap;rounded=0;" vertex="1" parent="RAENhUPGnJxDj11AomGT-65">
          <mxGeometry x="20" y="35" width="60" height="30" as="geometry" />
        </mxCell>
        <mxCell id="RAENhUPGnJxDj11AomGT-68" value="" style="endArrow=classic;html=1;rounded=0;exitX=0.5;exitY=1;exitDx=0;exitDy=0;exitPerimeter=0;entryX=0.7;entryY=0;entryDx=0;entryDy=0;entryPerimeter=0;edgeStyle=orthogonalEdgeStyle;" edge="1" parent="1" source="RAENhUPGnJxDj11AomGT-8" target="RAENhUPGnJxDj11AomGT-66">
          <mxGeometry width="50" height="50" relative="1" as="geometry">
            <mxPoint x="588" y="-179" as="sourcePoint" />
            <mxPoint x="542" y="-177" as="targetPoint" />
          </mxGeometry>
        </mxCell>
        <mxCell id="RAENhUPGnJxDj11AomGT-69" value="" style="endArrow=classic;html=1;rounded=0;exitX=1.04;exitY=0.433;exitDx=0;exitDy=0;exitPerimeter=0;entryX=0.3;entryY=0;entryDx=0;entryDy=0;entryPerimeter=0;edgeStyle=orthogonalEdgeStyle;" edge="1" parent="1" source="RAENhUPGnJxDj11AomGT-37" target="RAENhUPGnJxDj11AomGT-63">
          <mxGeometry width="50" height="50" relative="1" as="geometry">
            <mxPoint x="509" y="-296" as="sourcePoint" />
            <mxPoint x="559" y="-346" as="targetPoint" />
          </mxGeometry>
        </mxCell>
        <mxCell id="RAENhUPGnJxDj11AomGT-70" value="min_mt" style="rounded=0;whiteSpace=wrap;html=1;fillColor=#fff2cc;strokeColor=#d6b656;" vertex="1" parent="1">
          <mxGeometry x="702" y="-37" width="54" height="24" as="geometry" />
        </mxCell>
        <mxCell id="RAENhUPGnJxDj11AomGT-71" value="max_lt" style="rounded=0;whiteSpace=wrap;html=1;fillColor=#fff2cc;strokeColor=#d6b656;" vertex="1" parent="1">
          <mxGeometry x="367" y="-23" width="54" height="24" as="geometry" />
        </mxCell>
        <mxCell id="RAENhUPGnJxDj11AomGT-72" value="" style="endArrow=classic;html=1;rounded=0;exitX=0.5;exitY=1;exitDx=0;exitDy=0;exitPerimeter=0;entryX=0.5;entryY=0;entryDx=0;entryDy=0;" edge="1" parent="1" source="RAENhUPGnJxDj11AomGT-66" target="RAENhUPGnJxDj11AomGT-71">
          <mxGeometry width="50" height="50" relative="1" as="geometry">
            <mxPoint x="509" y="-170" as="sourcePoint" />
            <mxPoint x="559" y="-220" as="targetPoint" />
          </mxGeometry>
        </mxCell>
        <mxCell id="RAENhUPGnJxDj11AomGT-73" value="" style="endArrow=classic;html=1;rounded=0;exitX=0.5;exitY=1;exitDx=0;exitDy=0;exitPerimeter=0;" edge="1" parent="1" source="RAENhUPGnJxDj11AomGT-63">
          <mxGeometry width="50" height="50" relative="1" as="geometry">
            <mxPoint x="715" y="-42" as="sourcePoint" />
            <mxPoint x="733.1428571428569" y="-35" as="targetPoint" />
          </mxGeometry>
        </mxCell>
        <mxCell id="RAENhUPGnJxDj11AomGT-74" value="" style="group" vertex="1" connectable="0" parent="1">
          <mxGeometry x="756" y="54" width="100" height="100" as="geometry" />
        </mxCell>
        <mxCell id="RAENhUPGnJxDj11AomGT-75" value="" style="verticalLabelPosition=bottom;shadow=0;dashed=0;align=center;html=1;verticalAlign=top;shape=stencil(tVXLcoIwFP2abDuRDEWXStuPcBfwKhkhYUKK+vcGQlqjBGOtM2zuOZl7TnIfIJI2Ba0BRZg2NeQKkQ8URS2VjGalhiPNFAacYWxiTiswUC4qAzVKij0c2EYNhxkvQDJl2IOTgHwivNRo95E0F5xrXSZ44zAXvE5OGVeO8tJkrrVIBQqkQQeDxyF6IyY+OSyKvh5RWgUpJf+gtA5Sih2l2bgSSTXie1qSZjTf76T45ptRf7JrhJ+6z7FTxXfXkPVn/Xiu3hvyyJJ0KyRM+NmysjQdNvGoNe1674awdCVa+HVNcHi9bIaScX8G372nTCRPm0ieNxG7KRZ/cBFfu7jT/hr3FEtvo3tlVnDsepOWbMeHJQS8Gxa7h5z90F6cy4RSdl+NF9E3TQ9qr4K0k5dor4O0ryo2X0wM7c1s9qj5a/TAGQ==);" vertex="1" parent="RAENhUPGnJxDj11AomGT-74">
          <mxGeometry width="100" height="100" as="geometry" />
        </mxCell>
        <mxCell id="RAENhUPGnJxDj11AomGT-76" value="&lt;b&gt;Sub&lt;/b&gt;" style="text;html=1;align=center;verticalAlign=middle;whiteSpace=wrap;rounded=0;" vertex="1" parent="RAENhUPGnJxDj11AomGT-74">
          <mxGeometry x="20" y="35" width="60" height="30" as="geometry" />
        </mxCell>
        <mxCell id="RAENhUPGnJxDj11AomGT-77" value="" style="endArrow=classic;html=1;rounded=0;exitX=0.5;exitY=1;exitDx=0;exitDy=0;exitPerimeter=0;entryX=0.3;entryY=0;entryDx=0;entryDy=0;entryPerimeter=0;edgeStyle=orthogonalEdgeStyle;" edge="1" parent="1" source="RAENhUPGnJxDj11AomGT-8" target="RAENhUPGnJxDj11AomGT-75">
          <mxGeometry width="50" height="50" relative="1" as="geometry">
            <mxPoint x="578" y="-96" as="sourcePoint" />
            <mxPoint x="628" y="-146" as="targetPoint" />
            <Array as="points">
              <mxPoint x="605" y="17" />
              <mxPoint x="786" y="17" />
            </Array>
          </mxGeometry>
        </mxCell>
        <mxCell id="RAENhUPGnJxDj11AomGT-78" value="" style="endArrow=classic;html=1;rounded=0;exitX=0.5;exitY=1;exitDx=0;exitDy=0;exitPerimeter=0;entryX=0.7;entryY=0;entryDx=0;entryDy=0;entryPerimeter=0;edgeStyle=orthogonalEdgeStyle;" edge="1" parent="1" source="RAENhUPGnJxDj11AomGT-11" target="RAENhUPGnJxDj11AomGT-75">
          <mxGeometry width="50" height="50" relative="1" as="geometry">
            <mxPoint x="615" y="-173" as="sourcePoint" />
            <mxPoint x="796" y="64" as="targetPoint" />
            <Array as="points">
              <mxPoint x="890" y="18" />
              <mxPoint x="826" y="18" />
            </Array>
          </mxGeometry>
        </mxCell>
        <mxCell id="RAENhUPGnJxDj11AomGT-79" value="&lt;b&gt;ld_max&lt;/b&gt;" style="rounded=0;whiteSpace=wrap;html=1;fillColor=#dae8fc;strokeColor=#6c8ebf;" vertex="1" parent="1">
          <mxGeometry x="496" y="-224" width="59" height="21" as="geometry" />
        </mxCell>
        <mxCell id="RAENhUPGnJxDj11AomGT-80" value="" style="endArrow=classic;html=1;rounded=0;exitX=1;exitY=0.5;exitDx=0;exitDy=0;entryX=1;entryY=0.5;entryDx=0;entryDy=0;" edge="1" parent="1" source="RAENhUPGnJxDj11AomGT-114">
          <mxGeometry width="50" height="50" relative="1" as="geometry">
            <mxPoint x="719" y="-468" as="sourcePoint" />
            <mxPoint x="840" y="-361" as="targetPoint" />
          </mxGeometry>
        </mxCell>
        <mxCell id="RAENhUPGnJxDj11AomGT-81" value="CLK" style="text;html=1;strokeColor=none;fillColor=none;align=center;verticalAlign=middle;whiteSpace=wrap;rounded=0;fontSize=14;" vertex="1" parent="1">
          <mxGeometry x="789" y="-248" width="60" height="30" as="geometry" />
        </mxCell>
        <mxCell id="RAENhUPGnJxDj11AomGT-82" value="CLK" style="text;html=1;strokeColor=none;fillColor=none;align=center;verticalAlign=middle;whiteSpace=wrap;rounded=0;fontSize=14;" vertex="1" parent="1">
          <mxGeometry x="506" y="-248" width="60" height="30" as="geometry" />
        </mxCell>
        <mxCell id="RAENhUPGnJxDj11AomGT-83" value="CLK" style="text;html=1;strokeColor=none;fillColor=none;align=center;verticalAlign=middle;whiteSpace=wrap;rounded=0;fontSize=14;" vertex="1" parent="1">
          <mxGeometry x="321" y="-667" width="60" height="30" as="geometry" />
        </mxCell>
        <mxCell id="RAENhUPGnJxDj11AomGT-84" value="reset" style="text;html=1;align=center;verticalAlign=middle;resizable=0;points=[];autosize=1;strokeColor=none;fillColor=none;fontSize=14;" vertex="1" parent="1">
          <mxGeometry x="516" y="-268" width="50" height="30" as="geometry" />
        </mxCell>
        <mxCell id="RAENhUPGnJxDj11AomGT-85" value="reset" style="text;html=1;align=center;verticalAlign=middle;resizable=0;points=[];autosize=1;strokeColor=none;fillColor=none;fontSize=14;" vertex="1" parent="1">
          <mxGeometry x="799" y="-268" width="50" height="30" as="geometry" />
        </mxCell>
        <mxCell id="RAENhUPGnJxDj11AomGT-86" value="reset" style="text;html=1;align=center;verticalAlign=middle;resizable=0;points=[];autosize=1;strokeColor=none;fillColor=none;fontSize=14;" vertex="1" parent="1">
          <mxGeometry x="326" y="-688" width="50" height="30" as="geometry" />
        </mxCell>
        <mxCell id="RAENhUPGnJxDj11AomGT-87" value="&lt;b&gt;ld_i&lt;/b&gt;" style="rounded=0;whiteSpace=wrap;html=1;fillColor=#dae8fc;strokeColor=#6c8ebf;" vertex="1" parent="1">
          <mxGeometry x="310" y="-641" width="59" height="21" as="geometry" />
        </mxCell>
        <mxCell id="RAENhUPGnJxDj11AomGT-88" value="0" style="text;html=1;align=center;verticalAlign=middle;whiteSpace=wrap;rounded=0;" vertex="1" parent="1">
          <mxGeometry x="359" y="-799" width="60" height="30" as="geometry" />
        </mxCell>
        <mxCell id="RAENhUPGnJxDj11AomGT-89" value="0" style="text;html=1;align=center;verticalAlign=middle;whiteSpace=wrap;rounded=0;" vertex="1" parent="1">
          <mxGeometry x="832" y="-393" width="60" height="30" as="geometry" />
        </mxCell>
        <mxCell id="RAENhUPGnJxDj11AomGT-90" value="" style="group" connectable="0" vertex="1" parent="1">
          <mxGeometry x="911" y="146" width="240" height="180" as="geometry" />
        </mxCell>
        <mxCell id="RAENhUPGnJxDj11AomGT-91" value="&lt;b&gt;&lt;font style=&quot;font-size: 14px;&quot;&gt;MemOut(1)&lt;/font&gt;&lt;/b&gt;" style="rounded=0;whiteSpace=wrap;html=1;" vertex="1" parent="RAENhUPGnJxDj11AomGT-90">
          <mxGeometry x="80" width="120" height="180" as="geometry" />
        </mxCell>
        <mxCell id="RAENhUPGnJxDj11AomGT-92" value="" style="triangle;whiteSpace=wrap;html=1;" vertex="1" parent="RAENhUPGnJxDj11AomGT-90">
          <mxGeometry x="80" y="55" width="10" height="20" as="geometry" />
        </mxCell>
        <mxCell id="RAENhUPGnJxDj11AomGT-93" value="CLK" style="text;html=1;strokeColor=none;fillColor=none;align=center;verticalAlign=middle;whiteSpace=wrap;rounded=0;fontSize=14;" vertex="1" parent="RAENhUPGnJxDj11AomGT-90">
          <mxGeometry x="-20" y="50" width="60" height="30" as="geometry" />
        </mxCell>
        <mxCell id="RAENhUPGnJxDj11AomGT-94" value="RST" style="text;html=1;align=center;verticalAlign=middle;resizable=0;points=[];autosize=1;strokeColor=none;fillColor=none;fontSize=14;" vertex="1" parent="RAENhUPGnJxDj11AomGT-90">
          <mxGeometry x="115" y="150" width="50" height="30" as="geometry" />
        </mxCell>
        <mxCell id="RAENhUPGnJxDj11AomGT-95" value="mo_r_en" style="rounded=0;whiteSpace=wrap;html=1;fontSize=14;fillColor=#dae8fc;strokeColor=#6c8ebf;" vertex="1" parent="RAENhUPGnJxDj11AomGT-90">
          <mxGeometry x="-50" y="105" width="70" height="20" as="geometry" />
        </mxCell>
        <mxCell id="RAENhUPGnJxDj11AomGT-96" value="RE" style="text;html=1;align=center;verticalAlign=middle;resizable=0;points=[];autosize=1;strokeColor=none;fillColor=none;fontSize=14;" vertex="1" parent="RAENhUPGnJxDj11AomGT-90">
          <mxGeometry x="75" y="100" width="40" height="30" as="geometry" />
        </mxCell>
        <mxCell id="RAENhUPGnJxDj11AomGT-97" value="WE" style="text;html=1;align=center;verticalAlign=middle;resizable=0;points=[];autosize=1;strokeColor=none;fillColor=none;fontSize=14;" vertex="1" parent="RAENhUPGnJxDj11AomGT-90">
          <mxGeometry x="70" y="145" width="50" height="30" as="geometry" />
        </mxCell>
        <mxCell id="RAENhUPGnJxDj11AomGT-98" value="Din" style="text;html=1;strokeColor=none;fillColor=none;align=center;verticalAlign=middle;whiteSpace=wrap;rounded=0;fontSize=14;" vertex="1" parent="RAENhUPGnJxDj11AomGT-90">
          <mxGeometry x="65" y="10" width="60" height="30" as="geometry" />
        </mxCell>
        <mxCell id="RAENhUPGnJxDj11AomGT-99" value="Dout" style="text;html=1;align=center;verticalAlign=middle;resizable=0;points=[];autosize=1;strokeColor=none;fillColor=none;fontSize=14;" vertex="1" parent="RAENhUPGnJxDj11AomGT-90">
          <mxGeometry x="155" y="25" width="50" height="30" as="geometry" />
        </mxCell>
        <mxCell id="RAENhUPGnJxDj11AomGT-100" value="" style="endArrow=none;html=1;rounded=0;fontSize=14;" edge="1" parent="1">
          <mxGeometry width="50" height="50" relative="1" as="geometry">
            <mxPoint x="941" y="211" as="sourcePoint" />
            <mxPoint x="991" y="211" as="targetPoint" />
          </mxGeometry>
        </mxCell>
        <mxCell id="RAENhUPGnJxDj11AomGT-101" value="" style="edgeStyle=orthogonalEdgeStyle;rounded=0;orthogonalLoop=1;jettySize=auto;html=1;fontSize=14;" edge="1" parent="1" source="RAENhUPGnJxDj11AomGT-95">
          <mxGeometry relative="1" as="geometry">
            <mxPoint x="991" y="261" as="targetPoint" />
          </mxGeometry>
        </mxCell>
        <mxCell id="RAENhUPGnJxDj11AomGT-102" value="" style="endArrow=none;html=1;rounded=0;fontSize=14;exitX=0.5;exitY=1;exitDx=0;exitDy=0;" edge="1" parent="1" source="RAENhUPGnJxDj11AomGT-91">
          <mxGeometry width="50" height="50" relative="1" as="geometry">
            <mxPoint x="1051" y="331" as="sourcePoint" />
            <mxPoint x="1051" y="371" as="targetPoint" />
          </mxGeometry>
        </mxCell>
        <mxCell id="RAENhUPGnJxDj11AomGT-103" value="reset" style="text;html=1;align=center;verticalAlign=middle;resizable=0;points=[];autosize=1;strokeColor=none;fillColor=none;fontSize=14;" vertex="1" parent="1">
          <mxGeometry x="1021" y="361" width="50" height="30" as="geometry" />
        </mxCell>
        <mxCell id="RAENhUPGnJxDj11AomGT-104" value="mo_w_en" style="rounded=0;whiteSpace=wrap;html=1;fontSize=14;fillColor=#dae8fc;strokeColor=#6c8ebf;" vertex="1" parent="1">
          <mxGeometry x="861" y="296" width="70" height="20" as="geometry" />
        </mxCell>
        <mxCell id="RAENhUPGnJxDj11AomGT-105" style="edgeStyle=orthogonalEdgeStyle;rounded=0;orthogonalLoop=1;jettySize=auto;html=1;fontSize=14;" edge="1" parent="1" source="RAENhUPGnJxDj11AomGT-104">
          <mxGeometry relative="1" as="geometry">
            <mxPoint x="991" y="306" as="targetPoint" />
          </mxGeometry>
        </mxCell>
        <mxCell id="RAENhUPGnJxDj11AomGT-106" value="out_data" style="rounded=0;whiteSpace=wrap;html=1;fontSize=14;fillColor=#f8cecc;strokeColor=#b85450;" vertex="1" parent="1">
          <mxGeometry x="1220" y="176" width="60" height="30" as="geometry" />
        </mxCell>
        <mxCell id="RAENhUPGnJxDj11AomGT-107" style="edgeStyle=orthogonalEdgeStyle;rounded=0;orthogonalLoop=1;jettySize=auto;html=1;exitX=1;exitY=0.25;exitDx=0;exitDy=0;entryX=0;entryY=0.5;entryDx=0;entryDy=0;fontSize=14;" edge="1" parent="1" source="RAENhUPGnJxDj11AomGT-91" target="RAENhUPGnJxDj11AomGT-106">
          <mxGeometry relative="1" as="geometry" />
        </mxCell>
        <mxCell id="RAENhUPGnJxDj11AomGT-108" value="" style="rounded=0;orthogonalLoop=1;jettySize=auto;html=1;fontSize=14;exitX=0.5;exitY=1;exitDx=0;exitDy=0;exitPerimeter=0;entryX=0;entryY=0.5;entryDx=0;entryDy=0;edgeStyle=orthogonalEdgeStyle;" edge="1" parent="1" source="RAENhUPGnJxDj11AomGT-75" target="RAENhUPGnJxDj11AomGT-98">
          <mxGeometry relative="1" as="geometry">
            <mxPoint x="1083" y="205" as="targetPoint" />
            <mxPoint x="1023" y="205" as="sourcePoint" />
            <Array as="points">
              <mxPoint x="806" y="171" />
            </Array>
          </mxGeometry>
        </mxCell>
        <mxCell id="RAENhUPGnJxDj11AomGT-109" value="" style="endArrow=classic;html=1;rounded=0;entryX=0.5;entryY=0;entryDx=0;entryDy=0;edgeStyle=orthogonalEdgeStyle;" edge="1" parent="1" source="RAENhUPGnJxDj11AomGT-37" target="RAENhUPGnJxDj11AomGT-52">
          <mxGeometry width="50" height="50" relative="1" as="geometry">
            <mxPoint x="288" y="-453" as="sourcePoint" />
            <mxPoint x="466" y="-139" as="targetPoint" />
          </mxGeometry>
        </mxCell>
        <mxCell id="RAENhUPGnJxDj11AomGT-110" value="" style="endArrow=classic;html=1;rounded=0;exitX=0.7;exitY=0;exitDx=0;exitDy=0;exitPerimeter=0;entryX=0.5;entryY=0;entryDx=0;entryDy=0;edgeStyle=orthogonalEdgeStyle;" edge="1" parent="1" source="RAENhUPGnJxDj11AomGT-66" target="RAENhUPGnJxDj11AomGT-51">
          <mxGeometry width="50" height="50" relative="1" as="geometry">
            <mxPoint x="615" y="-173" as="sourcePoint" />
            <mxPoint x="423" y="-141" as="targetPoint" />
            <Array as="points">
              <mxPoint x="413" y="-430" />
              <mxPoint x="579" y="-430" />
            </Array>
          </mxGeometry>
        </mxCell>
        <mxCell id="RAENhUPGnJxDj11AomGT-111" value="" style="endArrow=classic;html=1;rounded=0;entryX=0.3;entryY=0;entryDx=0;entryDy=0;edgeStyle=orthogonalEdgeStyle;entryPerimeter=0;" edge="1" parent="1" source="RAENhUPGnJxDj11AomGT-37" target="RAENhUPGnJxDj11AomGT-66">
          <mxGeometry width="50" height="50" relative="1" as="geometry">
            <mxPoint x="423" y="-141" as="sourcePoint" />
            <mxPoint x="589" y="-377" as="targetPoint" />
          </mxGeometry>
        </mxCell>
        <mxCell id="RAENhUPGnJxDj11AomGT-112" value="" style="endArrow=classic;html=1;rounded=0;entryX=0.5;entryY=0;entryDx=0;entryDy=0;edgeStyle=orthogonalEdgeStyle;exitX=1.043;exitY=0.448;exitDx=0;exitDy=0;exitPerimeter=0;" edge="1" parent="1" source="RAENhUPGnJxDj11AomGT-37" target="RAENhUPGnJxDj11AomGT-56">
          <mxGeometry width="50" height="50" relative="1" as="geometry">
            <mxPoint x="290" y="-448" as="sourcePoint" />
            <mxPoint x="642" y="-377" as="targetPoint" />
          </mxGeometry>
        </mxCell>
        <mxCell id="RAENhUPGnJxDj11AomGT-113" value="" style="endArrow=classic;html=1;rounded=0;exitX=0.7;exitY=0;exitDx=0;exitDy=0;entryX=0.5;entryY=0;entryDx=0;entryDy=0;edgeStyle=orthogonalEdgeStyle;exitPerimeter=0;" edge="1" parent="1" source="RAENhUPGnJxDj11AomGT-63" target="RAENhUPGnJxDj11AomGT-89">
          <mxGeometry width="50" height="50" relative="1" as="geometry">
            <mxPoint x="958" y="-318" as="sourcePoint" />
            <mxPoint x="820" y="-125" as="targetPoint" />
            <Array as="points">
              <mxPoint x="752" y="-419" />
              <mxPoint x="862" y="-419" />
            </Array>
          </mxGeometry>
        </mxCell>
        <mxCell id="RAENhUPGnJxDj11AomGT-114" value="&lt;b&gt;sel_min&lt;/b&gt;" style="rounded=0;whiteSpace=wrap;html=1;fillColor=#dae8fc;strokeColor=#6c8ebf;" vertex="1" parent="1">
          <mxGeometry x="764" y="-373" width="59" height="21" as="geometry" />
        </mxCell>
        <mxCell id="RAENhUPGnJxDj11AomGT-115" value="" style="endArrow=classic;html=1;rounded=0;exitX=0.493;exitY=0.9;exitDx=0;exitDy=0;entryX=0.7;entryY=0;entryDx=0;entryDy=0;entryPerimeter=0;exitPerimeter=0;edgeStyle=orthogonalEdgeStyle;" edge="1" parent="1" source="RAENhUPGnJxDj11AomGT-11" target="RAENhUPGnJxDj11AomGT-63">
          <mxGeometry width="50" height="50" relative="1" as="geometry">
            <mxPoint x="900" y="-334" as="sourcePoint" />
            <mxPoint x="900" y="-274" as="targetPoint" />
            <Array as="points">
              <mxPoint x="889" y="-173" />
              <mxPoint x="752" y="-173" />
            </Array>
          </mxGeometry>
        </mxCell>
        <mxCell id="RAENhUPGnJxDj11AomGT-116" value="&lt;b&gt;&lt;font style=&quot;font-size: 14px;&quot;&gt;MemSize(1)&lt;/font&gt;&lt;/b&gt;" style="rounded=0;whiteSpace=wrap;html=1;" vertex="1" parent="1">
          <mxGeometry x="402" y="-1140" width="120" height="180" as="geometry" />
        </mxCell>
        <mxCell id="RAENhUPGnJxDj11AomGT-117" value="" style="triangle;whiteSpace=wrap;html=1;" vertex="1" parent="1">
          <mxGeometry x="402" y="-1085" width="10" height="20" as="geometry" />
        </mxCell>
        <mxCell id="RAENhUPGnJxDj11AomGT-118" value="CLK" style="text;html=1;strokeColor=none;fillColor=none;align=center;verticalAlign=middle;whiteSpace=wrap;rounded=0;fontSize=14;" vertex="1" parent="1">
          <mxGeometry x="302" y="-1090" width="60" height="30" as="geometry" />
        </mxCell>
        <mxCell id="RAENhUPGnJxDj11AomGT-119" value="RST" style="text;html=1;align=center;verticalAlign=middle;resizable=0;points=[];autosize=1;strokeColor=none;fillColor=none;fontSize=14;" vertex="1" parent="1">
          <mxGeometry x="437" y="-990" width="50" height="30" as="geometry" />
        </mxCell>
        <mxCell id="RAENhUPGnJxDj11AomGT-120" value="mi_r_en" style="rounded=0;whiteSpace=wrap;html=1;fontSize=14;fillColor=#dae8fc;strokeColor=#6c8ebf;" vertex="1" parent="1">
          <mxGeometry x="272" y="-1035" width="70" height="20" as="geometry" />
        </mxCell>
        <mxCell id="RAENhUPGnJxDj11AomGT-121" value="Din" style="text;html=1;strokeColor=none;fillColor=none;align=center;verticalAlign=middle;whiteSpace=wrap;rounded=0;fontSize=14;" vertex="1" parent="1">
          <mxGeometry x="392" y="-1125" width="60" height="30" as="geometry" />
        </mxCell>
        <mxCell id="RAENhUPGnJxDj11AomGT-122" value="RE" style="text;html=1;align=center;verticalAlign=middle;resizable=0;points=[];autosize=1;strokeColor=none;fillColor=none;fontSize=14;" vertex="1" parent="1">
          <mxGeometry x="397" y="-1040" width="40" height="30" as="geometry" />
        </mxCell>
        <mxCell id="RAENhUPGnJxDj11AomGT-123" value="WE" style="text;html=1;align=center;verticalAlign=middle;resizable=0;points=[];autosize=1;strokeColor=none;fillColor=none;fontSize=14;" vertex="1" parent="1">
          <mxGeometry x="392" y="-995" width="50" height="30" as="geometry" />
        </mxCell>
        <mxCell id="RAENhUPGnJxDj11AomGT-124" value="Dout" style="text;html=1;align=center;verticalAlign=middle;resizable=0;points=[];autosize=1;strokeColor=none;fillColor=none;fontSize=14;" vertex="1" parent="1">
          <mxGeometry x="472" y="-1115" width="50" height="30" as="geometry" />
        </mxCell>
        <mxCell id="RAENhUPGnJxDj11AomGT-125" value="" style="endArrow=none;html=1;rounded=0;fontSize=14;" edge="1" parent="1">
          <mxGeometry width="50" height="50" relative="1" as="geometry">
            <mxPoint x="352" y="-1075" as="sourcePoint" />
            <mxPoint x="402" y="-1075" as="targetPoint" />
          </mxGeometry>
        </mxCell>
        <mxCell id="RAENhUPGnJxDj11AomGT-126" value="" style="edgeStyle=orthogonalEdgeStyle;rounded=0;orthogonalLoop=1;jettySize=auto;html=1;fontSize=14;" edge="1" parent="1" source="RAENhUPGnJxDj11AomGT-120">
          <mxGeometry relative="1" as="geometry">
            <mxPoint x="402" y="-1025" as="targetPoint" />
          </mxGeometry>
        </mxCell>
        <mxCell id="RAENhUPGnJxDj11AomGT-127" value="" style="endArrow=none;html=1;rounded=0;fontSize=14;exitX=0.5;exitY=1;exitDx=0;exitDy=0;" edge="1" parent="1" source="RAENhUPGnJxDj11AomGT-116">
          <mxGeometry width="50" height="50" relative="1" as="geometry">
            <mxPoint x="462" y="-955" as="sourcePoint" />
            <mxPoint x="462" y="-915" as="targetPoint" />
          </mxGeometry>
        </mxCell>
        <mxCell id="RAENhUPGnJxDj11AomGT-128" value="reset" style="text;html=1;align=center;verticalAlign=middle;resizable=0;points=[];autosize=1;strokeColor=none;fillColor=none;fontSize=14;" vertex="1" parent="1">
          <mxGeometry x="432" y="-925" width="50" height="30" as="geometry" />
        </mxCell>
        <mxCell id="RAENhUPGnJxDj11AomGT-129" style="edgeStyle=orthogonalEdgeStyle;rounded=0;orthogonalLoop=1;jettySize=auto;html=1;entryX=0;entryY=0.139;entryDx=0;entryDy=0;entryPerimeter=0;fontSize=14;" edge="1" parent="1" source="RAENhUPGnJxDj11AomGT-130" target="RAENhUPGnJxDj11AomGT-116">
          <mxGeometry relative="1" as="geometry" />
        </mxCell>
        <mxCell id="RAENhUPGnJxDj11AomGT-130" value="size" style="rounded=0;whiteSpace=wrap;html=1;fontSize=14;fillColor=#d5e8d4;strokeColor=#82b366;" vertex="1" parent="1">
          <mxGeometry x="282" y="-1125" width="60" height="20" as="geometry" />
        </mxCell>
        <mxCell id="RAENhUPGnJxDj11AomGT-131" value="mi_w_en" style="rounded=0;whiteSpace=wrap;html=1;fontSize=14;fillColor=#dae8fc;strokeColor=#6c8ebf;" vertex="1" parent="1">
          <mxGeometry x="272" y="-990" width="70" height="20" as="geometry" />
        </mxCell>
        <mxCell id="RAENhUPGnJxDj11AomGT-132" style="edgeStyle=orthogonalEdgeStyle;rounded=0;orthogonalLoop=1;jettySize=auto;html=1;fontSize=14;" edge="1" parent="1" source="RAENhUPGnJxDj11AomGT-131">
          <mxGeometry relative="1" as="geometry">
            <mxPoint x="402" y="-980" as="targetPoint" />
          </mxGeometry>
        </mxCell>
      </root>
    </mxGraphModel>
  </diagram>
</mxfile>
